<svg enable-background="new 0 0 480 480" viewBox="0 0 480 480" xmlns="http://www.w3.org/2000/svg"><g fill="#fff"><path d="m456 0h-256c-4.4 0-8 3.6-8 8v104h-168c-4.4 0-8 3.6-8 8v240c0 4.4 3.6 8 8 8h152v104c0 4.4 3.6 8 8 8h240c4.4 0 8-3.6 8-8v-240c0-4.4-3.6-8-8-8h-168v-16h200c4.4 0 8-3.6 8-8v-192c0-4.4-3.6-8-8-8zm-424 128h208v32h-208zm0 224v-176h208v176zm384 112h-224v-96h56c4.4 0 8-3.6 8-8v-72h160zm0-224v32h-160v-32zm32-48h-192v-72c0-4.4-3.6-8-8-8h-40v-48h240zm0-144h-240v-32h240z"/><path d="m344 144h64c4.4 0 8-3.6 8-8v-48c0-4.4-3.6-8-8-8h-64c-4.4 0-8 3.6-8 8v48c0 4.4 3.6 8 8 8zm8-48h48v32h-48z"/><path d="m336 160h80v16h-80z"/><path d="m288 360h32v16h-32z"/><path d="m336 360h32v16h-32z"/><path d="m64 208h16v16h-16z"/><path d="m96 208h112v16h-112z"/><path d="m64 256h144v16h-144z"/></g></svg>