<?xml version="1.0" encoding="utf-8"?>
<!-- Generator: Adobe Illustrator 21.1.0, SVG Export Plug-In . SVG Version: 6.00 Build 0)  -->
<svg version="1.1" id="Capa_1" xmlns="http://www.w3.org/2000/svg" xmlns:xlink="http://www.w3.org/1999/xlink" x="0px" y="0px"
	 viewBox="0 0 480 480" style="enable-background:new 0 0 480 480;" xml:space="preserve">
<style type="text/css">
	.st0{fill:#FFFFFF;}
</style>
<g>
	<g>
		<g>
			<path class="st0" d="M456,0H200c-4.4,0-8,3.6-8,8v104H24c-4.4,0-8,3.6-8,8v240c0,4.4,3.6,8,8,8h152v104c0,4.4,3.6,8,8,8h240
				c4.4,0,8-3.6,8-8V232c0-4.4-3.6-8-8-8H256v-16h200c4.4,0,8-3.6,8-8V8C464,3.6,460.4,0,456,0z M32,128h208v32H32V128z M32,352V176
				h208v176H32z M416,464H192v-96h56c4.4,0,8-3.6,8-8v-72h160V464z M416,240v32H256v-32H416z M448,192H256v-72c0-4.4-3.6-8-8-8h-40
				V64h240V192z M448,48H208V16h240V48z"/>
			<path class="st0" d="M344,144h64c4.4,0,8-3.6,8-8V88c0-4.4-3.6-8-8-8h-64c-4.4,0-8,3.6-8,8v48C336,140.4,339.6,144,344,144z
				 M352,96h48v32h-48V96z"/>
			<rect x="336" y="160" class="st0" width="80" height="16"/>
			<rect x="288" y="360" class="st0" width="32" height="16"/>
			<rect x="336" y="360" class="st0" width="32" height="16"/>
			<rect x="64" y="208" class="st0" width="16" height="16"/>
			<rect x="96" y="208" class="st0" width="112" height="16"/>
			<rect x="64" y="256" class="st0" width="144" height="16"/>
		</g>
	</g>
</g>
</svg>
