<svg enable-background="new 0 0 512 512" viewBox="0 0 512 512" xmlns="http://www.w3.org/2000/svg"><g fill="#fff"><path d="m402 166c-5.5 0-10 4.5-10 10s4.5 10 10 10 10-4.5 10-10-4.5-10-10-10z"/><path d="m482 126h-109.8l-31.7-63.4c-5.1-10.2-15.4-16.6-26.9-16.6h-115.2c-11.4 0-21.7 6.4-26.8 16.6l-31.8 63.4h-19.8v-10c0-16.5-13.5-30-30-30h-20c-16.5 0-30 13.5-30 30v10h-10c-16.5 0-30 13.5-30 30v280c0 16.5 13.5 30 30 30h452c16.5 0 30-13.5 30-30 0-27.2 0-269.4 0-280 0-16.5-13.5-30-30-30zm-292.6-54.5c1.7-3.4 5.1-5.5 8.9-5.5h115.3c3.8 0 7.2 2.1 8.9 5.5l27.2 54.5h-187.5zm-129.4 44.5c0-5.5 4.5-10 10-10h20c5.5 0 10 4.5 10 10v10h-40zm-40 109.9h126.5c-13.3 20.8-20.5 45.1-20.5 70.1s7.2 49.2 20.4 70h-126.4zm236-39.9c60.1 0 110 48.7 110 110 0 61.2-49.8 110-110 110-60.3 0-110-48.8-110-110s49.8-110 110-110zm236 250c0 5.5-4.5 10-10 10h-452c-5.5 0-10-4.5-10-10v-50h142.2c24.4 25.5 58.3 40 93.8 40 35.4 0 69.3-14.5 93.8-40h142.2zm0-70h-126.5c13.3-20.8 20.5-45 20.5-70s-7.2-49.2-20.5-70h126.5zm0-160h-142.2c-24.4-25.5-58.3-40-93.8-40-35.4 0-69.3 14.5-93.8 40h-142.2v-50c0-5.5 4.5-10 10-10h452c5.5 0 10 4.5 10 10z"/><path d="m286 86h-60c-5.5 0-10 4.5-10 10s4.5 10 10 10h60c5.5 0 10-4.5 10-10s-4.5-10-10-10z"/><path d="m256 206c-49.6 0-90 40.4-90 90s40.4 90 90 90 90-40.4 90-90-40.4-90-90-90zm0 160c-38.6 0-70-31.4-70-70s31.4-70 70-70 70 31.4 70 70-31.4 70-70 70z"/><path d="m256 246c-27.6 0-50 22.4-50 50 0 5.5 4.5 10 10 10s10-4.5 10-10c0-16.5 13.5-30 30-30 5.5 0 10-4.5 10-10s-4.5-10-10-10z"/><path d="m462 166h-20c-5.5 0-10 4.5-10 10s4.5 10 10 10h20c5.5 0 10-4.5 10-10s-4.5-10-10-10z"/></g></svg>