<svg enable-background="new 0 0 512 512" viewBox="0 0 512 512" xmlns="http://www.w3.org/2000/svg"><path d="m511.935 129.287c-.18-16.684-1.363-33.49-2.334-50.164-.567-9.724-1.157-21.634-8.807-28.788-9.449-8.837-25.833-12.572-38.142-13.756-15.4-1.48-31.15-2.496-46.631-2.68-27.82-.331-55.618 1.075-83.414.932-27.655-.142-55.31-1.559-82.983-1.558-61.199.002-121.986 1.646-183.081 4.635-22.846 1.118-48.491 4.321-56.837 28.692-4.286 12.513-4.819 28.288-6.019 41.484-1.23 13.522-2.572 26.96-3.064 40.549-2.031 56.02 1.606 112.012 1.042 168.096-.127 12.623.513 26.221 2.453 38.722 1.874 12.072 8.066 18.544 19.11 23.201 24.729 10.427 56.527 8.71 82.871 8.898 23.554.169 47.101.473 70.648.8-1.286 12.961-1.641 26.375-1.008 39.27.268 5.467.658 10.384 3.045 14.526-2.712-.269-5.423-.51-8.133-.679-10.669-.666-24.317-.164-31.9 8.79-6.503 7.68-3.872 19.353 4.966 23.449 12.63 5.853 29.355 5.007 42.915 4.943 37.008-.174 74.127-1.402 111.117-1.084 17.784.153 37.538 2.506 55.063-.616 10.541-1.878 20.201-7.981 16.847-20.098-4.023-14.535-21.406-16.14-33.976-15.53-2.28.111-4.536.247-6.783.399 3.733-5.709 4.282-12.429 4.318-19.907.049-10.167.897-21.537-.545-31.963 16.748-.033 33.5.009 50.18.607 24.85.89 56.654 6.04 79.981-4.645 24.626-11.28 30.681-38.024 36.049-62.104 6.592-29.567 9.107-60.937 10.544-91.154 1.627-34.217 2.878-69.023 2.508-103.267zm-163.07 321.986c3.366 1.016 10.973 3.173 10.797 7.958-.047 1.285-.863 2.404-1.713 3.369-5.643 6.408-10.257 5.277-18.125 5.283-32.926.026-65.794.435-98.717.459-16.258.012-32.475.067-48.721.545-11.8.348-31.968 3.015-42.469-3.219-12.343-7.327 2.989-13.568 10.097-14.428 16.407-1.985 32.993.804 49.214 3.102 15.736 2.229 31.568 2.297 47.436 2.023 12.427-.215 24.931.257 37.326-.483 17.945-1.073 36.763-9.283 54.875-4.609zm-164.17-62.814c36.123.512 72.245 1.072 108.383 1.376 9.438.08 18.896.063 28.361.038.197 6.918.714 13.88.837 20.79.23 12.912 2.83 26.056-11.867 31.452-16.655 6.115-38.033 3.404-55.655 3.643-18.433.25-37.864.724-55.791-4.122-8.505-2.299-11.209-3.581-12.547-12.337-.572-3.742-.497-7.565-.602-11.337-.274-9.825-.269-19.701-1.119-29.503zm301.721-59.004c-3.06 13.094-6.18 27.532-15.694 37.672-19.003 20.254-53.076 12.674-77.771 12.711-21.672.032-43.434-.769-65.129-.542-.904-.226-1.866-.217-2.771.028-3.884.057-7.767.14-11.645.281-54.401 1.973-109.227-2.004-163.672-1.972-27.979.016-55.956-.767-83.909-1.938-12.973-.543-28.646-1.346-40.47-7.417-14.475-7.433-12.228-25.582-13.112-39.627-.143-2.271-.238-4.553-.341-6.833 15.6 1.527 31.776-1.361 47.334-2.214 19.738-1.082 39.445-1.154 59.208-1.104 22.318.056 44.636-.048 66.953.019 21.017.062 41.877 2.588 62.88 3.036 41.571.886 83.141.502 124.694 1.961 20.794.729 41.574.621 62.382.174 17.477-.375 35.009.674 52.426-.528-.45 2.096-.872 4.192-1.363 6.293zm12.896-125.64c-.102 27.058-2.515 53.81-5.369 80.69-.809 7.626-.067 25.961-7.311 29.548-6.265 3.102-16.334.046-23.055.07-9.408.036-18.818-.119-28.224.116-20.803.52-41.59.628-62.382-.065-40.845-1.362-81.723-1.178-122.59-1.726-20.217-.271-40.323-2.861-60.539-2.932-22.298-.079-44.599.148-66.897.203-19.868.05-39.716.001-59.555 1.162-17.154 1.004-34.563 3.792-51.771 3.339-.644-22.267.143-44.854-.048-66.998-.206-23.881-1.99-47.701-1.984-71.591.007-23.985 1.577-47.742 4.108-71.584 1.312-12.366 1.76-30.96 9.309-41.361 8.775-12.09 29.806-13.309 43.538-14.087 61.034-3.46 121.922-5.694 183.081-6.154 51.446-.387 102.638 3.054 154.115 1.402 24.48 1.167 51.587-1.16 74.809 7.003 5.618 1.975 13.799 5.166 17.044 10.732 2.912 4.994 2.848 11.992 3.143 17.54.737 13.867 1.388 27.7 2.21 41.549 1.637 27.612-1.529 55.513-1.632 83.144z"/><path d="m274.148 338.048c-3.444-5.301-9.989-8.314-16.258-8.769-5.152-.374-8.642 1.886-12.273 4.363-1.936.87-3.711 2.019-5.281 3.399-.033.033-.075.059-.103.094-5.062 4.51-7.888 11.389-6.349 18.882 2.528 12.306 20.391 21.406 31.398 14.607 10.845-6.699 16.258-21.199 8.866-32.576zm-8.291 23.334c-3.679 3.586-7.577 5.769-12.878 4.541-4.603-1.066-10.007-4.574-12.522-8.712-4.783-7.87.423-14.658 7.13-19.082 4.284-1.453 8.257-3.407 13.484-1.541 10.417 3.718 12.552 17.225 4.786 24.794z"/><path d="m438.252 88.041c-.01-.152-.022-.303-.034-.454-.812-10.568 1.88-21.702-5.938-30.763-6.519-7.553-23.222-5.274-31.943-5.543-29.868-.921-59.898 1.969-89.857 1.126-64.117-1.804-128.75-.072-192.828 2.242-6.958.251-13.916.689-20.867 1.031-4.402.217-9.852-.516-13.974 1.243-4.685 2-6.817 6.347-7.743 11.107-1.239 6.374-1.915 14.613-1.066 21.434-1.052 4.751-1.343 10.09-1.742 15.32-3.429 44.977-1.359 90.428-1.704 135.509-.084 10.949-.136 22.2.566 33.122.39 6.072.092 12.463 5.477 16.382 4.639 3.376 11.523 3.602 17.033 3.986 10.994.766 22.113.509 33.135.518 43.408.036 86.84 1.682 130.248 1.883 11.748.054 23.497 1.08 35.249 1.278 11.292.19 22.69-.933 33.938-.12 22.964 1.66 46.238 4.901 69.285 3.93 10.78-.454 33.134 4.722 39.077-8.26 3.136-6.852 2.995-17.699 3.215-25.101.32-10.738.474-21.436.499-32.184.003-1.286.007-2.573.013-3.859.142-32.088 1.122-64.167 1.055-96.256-.032-15.81.093-31.795-1.094-47.571zm-6.859 12.08c-29.45.065-59.138-.998-88.556-2.282-17.862-.78-35.732-2.038-53.617-2.287-9.269-.129-19.065-.35-28.223 1.284-.664.118-1.344.197-2.007.299-.1-8.231-.34-16.442-.964-24.46 11.324-.25 22.683-.206 34.107.277 22.845.966 45.673 1.744 68.507 3.031 14.712.829 29.445 1.498 44.1 3.083 6.607.715 13.914.987 20.32 2.132 6.391 1.143 5.79 5.996 6.035 11.346.116 2.528.2 5.052.298 7.577zm-178.424-41.277c33.239.316 66.455-.046 99.686.131 15.283.082 30.536-1.308 45.793-1.158 8.627.085 25.381-1.681 30.339 6.79 5.941 10.149-2.935 9.748-10.229 9.137-10.633-.891-21.313-1.07-31.943-2.001-12.985-1.137-25.997-1.945-39.01-2.668-17.029-.945-34.07-1.667-51.11-2.387-47.364-1.997-93.423 3.028-140.57 5.79-.653.038-1.307.071-1.96.109-.083-2.234-.534-4.613-.741-6.761-.215-2.23-.415-4.553-.873-6.779 33.538-.766 67.075-.521 100.618-.203zm4.797 191.336c11.624 2.2 24.072 1.819 35.783 2.089 6.575.151 13.059-.045 19.633-.07 6.792-.026 20.647-2.234 20.181 7.868-.585 12.702-31.267 8.666-39.828 8.87-6.767.161-13.477.278-20.253.147-3.249-.063-12.111 1.009-14.831-.196-.289-.128-.567-.181-.842-.227.08-6.192.082-12.386.157-18.481zm-109.704-191.055c.032-.001.063-.001.095-.002-.304 2.404-.14 4.874-.263 7.29-.115 2.273-.215 4.353-.048 6.517-5.776.318-11.555.613-17.334.803-.313-1.883-.206-4.034-.391-5.795-.297-2.829-1.478-5.266-2.335-7.901 6.759-.395 13.519-.74 20.276-.912zm-40.332 2.118c5.645-.317 11.297-.677 16.951-1.018.069 3.607.384 7.301.53 10.887.038.938.009 1.87.054 2.764-6.654.115-13.455-.361-20.219-.542-.19-1.963-.932-4.092-1.256-5.696-.4-1.981-.215-4.434-.959-6.355 1.724.028 3.391.045 4.899-.04zm-25.36 8.854c1.121-2.742 4.803-6.915 7.722-7.851 2.59-.828 5.696-1.001 8.818-1.007-.251 2.453-.494 4.542-.146 7.08.224 1.638.402 3.308.675 4.953-3.101.029-6.183.173-9.227.535-4.122.488-10.578 2.985-7.842-3.71zm170.031 113.336c-.199 19.288-.649 38.706-1.247 58.003-.487 15.708-.066 32.111-1.429 47.782-.003.005-.007.01-.01.015-29.787-.666-59.614-.825-89.394-1.048-17.969-.134-36.071-.499-54.032-1.044-10.922-.331-24.629 1.565-28.079-11.636-2.266-8.669-.505-20.039-.672-29.028-.724-38.967-1.02-78.443.086-117.411.246-8.68.934-17.358 1.685-26.007.388-4.472.339-11.505 2.33-15.65 3.374-7.022 10.591-6.813 17.129-6.803 19.731.03 39.25-.212 58.951-1.559 31.577-2.159 62.764-5.222 94.186-6.202-2.428 17.188-.054 35.364.23 52.549.317 19.32.465 38.716.266 58.039zm179.238 23.658c-.409 17.983-.4 36.002-1.059 53.964-.433 11.809 2.659 30.987-13.386 33.161-7.564 1.025-15.728-.26-23.393.016-20.629.744-41.62-1.82-62.163-3.486-18.78-1.523-37.831-.189-56.7-.83-6.054-.206-12.115-.34-18.174-.493.391-4.787.598-9.662.724-14.563 3.905 1.483 10.189.408 13.641.504 10.132.283 20.152-.292 30.282-.389 9.532-.092 34.568 4.223 37.307-7.989 4.002-17.842-6.219-20.29-21.182-20.476-10.373-.129-20.741.139-31.118.077-3.051-.018-24.779-1.041-28.594-.103.004-.233.006-.469.011-.701.416-20.136 1.268-40.316 1.547-60.439.068-4.931.095-9.866.095-14.803 20.161-1.83 40.382-.142 60.518-2.103 5.705-.556 17.403-.299 21.38-4.698 4.508-4.987 1.749-18.053 1.866-24.178.12-6.289 2.362-16.494-3.95-20.273-3.33-1.993-9.067-.136-12.679-.02-5.004.16-10.093.246-15.094.141-12.149-.256-24.294-.736-36.445-.937-3.898-.064-10.728-.965-16.003-.142-.007-5.706-.01-11.476-.051-17.247 3.728-1.241 16.608-.313 18.932-.357 8.537-.159 17.087.197 25.612.597 15.219.714 30.426 1.482 45.648 2.107 27.371 1.124 55.025 2.56 82.417 2.691 1.125 33.642.777 67.244.011 100.969zm-94.541-50.033c-1.632 3.4-3.363 2.952-7.2 3.609-9.054 1.551-18.3 1.918-27.456 2.345-14.356.67-28.611-.515-42.995.791-.054-12.075-.22-24.156-.336-36.212-.017-1.792-.024-3.601-.031-5.411 5.351-.501 14.193 1.039 18.1 1.128 7.71.176 15.406.411 23.116.672 8.766.296 17.542.58 26.316.333 6.105-.172 10.065-3.251 11.343 6.215.531 3.931-.599 8.848-.71 12.825-.094 3.354 1.269 10.756-.147 13.705z"/><path d="m115.895 138.997c-2.367-2.835-5.537-4.871-8.27-7.33-1.5-1.35-2.926-2.8-4.367-4.212-.98-.961-3.353-2.313-2.747-3.924.951-2.532 5.529-4.714 7.434-6.768 1.918-2.068 3.597-4.938 5.57-6.799 2.1-1.981-.586-5.347-3.046-3.948-4.213 2.397-7.607 6.27-10.953 9.713-2.314 2.38-7.665 5.698-7.105 9.696.532 3.804 6.15 7.509 8.681 9.911 3.239 3.072 7.307 7.893 11.755 8.897 3.183.718 5.033-2.858 3.048-5.236z"/><path d="m143.192 96.832c-2.873 8.477-9.033 16.079-12.548 24.388-2.6 6.146-7.138 13.866-6.443 20.768.149 1.48 2.081 2.738 3.265 1.353 5.038-5.892 6.878-15.239 10.259-22.222 3.492-7.212 10.083-14.693 11.719-22.563.85-4.089-4.909-5.687-6.252-1.724z"/><path d="m164.863 118.834c-4.033-2.885-8.404-8.08-13.456-9.086-.791-.157-1.807.219-1.972 1.119-1.276 6.97 9.677 11.98 15.057 16.553-1.853 2.899-6.136 6.101-7.96 7.911-2.622 2.603-5.702 5.107-7.475 8.415-1.026 1.913.294 3.823 2.312 4.029 4.731.482 8.874-6.065 11.815-9.114 2.608-2.705 9.4-7.575 9.015-12.037-.298-3.455-4.822-5.992-7.336-7.79z"/><path d="m115.895 247.984c-2.367-2.835-5.537-4.871-8.27-7.33-1.5-1.35-2.926-2.8-4.367-4.212-.98-.96-3.353-2.313-2.747-3.924.951-2.532 5.529-4.714 7.434-6.768 1.918-2.069 3.597-4.938 5.57-6.799 2.1-1.981-.586-5.347-3.046-3.948-4.213 2.397-7.607 6.27-10.953 9.713-2.314 2.38-7.665 5.698-7.105 9.695.532 3.806 6.15 7.511 8.681 9.912 3.239 3.072 7.307 7.894 11.755 8.897 3.183.718 5.033-2.858 3.048-5.236z"/><path d="m143.192 205.82c-2.873 8.477-9.033 16.079-12.548 24.388-2.6 6.146-7.138 13.866-6.443 20.768.149 1.479 2.081 2.736 3.265 1.352 5.038-5.892 6.878-15.239 10.259-22.222 3.492-7.212 10.083-14.693 11.719-22.563.85-4.088-4.909-5.686-6.252-1.723z"/><path d="m164.863 227.821c-4.033-2.885-8.404-8.08-13.456-9.086-.791-.157-1.807.219-1.972 1.119-1.275 6.969 9.677 11.979 15.057 16.552-1.853 2.899-6.136 6.101-7.96 7.911-2.622 2.604-5.702 5.107-7.475 8.415-1.026 1.913.294 3.823 2.312 4.029 4.731.482 8.874-6.065 11.815-9.114 2.608-2.705 9.4-7.575 9.015-12.037-.298-3.454-4.822-5.99-7.336-7.789z"/><path d="m120.284 185.283c-3.444-.014-6.49 1.432-9.97.867-3.802-.617-7.94-2.463-7.321-6.949.51-3.686 3.576-6.724 6.858-8.161 1.579-.692 7.808-2.162 9.29-.708 1.81 1.776 4.484-.461 3.404-2.626-2.497-5.007-10.495-4.678-14.902-3.024-5.572 2.09-10.242 7.283-11.337 13.175-2.441 13.134 17.334 20.356 25.511 11.126 1.218-1.375.423-3.692-1.533-3.7z"/><path d="m153.845 174.761c-2.945-7.454-8.653-8.69-15.858-6.382-5.526 1.77-10.33 6.025-10.562 12.149-.314 8.287 6.554 15.206 14.984 13.793 3.936-.66 8.933-2.751 10.834-6.432 2.112-4.087 2.274-8.896.602-13.128zm-11.787 13.207c-4.33 1.083-8.072-1.654-8.785-5.955-.664-4.008 1.74-7.578 5.284-9.277 4.678-2.243 7.437-.505 9.444 4.021 2.343 5.288-.68 9.896-5.943 11.211z"/><path d="m189.701 142.031c-.974-3.402-5.614-2.482-5.902.799-.687 7.828-.527 16.135-.703 24.015-.02.892-.056 1.815-.097 2.751-.093-.094-.175-.195-.271-.287-10.876-10.349-28.036 7.244-22.337 19.186 4.576 9.589 17.118 7.343 24.066 1.976 5.703-4.406 5.827-12.598 5.766-19.148-.088-9.415 2.102-20.126-.522-29.292zm-14.048 46.984c-4.66 1.715-12.228.028-11.679-6.385.353-4.128 5.911-10.93 10.175-11.128 2.523-.116 4.647 1.587 5.931 3.611 3.411 5.371 1.728 11.637-4.427 13.902z"/><path d="m220.984 187.587c-4.74.921-9.64 1.055-13.918-1.544-.614-.373-1.146-.83-1.608-1.343 2.029-.024 4.252-.733 5.871-1.218 4.01-1.201 8.402-3.3 9.957-7.498 3.5-9.45-7.399-13.666-14.777-11.018-7.989 2.867-11.975 14.277-7.638 21.616 4.393 7.433 16.945 10.362 24.177 5.899 2.662-1.644.872-5.464-2.064-4.894zm-14.588-15.665c3.428-2.89 13.115-1.394 7.752 3.885-2.883 2.838-7.204 2.903-10.647 4.545-.475-3.038.458-6.376 2.895-8.43z"/><path d="m344.185 182.708c-12.298-1.092-24.932-.68-37.267-.687-12.582-.007-26.865 1.924-39.279.25-3.172-.428-4.564 3.848-1.356 4.918 11.219 3.74 26.711 1.415 38.386 1.435 11.977.021 28.735 3.28 40.13-1.372 2.406-.983 2.088-4.305-.614-4.544z"/><path d="m344.185 197.861c-12.298-1.092-24.932-.68-37.267-.687-12.582-.007-26.865 1.924-39.279.25-3.172-.428-4.564 3.848-1.356 4.917 11.219 3.74 26.711 1.415 38.386 1.435 11.977.021 28.735 3.28 40.13-1.372 2.406-.981 2.088-4.303-.614-4.543z"/><path d="m344.185 213.014c-12.298-1.092-24.932-.68-37.267-.687-12.582-.007-26.865 1.924-39.279.25-3.172-.428-4.564 3.848-1.356 4.917 11.219 3.74 26.711 1.415 38.386 1.435 11.977.021 28.735 3.28 40.13-1.372 2.406-.981 2.088-4.303-.614-4.543z"/><path d="m344.185 228.167c-12.298-1.092-24.932-.68-37.267-.687-12.582-.007-26.865 1.924-39.279.25-3.172-.428-4.564 3.848-1.356 4.918 11.219 3.74 26.711 1.414 38.386 1.435 11.977.021 28.735 3.28 40.13-1.372 2.406-.982 2.088-4.304-.614-4.544z"/><path d="m415.949 122.385c-9.178-1.092-18.606-.68-27.811-.687-9.389-.007-20.048 1.924-29.313.25-2.366-.427-3.405 3.849-1.011 4.918 8.372 3.74 19.934 1.414 28.646 1.435 8.938.021 21.444 3.28 29.948-1.372 1.795-.982 1.558-4.304-.459-4.544z"/><path d="m415.949 137.539c-9.178-1.092-18.606-.68-27.811-.687-9.389-.007-20.048 1.924-29.313.25-2.366-.428-3.405 3.848-1.011 4.918 8.372 3.74 19.934 1.415 28.646 1.435 8.938.021 21.444 3.28 29.948-1.372 1.795-.982 1.558-4.304-.459-4.544z"/><path d="m415.949 152.693c-9.178-1.092-18.606-.68-27.811-.687-9.389-.007-20.048 1.924-29.313.25-2.366-.429-3.405 3.847-1.011 4.917 8.372 3.74 19.934 1.415 28.646 1.435 8.938.021 21.444 3.28 29.948-1.372 1.795-.982 1.558-4.304-.459-4.543z"/><path d="m415.949 167.846c-9.178-1.092-18.606-.68-27.811-.687-9.389-.007-20.048 1.924-29.313.25-2.366-.428-3.405 3.848-1.011 4.917 8.372 3.74 19.934 1.414 28.646 1.435 8.938.021 21.444 3.28 29.948-1.372 1.795-.982 1.558-4.304-.459-4.543z"/><path d="m415.949 182.707c-9.178-1.092-18.606-.68-27.811-.687-9.389-.007-20.048 1.924-29.313.25-2.366-.427-3.405 3.848-1.011 4.918 8.372 3.74 19.934 1.415 28.646 1.435 8.938.021 21.444 3.28 29.948-1.372 1.795-.982 1.558-4.304-.459-4.544z"/><path d="m415.949 197.57c-9.178-1.092-18.606-.68-27.811-.687-9.389-.007-20.048 1.924-29.313.25-2.366-.429-3.405 3.847-1.011 4.917 8.372 3.74 19.934 1.415 28.646 1.435 8.938.021 21.444 3.28 29.948-1.372 1.795-.982 1.558-4.304-.459-4.543z"/><path d="m415.949 212.432c-9.178-1.092-18.606-.68-27.811-.687-9.389-.007-20.048 1.924-29.313.25-2.366-.429-3.405 3.847-1.011 4.917 8.372 3.74 19.934 1.414 28.646 1.435 8.938.021 21.444 3.28 29.948-1.372 1.795-.982 1.558-4.304-.459-4.543z"/><path d="m415.246 229.713c-6.591-4.625-18.751-3.77-28.245-2.52-4.612-.285-9.111-.467-13.133-.697-8.091-.463-15.155.193-18.507 8.082-4.06 9.557-3.557 25.52-1.086 35.221 2.215 8.692 9.368 10.419 17.464 11.66 10.805 1.656 24.349 3.184 34.876-.114 9.662-3.027 11.762-10.912 12.843-20.268.904-7.811 3.614-25.871-4.212-31.364zm-2.037 34.136c-3.197 14.547-15.345 13.541-27.572 12.977-5.591-.258-12.932.128-18.098-2.093-11.403-4.902-14.271-39.729.673-42.461 7.706-1.409 16.854 1.399 24.541 1.778 5.035.248 10.921-1.393 15.818.118 3.419 1.055 4.619 4.544 5.355 7.933 1.514 6.972.804 14.829-.717 21.748z"/></svg>