<svg enable-background="new 0 0 512 512" viewBox="0 0 512 512" xmlns="http://www.w3.org/2000/svg"><path d="m7.024 315.475c-3.434 2.782-2.28 11.818-2.323 15.814-.052 4.925-.641 10.3.647 15.081.989 3.672 1.307 7.824 3.638 10.938 1.872 2.501 4.313 5.123 6.627 7.232 5.316 4.845 12.072 8.412 18.83 10.786 7.467 2.623 15.371 4.154 23.285 4.423 7.855.267 15.605-1.806 23.465-.91 6.514.742 13.021-.103 19.534.573 4.444.461 8.991.978 13.448 1.069 4.745.097 9.492.188 14.235.347 3.621.121 6.891 1.216 10.44 1.473 6.367.462 12.943.05 19.23.605 5.558.491 10.918 1.221 16.563 1.341 7.09.15 14.415-.329 21.521-.571 8.3-.283 16.153-.988 24.458-.579 7.083.348 14.201.277 21.301.277 22.667 0 45.271 1.457 67.921 1.457 7.675 0 15.407-2.25 23.008-1.303 7.569.943 15.555-.248 23.195-.423 6.19-.142 12.148-2.283 18.347-2.584 5.242-.255 10.818-.411 16.047.073 4.871.451 9.36 2.65 14.261 3.012 9.569.708 20.318-.046 29.784-1.477 6.518-.985 13.09-.568 19.715-1.665 7.543-1.25 15.623-5.007 20.426-10.906 4.548-5.585 7.781-13.962 10.491-20.732 2.134-5.331 3.875-11.035 5.063-16.655.706-3.341 2.704-9.041 1.749-12.468-1.041-3.733-6.799-2.187-10.029-1.639-7.197 1.222-14.238-.817-21.457-1.13-9.974-.433-19.615 1.467-29.617 1.457-13.252-.013-26.46-1.457-39.739-1.457-10.382 0-21.814 2.193-32.083.764-9.409-1.31-18.422.077-27.956.779-10.479.771-20.732-1.228-31.155-1.549-7.601-.235-15.251.091-22.855.008-6.352-.07-12.443-1.405-18.686-2.333-3.981-.592-8.17-1.601-12.206-1.738-7.31-.248-12.786 2.412-19.741-.559-6.967-2.977-15.221-1.886-22.565-.992-7.282.886-12.666 0-19.719-1.173-9.11-1.514-17.943 1.773-27.019 1.84-7.509.055-14.907.293-22.424.291-9.751-.002-19.419.873-29.164.874-5.051.001-10.252-.315-15.234.706-3.625.743-5.962 1.941-9.521.569-7.903-3.047-16.523-3.109-24.951-1.869-9.26 1.363-18.548 2.415-27.949 2.05-4.003-.156-7.911-.543-11.944-.582-1.756-.017-3.822-.998-5.392-.901-2.805.172-3.633 3.388-3.5 2.356z" fill="#727272"/><path d="m180.996 421.548c.017 5.814.492 13.772 3.568 18.891 1.92 3.195 7.355 4.737 10.999 5.274 7.804 1.15 15.801.884 23.643 1.905 7.739 1.008 15.385 1.552 23.156 2.204 11.209.94 23.603.569 34.727-.891 8.746-1.148 17.287-3.197 26.153-3.197 3.373 0 7.249.331 10.49-.544 4.091-1.105 6.534-5.144 8.462-8.635 5.751-10.411 5.141-24.127 3.994-35.794-.385-3.918-.565-8.367-1.303-12.201-1.047-5.439-5.383-4.195-9.786-4.019-21.096.843-41.878-3.964-62.866-3.794-12.38.1-24.48 1.867-36.932 1.452-8.139-.272-16.197-.302-24.276-1.384-2.78-.372-6.477-.966-9.205-.054-2.687.899-1.995 1.631-1.991 5.018.008 8.207.245 16.491-.146 24.677-.158 3.33.137 6.58 1.313 11.092z" fill="#6d6d6d"/><path d="m363.126 450.106c1.393 4.17 1.854 10.733-.277 14.79-2.883 5.488-10.996 5.14-16.268 5.835-8.679 1.144-17.544.483-26.285 1.596-4.905.625-9.332 1.585-14.285 1.163-4.203-.358-8.464-1.205-12.605-2.04-19.937-4.021-39.721.511-59.819.511-9.231 0-18.409.482-27.627.025-7.812-.388-15.644-1.191-23.457-1.191-12.027 0-24.731.253-36.372-3.238-3.209-.962-8.084-2.374-9.404-5.864-1.457-3.851.917-7.968 4.037-10.065 4.18-2.81 8.271-4.278 13.129-5.521 6.225-1.594 13.696-1.74 20.119-1.541 3.6.111 6.851 1.713 10.488 1.751 3.63.038 7.174.007 10.768.363 10.463 1.037 20.661.651 31.195 1.087 8.641.358 17.263 1.763 25.928 1.305 8.592-.454 16.812-1.153 25.504-.73 8.923.434 18.319.723 27.168-.641 8.614-1.328 17.056-2.84 25.798-2.841 5.582 0 11.106-.744 16.661-.582 3.772.111 9.877 1.01 15.604 5.828z" fill="#f4f4f4"/><path d="m243.94 335.582c-6.79 4.188-9.247 16.641-5.074 23.167 3.417 5.344 9.58 8.289 15.565 8.597 7.484.385 12.306-.204 16.063-7.431 3.924-7.548 5.611-15.001.337-22.584-2.276-3.272-5.553-5-9.406-5.77-2.53-.506-4.595-.333-7.082.354-1.057.292-2.54.526-3.487 1.103-1.683 1.025-2.384 2.929-6.916 2.564z" fill="#6d6d6d"/><path d="m11.426 76.025c-1.841 8.381-1.999 17.301-2.426 25.831-.539 10.763-.912 21.534-1.457 32.297-.608 11.995-1.644 23.946-2.208 35.896-.258 5.459-.058 10.971-.058 16.438 0 7.073-.291 14.106-.291 21.179 0 11.882-.257 23.81.316 35.659.848 17.532.957 35.056.267 52.639-.196 5.006-.877 11.426.356 16.305 1.122 4.438 6.679 4.996 10.971 4.983 11.174-.033 22.382-.177 33.516-1.204 4.251-.393 7.352-1.657 11.284-2.922 4.403-1.416 9.087-.022 13.609.017 4.732.041 9.44-.296 14.178-.29 9.981.011 19.754-.167 29.733.227 6.026.238 12.104.657 18.134.648 9.688-.016 19.279-3.128 28.757-1.329 10.818 2.053 23.162.857 34.133.715 23.31-.302 46.653-1.492 69.943.095 18.933 1.29 38.376 1.092 57.385.243 18.85-.842 38.072-.566 56.828.845 5.294.398 10.605.945 15.895 1.435 11.183 1.035 22.456 3.336 33.732 3.263 5.604-.037 11.131-.306 16.746-.312 4.81-.005 9.454-.68 14.222-.876 4.533-.186 9.005.644 13.517.586 3.044-.039 5.626 1.568 8.604.268 2.435-1.063 4.204-3.499 5.394-5.762 3.439-6.537 4.391-15.022 5.609-22.198 2.929-17.263 4.591-35.048 6.784-52.457 2.622-20.812 3.361-40.831.867-61.659-1.109-9.268-2.074-19.802-1.023-29.094 1.022-9.035 1.312-18.134 1.904-27.202.402-6.156-1.517-11.178-1.81-17.153-.751-15.322 3.484-30.685-4.441-44.979-3.219-5.806-9.902-9.611-15.591-12.524-4.749-2.432-9.806-2.265-14.948-2.645-5.964-.44-12.168-1.685-18.121-2.528-13.057-1.85-25.679-.353-38.763-.363-29.601-.023-59.161.873-88.69-.647-15.351-.79-30.895.487-46.274-.203-7.414-.332-14.786.35-22.199-.017-8.823-.437-17.223-1.959-26.15-2.059-9.055-.102-18.079-.779-27.123-.308-7.542.393-15.111.918-22.67.901-14.078-.032-28.262-1.097-42.321-.071-13.108.957-25.91 4.3-39.089 5.04-10.712.601-22.168 2.231-32.86 1.745-9.596-.436-18.951-.987-28.264 1.744-3.583 1.051-7.277 1.418-10.271 3.841-2.409 1.949-4.607 4.594-6.624 6.937-4.858 5.634-7.501 12.148-9.012 19.025z" fill="#f4f4f4"/><path d="m77.157 88.37c-.028 9.715-.972 19.386-1.457 29.088-.907 18.138.33 36.223-.078 54.342-.343 15.195-1.929 30.328-1.96 45.519-.028 13.878-.574 27.488.095 41.408.361 7.498-.902 20.873 3.469 27.544 3.013 4.599 10.97 3.944 15.929 4.54 9.603 1.153 19.343 1.775 28.998 2.41 12.723.836 24.205 1.683 37.015.766 13.58-.972 27.194-.899 40.781-1.736 18.075-1.114 37.805 3.328 55.094-1.851 1.37-17.972-.072-36.294.65-54.364 1.098-27.459-.984-54.959-.971-82.418.011-24.803 1.758-50.402-.884-75.063-.333-3.11-.374-7.516-3.237-8.853-3.45-1.611-11.638.144-15.229.455-7.639.661-15.242 1.03-22.877 1.601-13.637 1.02-26.746 3.076-40.454 3.013-13.754-.063-27.468 1.746-41.237 1.132-10.983-.489-21.954.032-32.942.436-5.669.209-19.829-.538-20.705 12.031z" fill="#727272"/><path d="m430.733 77.491c-17.312.638-36.054-2.953-53.196-5.148-18.355-2.35-37.101-3.398-55.595-3.4-22.562-.002-45.115 1.11-67.568 2.39.528 26.365.48 53.124-.838 79.534-1.628 32.635 1.753 65.548.801 98.23-.411 14.097-1.419 28.322-.722 42.444 2.793-.511 6.533.311 9.612.423 7.349.269 14.702.479 22.057.772 15.551.62 31.267 1.028 46.801 2.448 14.95 1.366 29.713 2.277 44.667 2.98 11.163.525 22.092-.367 33.215-.369 4.984-.001 16.56 1.22 20.396-3.012 1.781-1.965 1.015-5.207 1.132-7.773.29-6.336.675-12.726 1.18-19.062 2.59-32.485 3.142-65.382 2.729-98.027-.207-16.353-.9-32.784-.406-49.162.286-9.478.802-19.027.794-28.511-.004-4.638.139-9.952-1.245-14.338-.537.124-.994.41-3.814-.419z" fill="#14ddf7"/><g fill="#008ee5"><path d="m300.57 98.861c44.882 0 89.399 6.232 134.378 3.827.286-5.691 1.958-18.454-1.79-22.961-2.499-3.005-11.926-1.903-15.637-2.225-10.494-.91-20.948-2.465-31.415-3.498-34.575-3.414-69.733-3.118-104.544-3.118-8.763 0-17.659-.386-26.393.06-.496 9.385.819 19.302 1.166 28.633 13.674.041 28.779-5.671 44.235-.718z"/><path d="m255.888 123.825c.005 12.969-.236 26.073.579 39.032.192 3.056-.202 3.798 2.179 4.668 3.099 1.133 7.309.136 10.561.287 13.069.608 26.274-.005 39.325-.887 6.697-.453 13.547-.309 20.223-.911 4.221-.381 9.937-.693 11.316-5.434 1.102-3.787.148-8.384.318-12.286.22-5.053.598-10.111.59-15.179-.006-3.835 1.217-11.354-3.778-12.191-3.27-.548-8.207.743-11.645.854-5.925.191-11.836.298-17.779.298-10.991 0-21.957-.725-32.887-1.181-5.863-.244-11.803-.55-17.503.351-.038 1.809-.133 3.681-1.499 2.579z"/><path d="m255.305 249.714c-1.152 3.705-.251 8.528-.437 12.399-.113 2.353-1.3 7.494.864 9.286 1.324 1.097 4.487.635 6.057.755 3.755.285 7.525.393 11.292.606 7.813.443 15.591-.426 23.385-.834 6.502-.341 12.914-.124 19.45-.421 3.784-.172 7.821-.437 11.513-1.076 4.915-.85 5.348-1.857 6.856-6.822.969-3.191 2.901-8.787-.002-11.577-1.61-1.547-5.354-1.566-7.403-1.708-4.378-.304-8.772-.797-13.155-1.045-11.612-.656-23.095.449-34.706.152-4.99-.128-9.96-.549-14.935-.59-2.481-.02-8.016-1.487-8.779.875z"/><path d="m385.856 230.772c-5.167-1.375-10.748-1.161-16.107-1.166-4.302-.004-7.32-.345-9.545 3.71-4.885 8.901-6.587 22.628-3.708 32.44 2.972 10.131 10.303 12.283 20.151 13.115 12.757 1.077 31.777 4.044 38.03-10.138 3.802-8.624 4.797-21.958 2.738-31.126-.866-3.855-2.48-5.836-6.377-6.777-7.186-1.736-16.78-2.445-25.182-.058z"/></g><path d="m87.827 59.119c-2.265.108-4.539 3.124-5.757 4.7-2.175 2.814-5.263 7.915-2.822 11.439 1.934 2.792 6.294 2.507 9.29 2.667 3.388.181 7.017-.035 10.286-1.024 1.014-.307 2.337-.496 2.723-1.5.79-2.056-.207-5.426-.387-7.532-.151-1.772-.346-3.524-.64-5.28-.145-.865-.212-2.312-.779-3.038-.542-.692-1.659-.904-2.438-1.148-2.866-.903-4.916-.057-9.476.716z" fill="#ff3535"/><path d="m126.882 61.975c-.405-1.268-.577-3.687-1.901-4.363-1.515-.774-4.331-.112-5.895.179-1.456.271-2.698.007-4.213.186-1.767.209-3.518.533-5.286.736-2.747.316-6.043.121-8.683 1.02-.541.184-.654.015-.813.507-.227.705.547 2.695.634 3.464.401 3.539.397 7.335 1.4 10.775.874 2.996 3.156 2.124 5.781 1.958 4.644-.294 9.179-.334 13.826-.131 1.879.082 5.629.643 7.317-.534 1.151-.802.213-2.997.032-4.182-.499-3.274-1.192-6.463-2.199-9.615z" fill="#ff8225"/><path d="m149.743 58.813v8.482c0 1.467.046 2.942-.023 4.408-.035.748.095 2.078-.376 2.728-.829 1.146-3.801 1.128-4.984 1.22-1.507.117-3.025.042-4.531.137-1.862.118-3.677.588-5.524.81-1.398.167-2.784.147-4.185.219-.442.023-1.993.391-2.38.14-.681-.442.038-3.918.036-4.684-.01-3.301-.795-6.485-1.732-9.63-.33-1.105-1.328-3.826-.673-4.955.506-.873 3.662-.689 4.659-.82 2.21-.29 4.431-.306 6.656-.303 2.851.003 5.83-.247 8.664.102 2.214.272 4.393-.559 4.393 2.146z" fill="#ffdc0f"/><path d="m187.698 55.344c-5.72-1.541-13.047.291-18.956.291-5.015.001-10.262-.063-15.162.889-3.904.759-3.253 2.3-2.956 6.455.223 3.104-.276 11.292 2.842 12.446 1.699.629 5.339-.628 7.123-.847 4.936-.608 9.933-.694 14.894-.939 10.781-.533 21.477-1.793 32.218-2.922 21.458-2.257 43.215-1.96 64.757-2.615 23.529-.715 46.958-.769 70.374 1.458 21.461 2.041 42.879 3.896 64.328 5.592 7.075.56 14.211.83 21.275 1.465 4.299.386 8.363-.527 7.047-6.067-3.322-13.992-17.38-15.109-29.31-15.724-33.597-1.732-67.368.227-101.042.227-38.773-.001-77.493-.001-117.432.291z" fill="#b2b2b2"/><path d="m511.935 129.287c-.18-16.684-1.363-33.49-2.334-50.164-.567-9.724-1.157-21.634-8.807-28.788-9.449-8.837-25.833-12.572-38.142-13.756-15.4-1.48-31.15-2.496-46.631-2.68-27.82-.331-55.618 1.075-83.414.932-27.655-.142-55.31-1.559-82.983-1.558-61.199.002-121.986 1.646-183.081 4.635-22.846 1.118-48.491 4.321-56.837 28.692-4.286 12.513-4.819 28.288-6.019 41.484-1.23 13.522-2.572 26.96-3.064 40.549-2.031 56.02 1.606 112.012 1.042 168.096-.127 12.623.513 26.221 2.453 38.722 1.874 12.072 8.066 18.544 19.11 23.201 24.729 10.427 56.527 8.71 82.871 8.898 23.554.169 47.101.473 70.648.8-1.286 12.961-1.641 26.375-1.008 39.27.268 5.467.658 10.384 3.045 14.526-2.712-.269-5.423-.51-8.133-.679-10.669-.666-24.317-.164-31.9 8.79-6.503 7.68-3.872 19.353 4.966 23.449 12.63 5.853 29.355 5.007 42.915 4.943 37.008-.174 74.127-1.402 111.117-1.084 17.784.153 37.538 2.506 55.063-.616 10.541-1.878 20.201-7.981 16.847-20.098-4.023-14.535-21.406-16.14-33.976-15.53-2.28.111-4.536.247-6.783.399 3.733-5.709 4.282-12.429 4.318-19.907.049-10.167.897-21.537-.545-31.963 16.748-.033 33.5.009 50.18.607 24.85.89 56.654 6.04 79.981-4.645 24.626-11.28 30.681-38.024 36.049-62.104 6.592-29.567 9.107-60.937 10.544-91.154 1.627-34.217 2.878-69.023 2.508-103.267zm-163.07 321.986c3.366 1.016 10.973 3.173 10.797 7.958-.047 1.285-.863 2.404-1.713 3.369-5.643 6.408-10.257 5.277-18.125 5.283-32.926.026-65.794.435-98.717.459-16.258.012-32.475.067-48.721.545-11.8.348-31.968 3.015-42.469-3.219-12.343-7.327 2.989-13.568 10.097-14.428 16.407-1.985 32.993.804 49.214 3.102 15.736 2.229 31.568 2.297 47.436 2.023 12.427-.215 24.931.257 37.326-.483 17.945-1.073 36.763-9.283 54.875-4.609zm-164.17-62.814c36.123.512 72.245 1.072 108.383 1.376 9.438.08 18.896.063 28.361.038.197 6.918.714 13.88.837 20.79.23 12.912 2.83 26.056-11.867 31.452-16.655 6.115-38.033 3.404-55.655 3.643-18.433.25-37.864.724-55.791-4.122-8.505-2.299-11.209-3.581-12.547-12.337-.572-3.742-.497-7.565-.602-11.337-.274-9.825-.269-19.701-1.119-29.503zm301.721-59.004c-3.06 13.094-6.18 27.532-15.694 37.672-19.003 20.254-53.076 12.674-77.771 12.711-21.672.032-43.434-.769-65.129-.542-.904-.226-1.866-.217-2.771.028-3.884.057-7.767.14-11.645.281-54.401 1.973-109.227-2.004-163.672-1.972-27.979.016-55.956-.767-83.909-1.938-12.973-.543-28.646-1.346-40.47-7.417-14.475-7.433-12.228-25.582-13.112-39.627-.143-2.271-.238-4.553-.341-6.833 15.6 1.527 31.776-1.361 47.334-2.214 19.738-1.082 39.445-1.154 59.208-1.104 22.318.056 44.636-.048 66.953.019 21.017.062 41.877 2.588 62.88 3.036 41.571.886 83.141.502 124.694 1.961 20.794.729 41.574.621 62.382.174 17.477-.375 35.009.674 52.426-.528-.45 2.096-.872 4.192-1.363 6.293zm12.896-125.64c-.102 27.058-2.515 53.81-5.369 80.69-.809 7.626-.067 25.961-7.311 29.548-6.265 3.102-16.334.046-23.055.07-9.408.036-18.818-.119-28.224.116-20.803.52-41.59.628-62.382-.065-40.845-1.362-81.723-1.178-122.59-1.726-20.217-.271-40.323-2.861-60.539-2.932-22.298-.079-44.599.148-66.897.203-19.868.05-39.716.001-59.555 1.162-17.154 1.004-34.563 3.792-51.771 3.339-.644-22.267.143-44.854-.048-66.998-.206-23.881-1.99-47.701-1.984-71.591.007-23.985 1.577-47.742 4.108-71.584 1.312-12.366 1.76-30.96 9.309-41.361 8.775-12.09 29.806-13.309 43.538-14.087 61.034-3.46 121.922-5.694 183.081-6.154 51.446-.387 102.638 3.054 154.115 1.402 24.48 1.167 51.587-1.16 74.809 7.003 5.618 1.975 13.799 5.166 17.044 10.732 2.912 4.994 2.848 11.992 3.143 17.54.737 13.867 1.388 27.7 2.21 41.549 1.637 27.612-1.529 55.513-1.632 83.144z"/><path d="m257.89 329.279c-5.152-.374-8.642 1.886-12.273 4.363-1.936.87-3.711 2.019-5.281 3.399-.033.033-.075.059-.103.094-5.062 4.51-7.888 11.389-6.349 18.882 2.528 12.306 20.391 21.406 31.398 14.607 10.845-6.699 16.258-21.199 8.866-32.576-3.444-5.301-9.989-8.314-16.258-8.769zm7.967 32.103c-3.679 3.586-7.577 5.769-12.878 4.541-4.603-1.066-10.007-4.574-12.522-8.712-4.783-7.87.423-14.658 7.13-19.082 4.284-1.453 8.257-3.407 13.484-1.541 10.417 3.718 12.552 17.225 4.786 24.794z"/><path d="m438.218 87.587c-.812-10.568 1.88-21.702-5.938-30.763-6.519-7.553-23.222-5.274-31.943-5.543-29.868-.921-59.898 1.969-89.857 1.126-64.117-1.804-128.75-.072-192.828 2.242-6.958.251-13.916.689-20.867 1.031-4.402.217-9.852-.516-13.974 1.243-4.685 2-6.817 6.347-7.743 11.107-1.239 6.374-1.915 14.613-1.066 21.434-1.052 4.751-1.343 10.09-1.742 15.32-3.429 44.977-1.359 90.428-1.704 135.509-.084 10.949-.136 22.2.566 33.122.39 6.072.092 12.463 5.477 16.382 4.639 3.376 11.523 3.602 17.033 3.986 10.994.766 22.113.509 33.135.518 43.408.036 86.84 1.682 130.248 1.883 11.748.054 23.497 1.08 35.249 1.278 11.292.19 22.69-.933 33.938-.12 22.964 1.66 46.238 4.901 69.285 3.93 10.78-.454 33.134 4.722 39.077-8.26 3.136-6.852 2.995-17.699 3.215-25.101.32-10.738.474-21.436.499-32.184.003-1.286.007-2.573.013-3.859.142-32.088 1.122-64.167 1.055-96.256-.032-15.81.093-31.795-1.094-47.571-.01-.152-.022-.303-.034-.454zm-6.825 12.534c-29.45.065-59.138-.998-88.556-2.282-17.862-.78-35.732-2.038-53.617-2.287-9.269-.129-19.065-.35-28.223 1.284-.664.118-1.344.197-2.007.299-.1-8.231-.34-16.442-.964-24.46 11.324-.25 22.683-.206 34.107.277 22.845.966 45.673 1.744 68.507 3.031 14.712.829 29.445 1.498 44.1 3.083 6.607.715 13.914.987 20.32 2.132 6.391 1.143 5.79 5.996 6.035 11.346.116 2.528.2 5.052.298 7.577zm-178.424-41.277c33.239.316 66.455-.046 99.686.131 15.283.082 30.536-1.308 45.793-1.158 8.627.085 25.381-1.681 30.339 6.79 5.941 10.149-2.935 9.748-10.229 9.137-10.633-.891-21.313-1.07-31.943-2.001-12.985-1.137-25.997-1.945-39.01-2.668-17.029-.945-34.07-1.667-51.11-2.387-47.364-1.997-93.423 3.028-140.57 5.79-.653.038-1.307.071-1.96.109-.083-2.234-.534-4.613-.741-6.761-.215-2.23-.415-4.553-.873-6.779 33.538-.766 67.075-.521 100.618-.203zm4.797 191.336c11.624 2.2 24.072 1.819 35.783 2.089 6.575.151 13.059-.045 19.633-.07 6.792-.026 20.647-2.234 20.181 7.868-.585 12.702-31.267 8.666-39.828 8.87-6.767.161-13.477.278-20.253.147-3.249-.063-12.111 1.009-14.831-.196-.289-.128-.567-.181-.842-.227.08-6.192.082-12.386.157-18.481zm-109.704-191.055c.032-.001.063-.001.095-.002-.304 2.404-.14 4.874-.263 7.29-.115 2.273-.215 4.353-.048 6.517-5.776.318-11.555.613-17.334.803-.313-1.883-.206-4.034-.391-5.795-.297-2.829-1.478-5.266-2.335-7.901 6.759-.395 13.519-.74 20.276-.912zm-40.332 2.118c5.645-.317 11.297-.677 16.951-1.018.069 3.607.384 7.301.53 10.887.038.938.009 1.87.054 2.764-6.654.115-13.455-.361-20.219-.542-.19-1.963-.932-4.092-1.256-5.696-.4-1.981-.215-4.434-.959-6.355 1.724.028 3.391.045 4.899-.04zm-25.36 8.854c1.121-2.742 4.803-6.915 7.722-7.851 2.59-.828 5.696-1.001 8.818-1.007-.251 2.453-.494 4.542-.146 7.08.224 1.638.402 3.308.675 4.953-3.101.029-6.183.173-9.227.535-4.122.488-10.578 2.985-7.842-3.71zm170.031 113.336c-.199 19.288-.649 38.706-1.247 58.003-.487 15.708-.066 32.111-1.429 47.782-.003.005-.007.01-.01.015-29.787-.666-59.614-.825-89.394-1.048-17.969-.134-36.071-.499-54.032-1.044-10.922-.331-24.629 1.565-28.079-11.636-2.266-8.669-.505-20.039-.672-29.028-.724-38.967-1.02-78.443.086-117.411.246-8.68.934-17.358 1.685-26.007.388-4.472.339-11.505 2.33-15.65 3.374-7.022 10.591-6.813 17.129-6.803 19.731.03 39.25-.212 58.951-1.559 31.577-2.159 62.764-5.222 94.186-6.202-2.428 17.188-.054 35.364.23 52.549.317 19.32.465 38.716.266 58.039zm179.238 23.658c-.409 17.983-.4 36.002-1.059 53.964-.433 11.809 2.659 30.987-13.386 33.161-7.564 1.025-15.728-.26-23.393.016-20.629.744-41.62-1.82-62.163-3.486-18.78-1.523-37.831-.189-56.7-.83-6.054-.206-12.115-.34-18.174-.493.391-4.787.598-9.662.724-14.563 3.905 1.483 10.189.408 13.641.504 10.132.283 20.152-.292 30.282-.389 9.532-.092 34.568 4.223 37.307-7.989 4.002-17.842-6.219-20.29-21.182-20.476-10.373-.129-20.741.139-31.118.077-3.051-.018-24.779-1.041-28.594-.103.004-.233.006-.469.011-.701.416-20.136 1.268-40.316 1.547-60.439.068-4.931.095-9.866.095-14.803 20.161-1.83 40.382-.142 60.518-2.103 5.705-.556 17.403-.299 21.38-4.698 4.508-4.987 1.749-18.053 1.866-24.178.12-6.289 2.362-16.494-3.95-20.273-3.33-1.993-9.067-.136-12.679-.02-5.004.16-10.093.246-15.094.141-12.149-.256-24.294-.736-36.445-.937-3.898-.064-10.728-.965-16.003-.142-.007-5.706-.01-11.476-.051-17.247 3.728-1.241 16.608-.313 18.932-.357 8.537-.159 17.087.197 25.612.597 15.219.714 30.426 1.482 45.648 2.107 27.371 1.124 55.025 2.56 82.417 2.691 1.125 33.642.777 67.244.011 100.969zm-94.541-50.033c-1.632 3.4-3.363 2.952-7.2 3.609-9.054 1.551-18.3 1.918-27.456 2.345-14.356.67-28.611-.515-42.995.791-.054-12.075-.22-24.156-.336-36.212-.017-1.792-.024-3.601-.031-5.411 5.351-.501 14.193 1.039 18.1 1.128 7.71.176 15.406.411 23.116.672 8.766.296 17.542.58 26.316.333 6.105-.172 10.065-3.251 11.343 6.215.531 3.931-.599 8.848-.71 12.825-.094 3.354 1.269 10.756-.147 13.705z"/><path d="m101.092 135.336c3.239 3.072 7.307 7.893 11.755 8.897 3.183.718 5.033-2.858 3.048-5.236-2.367-2.835-5.537-4.871-8.27-7.33-1.5-1.35-2.926-2.8-4.367-4.212-.98-.961-3.353-2.313-2.747-3.924.951-2.532 5.529-4.714 7.434-6.768 1.918-2.068 3.597-4.938 5.57-6.799 2.1-1.981-.586-5.347-3.046-3.948-4.213 2.397-7.607 6.27-10.953 9.713-2.314 2.38-7.665 5.698-7.105 9.696.532 3.804 6.15 7.509 8.681 9.911z"/><path d="m127.466 143.341c5.038-5.892 6.878-15.239 10.259-22.222 3.492-7.212 10.083-14.693 11.719-22.563.85-4.089-4.909-5.687-6.252-1.724-2.873 8.477-9.033 16.079-12.548 24.388-2.6 6.146-7.138 13.866-6.443 20.768.149 1.48 2.081 2.738 3.265 1.353z"/><path d="m164.492 127.42c-1.853 2.899-6.136 6.101-7.96 7.911-2.622 2.603-5.702 5.107-7.475 8.415-1.026 1.913.294 3.823 2.312 4.029 4.731.482 8.874-6.065 11.815-9.114 2.608-2.705 9.4-7.575 9.015-12.037-.298-3.455-4.822-5.992-7.336-7.79-4.033-2.885-8.404-8.08-13.456-9.086-.791-.157-1.807.219-1.972 1.119-1.276 6.97 9.677 11.98 15.057 16.553z"/><path d="m107.625 240.654c-1.5-1.35-2.926-2.8-4.367-4.212-.98-.96-3.353-2.313-2.747-3.924.951-2.532 5.529-4.714 7.434-6.768 1.918-2.069 3.597-4.938 5.57-6.799 2.1-1.981-.586-5.347-3.046-3.948-4.213 2.397-7.607 6.27-10.953 9.713-2.314 2.38-7.665 5.698-7.105 9.695.532 3.806 6.15 7.511 8.681 9.912 3.239 3.072 7.307 7.894 11.755 8.897 3.183.718 5.033-2.858 3.048-5.236-2.367-2.835-5.537-4.871-8.27-7.33z"/><path d="m143.192 205.82c-2.873 8.477-9.033 16.079-12.548 24.388-2.6 6.146-7.138 13.866-6.443 20.768.149 1.479 2.081 2.736 3.265 1.352 5.038-5.892 6.878-15.239 10.259-22.222 3.492-7.212 10.083-14.693 11.719-22.563.85-4.088-4.909-5.686-6.252-1.723z"/><path d="m164.863 227.821c-4.033-2.885-8.404-8.08-13.456-9.086-.791-.157-1.807.219-1.972 1.119-1.275 6.969 9.677 11.979 15.057 16.552-1.853 2.899-6.136 6.101-7.96 7.911-2.622 2.604-5.702 5.107-7.475 8.415-1.026 1.913.294 3.823 2.312 4.029 4.731.482 8.874-6.065 11.815-9.114 2.608-2.705 9.4-7.575 9.015-12.037-.298-3.454-4.822-5.99-7.336-7.789z"/><path d="m109.851 171.04c1.579-.692 7.808-2.162 9.29-.708 1.81 1.776 4.484-.461 3.404-2.626-2.497-5.007-10.495-4.678-14.902-3.024-5.572 2.09-10.242 7.283-11.337 13.175-2.441 13.134 17.334 20.356 25.511 11.126 1.218-1.375.423-3.692-1.533-3.7-3.444-.014-6.49 1.432-9.97.867-3.802-.617-7.94-2.463-7.321-6.949.51-3.686 3.576-6.724 6.858-8.161z"/><path d="m137.987 168.379c-5.526 1.77-10.33 6.025-10.562 12.149-.314 8.287 6.554 15.206 14.984 13.793 3.936-.66 8.933-2.751 10.834-6.432 2.112-4.087 2.274-8.896.602-13.128-2.945-7.454-8.653-8.69-15.858-6.382zm4.071 19.589c-4.33 1.083-8.072-1.654-8.785-5.955-.664-4.008 1.74-7.578 5.284-9.277 4.678-2.243 7.437-.505 9.444 4.021 2.343 5.288-.68 9.896-5.943 11.211z"/><path d="m189.701 142.031c-.974-3.402-5.614-2.482-5.902.799-.687 7.828-.527 16.135-.703 24.015-.02.892-.056 1.815-.097 2.751-.093-.094-.175-.195-.271-.287-10.876-10.349-28.036 7.244-22.337 19.186 4.576 9.589 17.118 7.343 24.066 1.976 5.703-4.406 5.827-12.598 5.766-19.148-.088-9.415 2.102-20.126-.522-29.292zm-14.048 46.984c-4.66 1.715-12.228.028-11.679-6.385.353-4.128 5.911-10.93 10.175-11.128 2.523-.116 4.647 1.587 5.931 3.611 3.411 5.371 1.728 11.637-4.427 13.902z"/><path d="m220.984 187.587c-4.74.921-9.64 1.055-13.918-1.544-.614-.373-1.146-.83-1.608-1.343 2.029-.024 4.252-.733 5.871-1.218 4.01-1.201 8.402-3.3 9.957-7.498 3.5-9.45-7.399-13.666-14.777-11.018-7.989 2.867-11.975 14.277-7.638 21.616 4.393 7.433 16.945 10.362 24.177 5.899 2.662-1.644.872-5.464-2.064-4.894zm-14.588-15.665c3.428-2.89 13.115-1.394 7.752 3.885-2.883 2.838-7.204 2.903-10.647 4.545-.475-3.038.458-6.376 2.895-8.43z"/><path d="m344.185 182.708c-12.298-1.092-24.932-.68-37.267-.687-12.582-.007-26.865 1.924-39.279.25-3.172-.428-4.564 3.848-1.356 4.918 11.219 3.74 26.711 1.415 38.386 1.435 11.977.021 28.735 3.28 40.13-1.372 2.406-.983 2.088-4.305-.614-4.544z"/><path d="m344.185 197.861c-12.298-1.092-24.932-.68-37.267-.687-12.582-.007-26.865 1.924-39.279.25-3.172-.428-4.564 3.848-1.356 4.917 11.219 3.74 26.711 1.415 38.386 1.435 11.977.021 28.735 3.28 40.13-1.372 2.406-.981 2.088-4.303-.614-4.543z"/><path d="m344.185 213.014c-12.298-1.092-24.932-.68-37.267-.687-12.582-.007-26.865 1.924-39.279.25-3.172-.428-4.564 3.848-1.356 4.917 11.219 3.74 26.711 1.415 38.386 1.435 11.977.021 28.735 3.28 40.13-1.372 2.406-.981 2.088-4.303-.614-4.543z"/><path d="m344.185 228.167c-12.298-1.092-24.932-.68-37.267-.687-12.582-.007-26.865 1.924-39.279.25-3.172-.428-4.564 3.848-1.356 4.918 11.219 3.74 26.711 1.414 38.386 1.435 11.977.021 28.735 3.28 40.13-1.372 2.406-.982 2.088-4.304-.614-4.544z"/><path d="m357.814 126.866c8.372 3.74 19.934 1.414 28.646 1.435 8.938.021 21.444 3.28 29.948-1.372 1.795-.982 1.558-4.304-.459-4.544-9.178-1.092-18.606-.68-27.811-.687-9.389-.007-20.048 1.924-29.313.25-2.366-.427-3.405 3.849-1.011 4.918z"/><path d="m357.814 142.02c8.372 3.74 19.934 1.415 28.646 1.435 8.938.021 21.444 3.28 29.948-1.372 1.795-.982 1.558-4.304-.459-4.544-9.178-1.092-18.606-.68-27.811-.687-9.389-.007-20.048 1.924-29.313.25-2.366-.428-3.405 3.848-1.011 4.918z"/><path d="m357.814 157.173c8.372 3.74 19.934 1.415 28.646 1.435 8.938.021 21.444 3.28 29.948-1.372 1.795-.982 1.558-4.304-.459-4.543-9.178-1.092-18.606-.68-27.811-.687-9.389-.007-20.048 1.924-29.313.25-2.366-.429-3.405 3.847-1.011 4.917z"/><path d="m357.814 172.326c8.372 3.74 19.934 1.414 28.646 1.435 8.938.021 21.444 3.28 29.948-1.372 1.795-.982 1.558-4.304-.459-4.543-9.178-1.092-18.606-.68-27.811-.687-9.389-.007-20.048 1.924-29.313.25-2.366-.428-3.405 3.848-1.011 4.917z"/><path d="m357.814 187.188c8.372 3.74 19.934 1.415 28.646 1.435 8.938.021 21.444 3.28 29.948-1.372 1.795-.982 1.558-4.304-.459-4.544-9.178-1.092-18.606-.68-27.811-.687-9.389-.007-20.048 1.924-29.313.25-2.366-.427-3.405 3.848-1.011 4.918z"/><path d="m357.814 202.05c8.372 3.74 19.934 1.415 28.646 1.435 8.938.021 21.444 3.28 29.948-1.372 1.795-.982 1.558-4.304-.459-4.543-9.178-1.092-18.606-.68-27.811-.687-9.389-.007-20.048 1.924-29.313.25-2.366-.429-3.405 3.847-1.011 4.917z"/><path d="m357.814 216.912c8.372 3.74 19.934 1.414 28.646 1.435 8.938.021 21.444 3.28 29.948-1.372 1.795-.982 1.558-4.304-.459-4.543-9.178-1.092-18.606-.68-27.811-.687-9.389-.007-20.048 1.924-29.313.25-2.366-.429-3.405 3.847-1.011 4.917z"/><path d="m415.246 229.713c-6.591-4.625-18.751-3.77-28.245-2.52-4.612-.285-9.111-.467-13.133-.697-8.091-.463-15.155.193-18.507 8.082-4.06 9.557-3.557 25.52-1.086 35.221 2.215 8.692 9.368 10.419 17.464 11.66 10.805 1.656 24.349 3.184 34.876-.114 9.662-3.027 11.762-10.912 12.843-20.268.904-7.811 3.614-25.871-4.212-31.364zm-2.037 34.136c-3.197 14.547-15.345 13.541-27.572 12.977-5.591-.258-12.932.128-18.098-2.093-11.403-4.902-14.271-39.729.673-42.461 7.706-1.409 16.854 1.399 24.541 1.778 5.035.248 10.921-1.393 15.818.118 3.419 1.055 4.619 4.544 5.355 7.933 1.514 6.972.804 14.829-.717 21.748z"/></svg>