<svg enable-background="new 0 0 681 681" viewBox="0 0 681 681" xmlns="http://www.w3.org/2000/svg"><g fill="#fff"><path d="m30.4 146.4c5.2 0 9.4-4.2 9.4-9.4v-36.1c0-5.8 4.8-10.6 10.6-10.6h530.1c5.2 0 9.4-4.2 9.4-9.4s-4.2-9.4-9.4-9.4h-530.1c-16.2 0-29.3 13.1-29.3 29.3v36.1c0 5.3 4.2 9.5 9.3 9.5z"/><path d="m630.2 71.6h-10.1c-5.2 0-9.4 4.2-9.4 9.4s4.2 9.4 9.4 9.4h10.1c5.8 0 10.6 4.8 10.6 10.6v344.8h-19.8v-279.2c0-19.6-16-35.6-35.6-35.6s-35.5 15.9-35.5 35.5v279.2h-49.5c-5.2 0-9.4 4.2-9.4 9.4s4.2 9.4 9.4 9.4h49.5v31.2h-499.5c-5.8 0-10.6-4.8-10.6-10.6v-20.6h420.1c5.2 0 9.4-4.2 9.4-9.4s-4.2-9.4-9.4-9.4h-420.1v-269c0-5.2-4.2-9.4-9.4-9.4s-9.4 4.2-9.4 9.4v308.3c0 16.2 13.1 29.3 29.3 29.3h195.8v31.2h-61.7c-15.5 0-28.1 12.6-28.1 28.1s12.6 28.1 28.1 28.1h311.7c15.5 0 28.1-12.6 28.1-28.1s-12.6-28.1-28.1-28.1h-61.7v-31.2h115.5v24.6c0 1.3.3 2.5.8 3.7l19.9 48c2.7 6.4 8.4 10.4 14.9 10.4s12.2-4 14.9-10.4l19.9-48c.5-1.2.8-2.4.8-3.7v-24.6h9.2c16.2 0 29.3-13.1 29.3-29.3v-384.1c-.1-16.1-13.2-29.3-29.4-29.3zm-124.7 501.9c0 5.2-4.2 9.4-9.4 9.4h-311.7c-5.2 0-9.4-4.2-9.4-9.4s4.2-9.4 9.4-9.4h311.7c5.2.1 9.4 4.3 9.4 9.4zm-89.8-28h-150.8v-31.2h150.9v31.2zm152.9-259h33.7v243.1h-33.7zm0-49.8h33.7v31.1h-33.7zm16.8-87c9.3 0 16.8 7.5 16.8 16.8v51.5h-33.7v-51.4c.1-9.3 7.6-16.9 16.9-16.9zm0 428.1-12.2-29.5h24.4zm44.8-82.2h-9.2v-31.2h19.8v20.6c0 5.8-4.7 10.6-10.6 10.6z"/><path d="m359.2 241c-6 0-11.6 2.9-15.2 7.8l-22.1 30.7-52.4-71.9c-3.6-5-9.5-7.9-15.6-7.9s-12 3-15.6 7.9l-88.6 121.6h-22.3c-15.5 0-28.1 12.6-28.1 28.1s12.6 28.1 28.1 28.1h327.2c15.5 0 28.1-12.6 28.1-28.1s-12.6-28.1-28.1-28.1h-22.3l-57.9-80.3c-3.6-5-9.3-7.9-15.2-7.9zm-105.8-22.5c.1-.1.2-.3.5-.3s.4.2.5.3l80.6 110.6h-162.3zm210.5 138.7c0 5.2-4.2 9.4-9.4 9.4h-327.2c-5.2 0-9.4-4.2-9.4-9.4s4.2-9.4 9.4-9.4h327.2c5.2 0 9.4 4.2 9.4 9.4zm-105.8-28.1-24.6-33.8 25.7-35.6 50 69.4z"/><path d="m464.6 189.2c0-19.6-15.9-35.5-35.5-35.5s-35.5 15.9-35.5 35.5 15.9 35.5 35.5 35.5c19.5 0 35.5-15.9 35.5-35.5zm-52.4 0c0-9.3 7.6-16.8 16.8-16.8 9.3 0 16.8 7.6 16.8 16.8 0 9.3-7.6 16.8-16.8 16.8s-16.8-7.5-16.8-16.8z"/></g></svg>