<?xml version="1.0" encoding="iso-8859-1"?>
<!-- Generator: Adobe Illustrator 19.0.0, SVG Export Plug-In . SVG Version: 6.00 Build 0)  -->
<svg version="1.1" id="Capa_1" xmlns="http://www.w3.org/2000/svg" xmlns:xlink="http://www.w3.org/1999/xlink" x="0px" y="0px"
	 viewBox="0 0 511.998 511.998" style="enable-background:new 0 0 511.998 511.998;" xml:space="preserve">
<path style="fill:#F4F4F4;" d="M19.085,153.557c-5.114,12.889-2.168,34.21-2.402,47.841c-0.322,18.767-2.552,37.331-3.588,56.062
	c-1.639,29.619-2.417,58.824-2.417,88.538c0,30.372-0.021,60.683,0,91.031c0.009,12.624,0,25.247,0,37.871
	c0,5.637-1.377,13.107,0.005,18.429c2.356,9.073,17.665,9.059,24.927,9.43c14.508,0.742,28.934,0.314,43.281,1.63
	c11.662,1.07,23.239,0.987,34.971,1.053c30.427,0.173,60.914,2.118,91.336,0.495c26.459-1.412,52.848-4.575,79.334-5.316
	c29.059-0.813,58.359,1.059,87.398,1.966c27.77,0.867,54.172,3.426,81.874-0.583c9.305-1.347,24.051-0.525,31.533-7.352
	c7.399-6.751,5.322-23.933,6.351-33.303c2.128-19.383,0.752-38.97,1.67-58.418c1.046-22.151,1.791-43.942,5.067-65.916
	c1.316-8.826,2.546-17.5,3.322-26.441c1.467-16.894,2.085-32.91,1.947-50.007c-0.113-13.99-0.613-27.966-0.596-41.985
	c0.016-13.101,0.333-26.36-1.069-39.351c-1.161-10.761,0.054-25.899-14.181-26.875c-27.44-1.879-56.73,1.853-84.41,2.386
	c-23.419,0.451-45.852-0.786-68.963-2.533c-9.525-0.72-18.834,0.389-28.138-2.301c-9.828-2.842-19.502-2.912-30.039-2.779
	c-23.176,0.292-46.275,2.388-69.422,3.375c-17.982,0.767-35.944-0.536-53.876,0.346c-16.261,0.799-32.457,2.614-48.695,3.257
	c-13.155,0.521-26.146-1.75-39.361-1.75C50.608,152.356,33.584,148.251,19.085,153.557z"/>
<path style="fill:#9E9E9E;" d="M118.169,61.078c0.97,13.148-9.488,31.117,6.751,36.031c10.177,3.079,23.661,4.644,33.783,1.252
	c9.132-3.06,8.046-13.76,7.52-22.871c-0.534-9.269,0.177-19.545-10.362-20.417C148.368,54.452,120.269,51.095,118.169,61.078z"/>
<g>
	<path style="fill:#B9C8D3;" d="M127.777,11.236c-0.036,14.151-2.549,30.276,1.906,43.733c6.696,1.044,17.192,4.888,19.736-3.459
		c4.046-13.277-0.026-31.704-0.715-45.587C141.46,5.306,129.111,4.381,127.777,11.236z"/>
	<path style="fill:#B9C8D3;" d="M124.174,98.91c0.318,5.247-1.459,10.933-1.949,16.2c-0.749,8.043-0.811,15.992-1.187,24.065
		c-0.589,12.635-1.391,25.225-2.291,37.799c-1.503,20.988-4.123,41.841-4.181,62.934c-0.03,11.063,3.742,22.037,17.715,18.795
		c5.927-1.375,5.03-10.268,5.104-16.42c0.165-13.688,1.196-27.12,1.801-40.716c0.981-22.024-0.988-48.582,5.436-69.417
		c3.033,41.373,15.214,82.128,27.128,121.629c3.857-2.417,15.922-2.709,17.855-6.222c1.806-3.283-3.534-16.542-4.212-19.72
		c-2.661-12.478-4.236-25.685-8.374-37.784c-6.556-19.169-9.337-38.697-14.914-58.118c-3.149-10.967-7.036-22.805-7.395-34.15
		C145.88,97.195,132.485,100.771,124.174,98.91z"/>
</g>
<path style="fill:#71D182;" d="M381.793,86.9c-8.201,15.275-27.534,28.532-40.209,40.194
	c-14.675,13.502-28.884,27.727-43.231,41.598c-8.967,8.669-17.057,18.169-26.35,26.447c-9.232,8.224-19.433,15.334-28.086,24.209
	c-2.936,3.011-15.557,16.656-13.538,21.922c0.71,1.851,8.831,5.231,10.749,5.846c6.066,1.944,14.186,1.679,20.479,1.354
	c6.194-0.32,11.483,2.461,17.802,2.568c7.198,0.122,14.298-1.461,21.452-1.982c16.54-1.203,31.989-1.69,48.504-0.618
	c25.204,1.636,51.375,5.347,76.502,5.269c7.801-0.024,16.111-1.267,23.083-5.135c7.888-4.377,8.749-13.848,9.854-22.434
	c1.174-9.124,2.155-18.404-9.112-19.18c-15.095-1.04-29.258,2.986-44.182,5c-18.755,2.531-38.409,4.19-57.356,3.483
	c-8.556-0.319-19.889-0.46-28.131-3.001c-11.574-3.569-4.832-11.483,0.67-17.003c8.946-8.974,18.145-17.678,27.475-26.252
	c14.875-13.669,31.087-26.562,42.902-43.139c5.907-8.288,8.952-15.54,17.401-21.973c4.643-3.535,13.56-9.433,16.706-1.032
	c2.013,5.377,0.455,14.028,0.455,19.731c0,7.006,0.29,14.094-0.051,21.086c-0.662,13.564,0.165,27.225,0.051,40.926
	c-0.097,11.649-3.792,45.896,16.811,43.152c20.008-2.664,16.065-43.615,16.784-57.006c1.066-19.846,3.388-39.126,2.404-58.976
	c-0.813-16.401,0.156-34.44,1.526-50.829c0.73-8.732,1.84-17.129,2.108-25.903c0.213-6.993,2.364-14.643,1.232-21.627
	c-2.864-17.672-28.5,17.972-33.199,21.67C414.24,50.261,400.528,69.859,381.793,86.9z"/>
<path style="fill:#FFC700;" d="M92.242,287.79c-0.926,1.552-1.44,3.594-2.099,5.282c-1.516,3.88-3.265,7.718-5.253,11.382
	c-3.574,6.584-7.542,12.861-11.351,19.293c-3.11,5.252-5.261,11.13-7.985,16.588c-2.794,5.598-5.717,11.077-8.596,16.623
	c-2.516,4.847-5.588,9.361-7.619,14.454c-1.736,4.352-3.699,8.959-4.812,13.523c-1.396,5.725-4.582,12.967-0.236,18.231
	c1.165,1.412,2.914,1.451,4.58,1.863c3.07,0.758,5.839,1.417,8.994,1.659c5.631,0.432,11.277,1.101,16.811,2.252
	c5.71,1.187,11.421,2.632,17.255,2.89c2.902,0.128,5.828,0.512,8.734,0.245c3.246-0.298,6.286-0.878,9.578-0.879
	c4.846-0.001,9.508-0.683,14.325-0.909c2.052-0.096,4.052-0.064,6.084-0.473c2.597-0.522,4.866-1.628,7.366-2.413
	c5.089-1.598,5.194-5.998,4.668-10.907c-0.794-7.415-4.235-13.638-6.451-20.675c-2.842-9.023-6.995-17.545-10.559-26.295
	c-3.539-8.692-6.291-17.624-9.65-26.356c-2.67-6.941-4.726-14.121-7.911-20.848C106.802,299.54,99.324,278.539,92.242,287.79z"/>
<path style="fill:#14DDF7;" d="M94.344,429.21c-0.026,6.814-0.601,13.623-0.601,20.465c0,4.997-0.964,10.237,0.184,15.156
	c0.424,1.82,0.805,4.309,2.061,5.783c1.07,1.257,3.172,1.755,4.694,2.282c3.364,1.165,6.987,0.923,10.491,1.314
	c4.051,0.451,8.221,0.206,12.296,0.346c28.326,0.972,57.018,3.029,85.139-1.076c3.6-0.525,8.014-0.276,9.307-4.308
	c1.962-6.116,0.24-13.3-0.048-19.542c-0.816-17.681-1.12-35.389-0.706-53.102c0.117-4.992,0.078-12.705-4.545-15.667
	c-2.455-1.573-6.04-2.425-8.858-3.039c-4.14-0.903-8.8-1.287-13.035-1.311c-4.397-0.025-8.971,0.122-13.339-0.442
	c-4.455-0.576-9.164-1.247-13.667-1.042c-4.475,0.204-8.984,0.479-13.462,0.593c-1.464,0.037-2.92,0.003-4.373-0.156
	c-1.036-0.113-3.073-0.753-4.051-0.217c-0.851,0.466-0.726,0.358-0.786,1.272c-0.06,0.908,1.021,2.045,1.395,2.816
	c0.628,1.293,0.809,2.418,1,3.837c0.634,4.699,1.748,9.38,1.954,14.125c0.089,2.04,0.055,4.198-1.904,5.348
	c-1.102,0.647-2.492,0.712-3.661,1.378c-1.589,0.905-2.791,1.187-4.598,1.463c-3.647,0.558-7.313,0.506-10.945,1.13
	c-4.781,0.821-9.644,1.228-14.488,1.273c-4.038,0.037-8.249-0.152-12.167,0.875c-2.736,0.718-2.21,3.64-2.97,6.197
	c-0.526,1.766-0.002,3.603,0.105,5.402C94.937,423.271,95.013,426.478,94.344,429.21z"/>
<path style="fill:#FF3535;" d="M283.405,360.401c-6.899,6.561-12.116,14.24-16.514,22.629c-2.134,4.071-4.229,7.917-5.304,12.406
	c-0.928,3.876-1.001,7.824-1.001,11.801c0,6.553,0.459,13.202,2.359,19.507c0.876,2.905,1.961,6.226,3.94,8.578
	c1.679,1.996,3.515,3.77,4.934,6.015c1.651,2.613,2.82,5.571,4.638,8.086c2.006,2.777,4.94,5.293,7.823,7.155
	c2.372,1.531,4.017,3.066,6.772,4.144c2.783,1.089,5.113,3.185,7.885,4.261c5.013,1.946,10.141,1.108,15.347,1.479
	c3.291,0.234,6.388,1.404,9.652,1.716c4.643,0.444,9.003-1.389,13.467-2.335c5.608-1.187,11.366-1.521,16.922-2.991
	c2.157-0.57,3.226-2.201,4.816-3.637c0.785-0.71,2.119-1.387,2.54-2.381c1.693-3.995-8.079-9.782-10.427-11.96
	c-5.544-5.142-10.149-10.53-12.279-17.899c-2.275-7.871-0.727-17.499,0.228-25.494c0.405-3.389,1.162-6.538,1.901-9.857
	c0.439-1.971,0.4-2.268-1.251-3.254c-3.01-1.797-6.714-2.465-9.863-3.943c-2.164-1.016-4.551-1.515-6.567-2.806
	c-2.465-1.577-4.3-3.411-6.369-5.431c-5.951-5.812-9.597-11.277-11.823-19.381c-0.436-1.586-0.598-3.884-1.959-4.864
	c-2.06-1.483-6.078-0.333-8.134,0.574C290.929,354.376,288.3,358.179,283.405,360.401z"/>
<path style="fill:#71D182;" d="M317.284,292.393c-4.803,4.402-7.51,10.683-10.441,16.371c-2.837,5.506-4.945,11.155-5.923,17.261
	c-0.804,5.017-0.608,9.647-0.447,14.675c0.078,2.418-0.681,6.639,2.399,7.43c3.878,0.997,7.82,0.127,11.709-0.164
	c4.974-0.371,9.778,0.386,14.646,1.141c3.401,0.527,6.341,1.985,9.634,2.891c4.622,1.272,9.339,5.677,13.169,8.579
	c1.557,1.179,3.583,4.563,5.785,3.432c1.355-0.696,2.614-2.853,3.663-3.973c2.308-2.466,5.057-4.414,7.701-6.484
	c3.954-3.096,7.693-4.079,12.587-4.75c4.812-0.659,9.716-1.313,14.572-1.312c3.88,0.001,8.092,0.289,11.684,1.868
	c1.871,0.822,3.275,1.971,5.343,2.301c3.343,0.534,3.471-2.988,3.731-5.77c0.703-7.536,0.485-15.412-1.468-22.748
	c-2.264-8.505-5.207-17.061-9.432-24.786c-1.793-3.278-3.822-6.388-6.259-9.227c-0.967-1.126-2.117-1.932-3.171-2.963
	c-1.194-1.168-2.092-2.688-3.43-3.706c-3.562-2.711-8.44-4.187-12.64-5.498c-4.731-1.476-9.68-2.859-14.649-3.188
	c-9.71-0.643-19.573,0.659-28.634,4.209c-3.544,1.389-7.523,3.257-10.635,5.46c-2.113,1.495-3.75,3.567-5.735,5.233
	C319.941,289.6,318.766,291.134,317.284,292.393z"/>
<path style="fill:#008EE5;" d="M383.706,392.652c-2.3,0.808-5.29,3.397-5.962,5.8c-0.38,1.358,0.223,2.965,0.412,4.349
	c0.472,3.462,0.631,6.958,0.631,10.45c-0.001,6.544-0.531,13.727-2.5,20.018c-0.85,2.716-2.36,5.151-3.854,7.554
	c-1.345,2.163-3.239,3.88-4.668,5.961c-1.157,1.686-2.051,3.45-3.415,5.001c-0.639,0.728-2.247,2.137-2.059,3.192
	c0.214,1.201,2.234,2.771,3.034,3.558c1.807,1.779,3.637,3.423,5.681,4.931c1.684,1.242,4.032,1.859,5.974,2.615
	c2.173,0.846,4.366,1.646,6.587,2.359c4.433,1.422,8.994,2.501,13.642,2.886c9.709,0.804,19.586-2.569,28.289-6.51
	c4.755-2.153,9.525-4.608,13.348-8.232c3.537-3.353,6.026-7.207,8.4-11.434c2.282-4.064,4.58-8.361,6.305-12.689
	c1.84-4.618,2.002-9.756,2.002-14.666c0-6.155-0.624-11.931-2.012-17.914c-0.723-3.116-2.863-5.52-3.186-8.738
	c-0.25-2.495-1.409-3.725-2.811-5.653c-1.859-2.556-2.899-5.75-4.367-8.542c-1.568-2.982-3.331-5.868-5.414-8.521
	c-2.794-3.558-6.166-6.32-10.078-8.566c-2.78-1.596-5.776-3.203-8.842-4.162c-2.227-0.697-2.191,0.117-2.618,2.222
	c-0.33,1.627-1.065,3.1-1.536,4.683c-0.463,1.556-0.808,3.109-1.476,4.6c-1.757,3.924-4.503,7.223-7.082,10.616
	c-4.296,5.651-10.687,9.716-16.971,12.821C387.4,391.508,385.544,392.006,383.706,392.652z"/>
<path style="fill:#FFDC0F;" d="M305.023,351.894c-0.499,1.622,0.63,4.26,1.191,5.774c1.487,4.008,3.475,7.48,5.814,11.035
	c1.927,2.929,3.581,5.895,5.908,8.54c2.307,2.623,4.535,5.211,7.005,7.682c2.036,2.036,3.902,3.564,6.697,4.524
	c1.555,0.534,3.162,1.197,4.834,1.195c1.429-0.002,2.719-0.64,3.967-1.265c0.867-0.435,2.115-0.721,2.878-1.315
	c0.907-0.706,1.138-2.185,1.484-3.213c0.5-1.484,0.982-2.977,1.627-4.406c1.884-4.168,4.998-7.356,7.469-11.126
	c0.761-1.162,1.801-2.389,1.878-3.839c0.072-1.344-0.72-3.263-1.261-4.466c-2.415-5.367-8.496-7.093-13.409-9.223
	c-3.228-1.399-6.28-2.753-9.693-3.649c-3.063-0.803-6.247-1.191-9.411-1.257c-3.328-0.07-6.602,0.355-9.913,0.4
	C308.924,347.329,307.227,348.563,305.023,351.894z"/>
<path style="fill:#14DDF7;" d="M357.068,365.506c4.751,1.444,6.707,6.607,9.007,10.626c2.482,4.335,3.839,9.111,5.589,13.739
	c1.283,3.393,3.593,4.443,7.05,3.267c2.607-0.888,5.438-1.525,7.922-2.703c2.537-1.203,4.862-2.875,7.228-4.377
	c5.85-3.714,12.978-8.777,16.248-15.04c1.705-3.265,3.124-6.705,4.455-10.124c1.033-2.653,1.418-5.714,0.037-8.265
	c-2.394-4.424-8.232-4.98-12.751-4.994c-4.357-0.013-8.683,0.875-12.986,1.51c-3.874,0.571-7.628,0.626-11.193,2.381
	c-3.855,1.898-7.791,3.455-11.475,5.653C363.197,358.97,358.931,359.691,357.068,365.506z"/>
<path style="fill:#F3429E;" d="M339.803,395.081c-1.8,8.538-1.037,17.854,0.507,26.349c0.973,5.353,3.577,11.761,7.228,15.901
	c2.995,3.394,5.825,6.761,8.474,10.446c1.089,1.515,3.219,4.46,4.928,5.292c3.426,1.666,5.871-7.085,6.953-8.958
	c1.512-2.618,3.073-4.923,4.223-7.747c1.095-2.69,1.462-5.429,2.144-8.246c1.466-6.054,3.339-13,2.806-19.256
	c-0.262-3.078,0.413-8.262-1.906-10.78c-1.303-1.416-4.336-1.696-6.086-1.879c-4.264-0.446-8.54-0.792-12.799-1.271
	c-3.391-0.382-6.765-1.479-10.168-1.5c-1.291-0.008-2.877-0.393-4.137-0.157C340.241,393.597,340.349,395.165,339.803,395.081z"/>
<path style="fill:#FFFFFF;" d="M354.866,365.806c-1.282,0.848-2.271,2.535-3.189,3.83c-2.42,3.413-4.513,7.053-7.034,10.4
	c-2.159,2.867-3.15,5.597-3.633,9.141c-0.303,2.223-0.258,3.895,1.885,4.698c3.013,1.129,7.498,1.214,10.719,1.712
	c5.111,0.791,10.597,0.878,15.804,0.644c1.867-0.084,4.556,0.13,5.068-1.837c1.031-3.958-2.396-9.041-4.163-12.285
	c-1.121-2.058-1.547-4.24-2.443-6.331c-0.978-2.281-3.059-4.437-4.633-6.343c-0.911-1.103-1.795-2.124-3.057-2.867
	C359.336,366.064,356.996,365.549,354.866,365.806z"/>
<path d="M222.421,387.459c0.149-14.983-5.979-15.999-19.518-16.597c-20.124-0.889-40.359-1.303-60.483-0.668
	c-0.033,0.001-0.059,0.01-0.091,0.012c-7.398-19.844-15.961-39.178-24.943-58.347c-3.346-7.142-11.379-36.086-23.381-30.743
	c-5.786,2.576-9.372,13.132-12.062,18.35c-3.244,6.29-5.775,12.854-8.363,19.423c-5.24,9.409-10.528,18.799-15.327,28.343
	c-5.39,10.717-10.471,21.628-15.13,32.687c-2.24,5.32-6.478,12.858-4.763,18.938c3.557,12.611,25.339,12.28,35.275,12.75
	c6.07,0.287,12.145,0.412,18.221,0.5c-1.245,16.519,1.113,33.596,0.559,50.134c-0.413,12.35,6.11,13.323,17.42,13.893
	c18.425,0.928,37.035,0.913,55.495,1.066c15.848,0.133,35.486,2.078,50.825-2.27c12.379-3.509,9.152-16.541,8.707-27.002
	C223.997,427.595,222.218,407.849,222.421,387.459z M65.526,403.495c-8.902-0.89-19.697-1.533-18.361-13.125
	c0.82-7.117,6.628-16.164,9.587-22.892c10.58-24.058,24.1-47.056,34.617-71.145c1.575-3.606,6.305-5.739,8.92-2.92
	c3.103,3.345,3.863,9.855,5.714,13.98c3.423,7.626,7.223,15.077,10.741,22.659c6.775,14.595,12.566,29.721,18.322,44.745
	c2.716,7.09,8.519,18.674,3.083,25.227c-4.695,5.659-14.238,4.999-20.797,4.763C100.1,404.167,82.725,405.214,65.526,403.495z
	 M216.992,460.717c-2.089,9.796-13.295,7.22-21.628,7.645c-26.406,1.346-52.99,0.659-79.427,0.199
	c-4.985-0.086-13.833,2.069-16.176-4.009c-0.853-2.212-0.647-4.677-0.342-7.028c0.864-6.668,1.01-13.813,0.53-20.533
	c-0.147-2.06-1.887-24.798-1.802-24.797c2.827,0.035,5.653,0.071,8.48,0.119c10.169,0.174,22.922,1.813,32.705-1.724
	c13.734-4.966,9.808-21.078,5.937-32.398c13.775-0.314,27.431,0.178,41.221,0.395c6.052,0.095,15.526-1.303,21.22,0.772
	c3.79,1.381,5.714,2.7,6.451,8.102c0.445,3.261-0.433,8.513-0.524,11.817c-0.414,14.876,2.135,29.105,2.88,43.864
	C216.775,448.258,218.037,455.823,216.992,460.717z"/>
<path d="M145.3,300.581c13.728,2.355,28.07,1.139,41.931,1.454c10.996,0.25,23.624,2.832,34.282-0.165
	c3.288-0.925,2.446-5.526-0.778-5.751c-12.482-0.874-25.042-1.399-37.555-1.46c-10.281-0.05-29.168-3.615-38.433,1.689
	C143.138,297.269,143.277,300.234,145.3,300.581z"/>
<path d="M145.3,316.663c13.728,2.355,28.07,1.139,41.931,1.454c10.996,0.25,23.624,2.832,34.282-0.165
	c3.288-0.924,2.446-5.525-0.778-5.751c-12.482-0.874-25.042-1.399-37.555-1.46c-10.281-0.051-29.168-3.615-38.433,1.689
	C143.138,313.351,143.277,316.316,145.3,316.663z"/>
<path d="M145.3,332.746c13.728,2.354,28.07,1.139,41.931,1.454c10.996,0.25,23.624,2.832,34.282-0.165
	c3.288-0.924,2.446-5.526-0.778-5.751c-12.482-0.874-25.042-1.399-37.555-1.46c-10.281-0.051-29.168-3.615-38.433,1.689
	C143.138,329.434,143.277,332.399,145.3,332.746z"/>
<path d="M145.3,348.479c13.728,2.354,28.07,1.139,41.931,1.454c10.996,0.25,23.624,2.832,34.282-0.165
	c3.288-0.925,2.446-5.526-0.778-5.751c-12.482-0.874-25.042-1.399-37.555-1.46c-10.281-0.051-29.168-3.615-38.433,1.689
	C143.138,345.167,143.277,348.132,145.3,348.479z"/>
<path d="M429.228,353.529c-2.339-1.359-4.687-2.516-7.037-3.544c2.289-26.424-8.152-56.846-31.179-70.227
	c-21.926-12.742-44.656-10.758-62.794,1.93c-5.376,2.899-10.323,6.717-14.967,12.008c-10.936,12.461-16.338,29.275-15.02,45.708
	c0.276,3.444,0.784,6.742,1.443,9.937c-3.811,1.624-7.493,3.665-10.999,6.118c-5.376,2.9-10.323,6.717-14.966,12.008
	c-10.937,12.461-16.338,29.275-15.021,45.708c2.545,31.76,21.65,53.126,52.217,60.579c17.611,4.294,37.596-0.269,51.917-11.481
	c7.311,5.193,15.967,9.073,25.842,11.481c28.306,6.901,62.755-9.065,69.939-38.778C465.476,406.55,455.605,368.858,429.228,353.529z
	 M315.572,302.982c5.246-8.125,12.187-13.722,19.828-18.497c3.937-1.993,8.02-3.643,12.271-4.707
	c16.421-4.112,35.321,2.406,47.624,13.459c13.607,12.223,20.679,34.001,19.002,53.9c-17.037-4.868-33.827-1.498-47.863,8.322
	c-2.265,1.222-4.449,2.619-6.572,4.207c-2.59-2.297-5.37-4.38-8.394-6.137c-14.987-8.71-30.348-10.531-44.362-6.765
	C304.32,331.763,306.92,316.379,315.572,302.982z M361.881,452.093c-5.032-4.634-9.202-10.291-12.076-16.937
	c-5.133-11.867-6.781-24.512-4.614-36.64c1.715,0.533,3.462,1.027,5.257,1.465c7.492,1.827,15.413,2.036,23.147,0.828
	C377.241,419.312,373.938,439.465,361.881,452.093z M347.031,391.059c1.57-4.936,3.805-9.737,6.755-14.306
	c1.558-2.413,3.28-4.58,5.111-6.592c5.603,6.116,9.872,13.943,12.601,22.487C363.331,393.789,354.946,393.224,347.031,391.059z
	 M339.492,388.462c-12.1-5.131-22.376-14.3-27.902-27.077c-1.133-2.619-2.081-5.278-2.872-7.959
	c15.35-3.594,32.745,1.956,44.875,11.754c-0.715,0.733-1.426,1.487-2.126,2.286C346.086,373.598,342.052,380.786,339.492,388.462z
	 M364.778,364.566c2.791-2.308,5.752-4.382,8.836-6.309c3.937-1.993,8.02-3.643,12.271-4.707c8.834-2.212,18.378-1.327,27.234,1.664
	c-2.468,11.446-8.173,21.659-17.598,28.202c-5.046,3.503-10.603,6.034-16.393,7.654
	C376.119,381.226,371.353,372.017,364.778,364.566z M355.977,457.187c-27.55,19.125-70.262,9.572-83.931-22.031
	c-8.333-19.266-7.521-40.59,3.982-58.403c5.246-8.125,12.187-13.722,19.827-18.497c1.777-0.9,3.589-1.717,5.428-2.454
	c5.636,18.563,18.248,32.184,36.276,39.878c-1.183,5.738-1.582,11.638-1.113,17.493c1.463,18.253,8.42,33.05,19.854,43.769
	C356.19,457.021,356.089,457.11,355.977,457.187z M433.736,457.187c-19.402,13.469-46.312,12.697-65.313,0.035
	c5.902-6.1,10.326-13.584,12.421-22.247c2.697-11.154,2.777-23.726,0.332-35.823c18.457-5.23,34.558-18.699,39.212-37.948
	c0.216-0.89,0.365-1.813,0.548-2.72c4.617,2.332,8.895,5.219,12.575,8.525C457.115,388.213,461.112,438.183,433.736,457.187z"/>
<path d="M318.155,217.504c10.32,1.612,21.16,1.769,31.59,2.32c20.126,1.064,39.976,0.434,60.012-2.077
	c13.717-1.72,18.451-8.258,20.372-22.14c2.714-19.624,1.902-39.901,1.881-59.629c-0.01-10.543-1.605-21.121-1.825-31.66
	c-0.104-4.933,0.925-9.151-2.791-12.98c-1.813-1.867-5.341-2.023-7.13,0c-6.827,7.72-13.517,14.639-21.633,21.11
	c-8.499,6.774-14.212,14.221-20.541,22.317c-13.257,12.876-27.015,25.202-40.428,37.913c-8.203,7.774-15.998,15.913-23.803,24.092
	c-3.231,3.386-8.04,7.664-7.169,12.916C307.597,215.158,313.473,216.772,318.155,217.504z M398.391,127.711
	c7.066-7.541,15.266-14.222,22.347-21.798c-0.031,3.433-0.29,6.906-0.191,8.591c0.487,8.349,1.141,16.935,0.955,25.293
	c-0.058,2.613-0.08,5.214-0.105,7.817c-1.65-1.227-8.201,0.133-10.478,0.247c-6.121,0.305-12.19-0.098-18.266-0.345
	c-4.411-0.18-9.011-0.336-13.549-0.054C385.675,141.013,392.107,134.416,398.391,127.711z M325.379,199.877
	c2.897-3.02,5.679-6.149,8.526-9.215c10.039-10.81,21.122-20.758,32.026-30.69c1.553-1.415,3.076-2.869,4.612-4.306
	c8.07,1.722,16.774,1.605,24.826,2.101c7.327,0.451,17.798,1.635,25.945,0.158c-0.046,8.507-0.112,17.003-0.551,25.571
	c-0.355,6.939,0.578,19.779-6.67,23.619c-5.501,2.915-18.441,2.574-24.009,2.724c-15.423,0.415-30.391,0.693-45.848,0.1
	c-4.173-0.16-20.893,0.566-23.981-2.524C317.944,205.104,322.852,202.513,325.379,199.877z"/>
<path d="M507.812,168.856c-0.516-6.437-0.306-12.41-4.901-17.303c-9.009-9.592-24.813-6.842-37.595-5.212
	c0.364-8.743,0.697-17.459,0.044-26.337c-1.121-15.263,0.947-30.237,2.525-45.412c1.464-14.068,2.463-28.216,3.21-42.339
	c0.432-8.174,1.603-24.42-4.309-30.692c-1.517-1.61-4.56-2.123-6.447-0.832c-6.341,4.338-11.308,10.842-16.081,17.344
	c-40.623,39.419-80.935,79.206-121.811,118.381c-2.637,2.528-5.277,5.047-7.917,7.569c-0.019-0.007-0.031-0.018-0.05-0.025
	c-7.956-2.617-17.823,0.317-26,0.294c-14.51-0.043-28.873,1.212-43.381,1.252c-14.388,0.039-29.009-0.656-43.362,0.255
	c-9.547,0.606-19.825,0.242-29.322,2.049c-0.782-2.995-1.565-5.991-2.275-9.006c-2.912-12.346-4.189-26.676-8.988-38.563
	c0.976-0.332,1.913-0.717,2.738-1.237c7.255-4.567,7.717-15.493,7.04-23.12c-0.683-7.687-0.809-18.738-9.125-22.127
	c-2.526-1.029-5.293-1.618-8.166-1.952c-0.045-6.774,0.206-13.575,0.083-20.38c-0.068-3.779-0.674-7.466-0.64-11.257
	c0.033-3.728,1.209-7.761,0.402-11.46c-2.026-9.282-11.907-7.101-18.987-6.098c-3.788,0.537-8.075,0.646-10.245,4.437
	c-2.031,3.548-1.398,11.251-1.523,15.177c-0.192,6.069,0.303,12.009,1.067,18.027c0.473,3.722,0.942,8.338,2.243,12.305
	c-3.589,0.193-7.023,0.669-9.571,2.911c-1.098,0.254-2.098,1.1-2.285,2.568c-0.025,0.199-0.046,0.397-0.072,0.596
	c-0.101,0.206-0.209,0.398-0.304,0.619c-2.278,5.352-2.532,12.269-1.926,18.957c-0.149,1.443-0.314,2.885-0.456,4.328
	c-0.367,3.702-0.802,7.998,0.463,11.6c1.412,4.019,4.21,6.072,7.569,7.157c-2.203,15.534-4.179,31.247-5.711,46.999
	c-4.846-0.07-11.153-1.599-15.154-1.545c-8.5,0.115-17.083,0.066-25.57,0.333c-15.939,0.502-31.824-0.764-47.813-0.651
	c-9.562,0.068-11.349,3.826-12.566,13.265c-2.08,16.12-3.784,32.795-4.036,49.048c-0.465,29.934-2.043,59.834-3.061,89.775
	c-0.516,15.166-0.028,30.399-0.109,45.575c-0.08,15.017-1.793,29.934-1.862,44.932c-0.08,17.322,1.522,34.524,1.377,51.841
	c-0.138,16.362-1.159,32.643-1.338,48.983c-0.101,9.225,1.322,15.787,11.186,18.264c10.973,2.756,24.307,0.671,35.496,0.792
	c30.919,0.335,61.66,3.222,92.662,3.049c35.124-0.196,70.307-2.04,105.43-3.01c20.258-0.56,40.509-1.507,60.773-1.73
	c19.582-0.216,39.079,2.753,58.613,3.051c28.613,0.436,57.237,0.675,85.586-2.458c1.324-0.091,2.65-0.18,3.965-0.28
	c11.807-0.897,26.83-1.575,34.354-12.288c7.025-10.003,5.389-25.825,6.155-37.248c1.077-16.084,2.723-32.201,2.999-48.355
	c0.554-32.46,5.641-64.98,7.026-97.487c0.782-18.364,0.157-37.154,0.104-55.585c-0.052-18.506,0.488-36.999,0.435-55.493
	C508.365,190.323,508.676,179.613,507.812,168.856z M332.997,141.416c41.509-40.604,85.371-79.922,123.396-123.953
	c0.865-0.846,1.731-1.685,2.608-2.509c0.154,2.398,0.593,5.001,0.741,7.077c0.285,3.999,0.341,7.677,0.145,11.711
	c-0.574,11.833-1.449,23.667-2.659,35.453c-1.104,10.762-2.286,21.459-2.913,32.252c-0.735,12.634,1.149,25.07,0.573,37.698
	c-1.096,24.033-0.969,48.026-1.291,72.123c-0.102,7.662,0.006,15.955-2.237,23.334c-2.511,8.262-6.6,10.246-14.93,11.142
	c-10.8,1.162-21.614,1.007-32.421,0.133c-25.651-2.074-51.622-1.134-77.316-2.628c-27.733-1.612-56.31,2.614-83.84-1.456
	c-6.857-1.014-8.304-1.882-3.713-7.967c3.31-4.387,7.125-8.222,11.207-11.865c9.576-8.546,18.391-17.951,27.401-27.1
	C295.749,176.583,314.672,159.34,332.997,141.416z M170.135,175.43c2.796,12.041,5.01,24.2,7.25,36.355
	c1.233,6.691,2.506,13.372,3.489,20.105c0.92,6.305,5.042,13.903-3.873,14.555c-5.173,0.378-3.217-1.283-4.458-7.081
	c-1.327-6.196-2.183-12.476-3.635-18.642c-2.909-12.347-4.502-24.863-7.387-37.221c-3.274-14.02-6.755-28.049-9.622-42.158
	c-2.639-12.983-3.496-26.206-5.678-39.221c0.021-0.002,0.043-0.003,0.064-0.005c1.561-0.175,3.348-0.258,5.201-0.363
	c5.169,10.645,5.722,24.369,8.664,35.783C163.405,150.171,167.184,162.722,170.135,175.43z M133.423,12.148
	c-0.289,0.223,6.527-0.752,7.56-0.562c4.239,0.777,2.183-0.396,2.817,3.562c0.423,2.641-0.419,5.701-0.318,8.435
	c0.345,9.333,0.243,18.653,0.389,27.98c-3.028,0.108-6.025,0.322-8.895,0.534c0.674-5.535-1.036-11.41-1.557-16.987
	C132.985,30.451,131.106,13.937,133.423,12.148z M120.474,71.168c0.306-3.61-0.254-7.972,4.426-9.695
	c0.385-0.142,3.803,0.397,4.629,0.404c6.317,0.055,12.299-0.735,18.65-0.324c2.577,0.166,6.679-0.507,8.994,0.959
	c3.541,2.243,3.268,7.253,3.638,10.773c0.937,8.912,2.094,16.613-8.85,18.34c-7.293,1.151-14.703,1.4-22.076,1.224
	c-7.658-0.182-9.482-2.475-9.69-9.686c-0.042-1.458-0.06-2.917-0.082-4.377C120.196,76.246,120.259,73.699,120.474,71.168z
	 M135.463,130.469c0.275,13.605-0.168,27.136,0.362,40.73c0.71,18.164-0.589,36.309-1.356,54.447
	c-0.287,6.766,3.427,37.047-10.358,23.135c-4.981-5.028-3.698-13.209-3.802-20.109c-0.218-14.51,0.324-29.267,0.896-43.772
	c1.086-27.521,4.542-54.871,5.754-82.388c0.627,0.034,1.254,0.062,1.877,0.084c2.432,0.085,4.903,0.111,7.374,0.083
	C135.254,111.819,135.282,121.486,135.463,130.469z M497.09,237.317c-0.131,38.701-0.264,77.09-2.779,115.699
	c-2.23,34.22-5.948,68.295-7.32,102.593c-0.331,8.275-0.389,17.37-2.071,25.532c-2.098,10.183-7.999,12.58-16.353,14.084
	c-28.213,3.065-56.722,5.388-85.25,4.224c-31.511-1.286-62.893-2.594-94.442-2.405c-63.995,0.383-128.135,6.72-192.126,3.658
	c-12.804-0.612-25.614-2.123-38.43-2.437c-5.671-0.139-11.246-0.139-16.896-0.434c-7.33-0.382-14.727,1.4-22.011,0.289
	c-6.104-0.931-5.06-1.457-5.315-6.949c-0.155-3.363-0.081-6.95,0.042-10.315c0.246-6.776,1.102-13.5,1.192-20.284
	c0.22-16.703-0.097-33.189-1.007-49.847c-1.513-27.687,1.535-55.442,1.573-83.154c0.04-29.861,2.59-59.735,2.418-89.52
	c-0.087-15.077,0.455-30.254,1.812-45.272c0.696-7.705,1.118-15.344,2.068-23.034c0.382-3.094-0.501-10.771,1.369-13.095
	c-0.64,1.161,5.339,0.392,7.282,0.389c14.908-0.02,29.757,0.634,44.631,0.502c9.314-0.083,18.547-0.483,27.855-0.841
	c3.093-0.119,6.433,0.135,9.659-0.045c-1.262,14.595-2.12,29.202-2.327,43.713c-0.225,15.763-2.268,32.629,0.673,48.24
	c1.195,6.346,4.739,9.947,9.449,11.823c-0.752,2.264-0.595,4.828-0.646,7.218c-0.078,3.612-0.074,7.241-0.018,10.853
	c0.081,5.217,8.279,5.219,8.107,0c0.062-3.86-0.097-7.723-0.017-11.583c0.037-1.808,0.208-3.393,0.003-4.876
	c2.095,0.164,4.273,0.158,6.482,0.016c8.854-0.572,8.555-6.769,9.087-14.606c1.111-16.368,2.41-33.066,1.906-49.479
	c-0.484-15.744-2.109-31.528-1.373-47.275c0.063-1.338,0.074-2.687,0.099-4.032c0.62,3.436,1.284,6.868,2.072,10.288
	c3.829,16.624,8.116,33.13,10.512,50.024c0.956,6.737,2.843,13.208,4.095,19.882c1.362,7.268,1.235,16.303,4.125,23.126
	c2.499,5.9,7.376,7.253,12.747,6.507c0.196,1.337,0.45,2.679,0.633,4.009c0.633,4.596,1.927,9.025,2.285,13.661
	c0.321,5.874,8.818,5.886,9.137,0c0.254-4.681-1.371-9.152-2.224-13.7c-0.409-2.18-0.609-4.474-1.155-6.614
	c9.579-4.563,5.663-11.984,4.299-21.55c-2.271-15.93-5.409-31.789-8.906-47.494c-2.158-9.691-4.846-19.235-7.454-28.8
	c8.896,1.216,18.384,0.091,27.153-0.416c15.128-0.876,30.529-0.048,45.688-0.012c13.731,0.033,27.314-1.24,41.056-1.207
	c3.656,0.008,9.454,0.467,14.948,0.273c-15.484,14.797-30.93,29.614-46.107,44.799c-8.467,8.472-47.095,36.402-29.249,49.589
	c7.573,5.596,22.69,4.757,31.592,4.896c16.842,0.262,33.69-0.051,50.533,0c28.666,0.087,57.314,1.711,85.949,2.742
	c11.852,0.427,23.843,2.243,35.637,0.822c9.825-1.184,20.423-1.087,26.577-10.128c6.563-9.641,6.386-24.989,6.539-36.094
	c0.22-16.012-0.097-31.966-0.074-47.956c0.003-2.563,0.065-5.11,0.142-7.652c6.066,0.057,12.051-0.636,18.168-0.357
	c6.952,0.318,12.536,1.185,13.98,8.886c0.785,4.184,0.758,9.004,0.879,13.24C498.564,197.371,497.158,217.373,497.09,237.317z"/>
<g>
</g>
<g>
</g>
<g>
</g>
<g>
</g>
<g>
</g>
<g>
</g>
<g>
</g>
<g>
</g>
<g>
</g>
<g>
</g>
<g>
</g>
<g>
</g>
<g>
</g>
<g>
</g>
<g>
</g>
</svg>
