<svg enable-background="new 0 0 511.998 511.998" viewBox="0 0 511.998 511.998" xmlns="http://www.w3.org/2000/svg"><path d="m224.862 447.928c-.865-20.333-2.644-40.079-2.441-60.469.149-14.983-5.979-15.999-19.518-16.597-20.124-.889-40.359-1.303-60.483-.668-.033.001-.059.01-.091.012-7.398-19.844-15.961-39.178-24.943-58.347-3.346-7.142-11.379-36.086-23.381-30.743-5.786 2.576-9.372 13.132-12.062 18.35-3.244 6.29-5.775 12.854-8.363 19.423-5.24 9.409-10.528 18.799-15.327 28.343-5.39 10.717-10.471 21.628-15.13 32.687-2.24 5.32-6.478 12.858-4.763 18.938 3.557 12.611 25.339 12.28 35.275 12.75 6.07.287 12.145.412 18.221.5-1.245 16.519 1.113 33.596.559 50.134-.413 12.35 6.11 13.323 17.42 13.893 18.425.928 37.035.913 55.495 1.066 15.848.133 35.486 2.078 50.825-2.27 12.379-3.509 9.152-16.541 8.707-27.002zm-159.336-44.433c-8.902-.89-19.697-1.533-18.361-13.125.82-7.117 6.628-16.164 9.587-22.892 10.58-24.058 24.1-47.056 34.617-71.145 1.575-3.606 6.305-5.739 8.92-2.92 3.103 3.345 3.863 9.855 5.714 13.98 3.423 7.626 7.223 15.077 10.741 22.659 6.775 14.595 12.566 29.721 18.322 44.745 2.716 7.09 8.519 18.674 3.083 25.227-4.695 5.659-14.238 4.999-20.797 4.763-17.252-.62-34.627.427-51.826-1.292zm151.466 57.222c-2.089 9.796-13.295 7.22-21.628 7.645-26.406 1.346-52.99.659-79.427.199-4.985-.086-13.833 2.069-16.176-4.009-.853-2.212-.647-4.677-.342-7.028.864-6.668 1.01-13.813.53-20.533-.147-2.06-1.887-24.798-1.802-24.797 2.827.035 5.653.071 8.48.119 10.169.174 22.922 1.813 32.705-1.724 13.734-4.966 9.808-21.078 5.937-32.398 13.775-.314 27.431.178 41.221.395 6.052.095 15.526-1.303 21.22.772 3.79 1.381 5.714 2.7 6.451 8.102.445 3.261-.433 8.513-.524 11.817-.414 14.876 2.135 29.105 2.88 43.864.258 5.117 1.52 12.682.475 17.576z"/><path d="m220.735 296.119c-12.482-.874-25.042-1.399-37.555-1.46-10.281-.05-29.168-3.615-38.433 1.689-1.609.921-1.47 3.886.553 4.233 13.728 2.355 28.07 1.139 41.931 1.454 10.996.25 23.624 2.832 34.282-.165 3.288-.925 2.446-5.526-.778-5.751z"/><path d="m220.735 312.201c-12.482-.874-25.042-1.399-37.555-1.46-10.281-.051-29.168-3.615-38.433 1.689-1.609.921-1.47 3.886.553 4.233 13.728 2.355 28.07 1.139 41.931 1.454 10.996.25 23.624 2.832 34.282-.165 3.288-.924 2.446-5.525-.778-5.751z"/><path d="m220.735 328.284c-12.482-.874-25.042-1.399-37.555-1.46-10.281-.051-29.168-3.615-38.433 1.689-1.609.921-1.47 3.886.553 4.233 13.728 2.354 28.07 1.139 41.931 1.454 10.996.25 23.624 2.832 34.282-.165 3.288-.924 2.446-5.526-.778-5.751z"/><path d="m220.735 344.017c-12.482-.874-25.042-1.399-37.555-1.46-10.281-.051-29.168-3.615-38.433 1.689-1.609.921-1.47 3.886.553 4.233 13.728 2.354 28.07 1.139 41.931 1.454 10.996.25 23.624 2.832 34.282-.165 3.288-.925 2.446-5.526-.778-5.751z"/><path d="m429.228 353.529c-2.339-1.359-4.687-2.516-7.037-3.544 2.289-26.424-8.152-56.846-31.179-70.227-21.926-12.742-44.656-10.758-62.794 1.93-5.376 2.899-10.323 6.717-14.967 12.008-10.936 12.461-16.338 29.275-15.02 45.708.276 3.444.784 6.742 1.443 9.937-3.811 1.624-7.493 3.665-10.999 6.118-5.376 2.9-10.323 6.717-14.966 12.008-10.937 12.461-16.338 29.275-15.021 45.708 2.545 31.76 21.65 53.126 52.217 60.579 17.611 4.294 37.596-.269 51.917-11.481 7.311 5.193 15.967 9.073 25.842 11.481 28.306 6.901 62.755-9.065 69.939-38.778 6.873-28.426-2.998-66.118-29.375-81.447zm-113.656-50.547c5.246-8.125 12.187-13.722 19.828-18.497 3.937-1.993 8.02-3.643 12.271-4.707 16.421-4.112 35.321 2.406 47.624 13.459 13.607 12.223 20.679 34.001 19.002 53.9-17.037-4.868-33.827-1.498-47.863 8.322-2.265 1.222-4.449 2.619-6.572 4.207-2.59-2.297-5.37-4.38-8.394-6.137-14.987-8.71-30.348-10.531-44.362-6.765-2.786-15.001-.186-30.385 8.466-43.782zm38.214 73.771c1.558-2.413 3.28-4.58 5.111-6.592 5.603 6.116 9.872 13.943 12.601 22.487-8.167 1.141-16.552.576-24.467-1.589 1.57-4.936 3.805-9.737 6.755-14.306zm-14.294 11.709c-12.1-5.131-22.376-14.3-27.902-27.077-1.133-2.619-2.081-5.278-2.872-7.959 15.35-3.594 32.745 1.956 44.875 11.754-.715.733-1.426 1.487-2.126 2.286-5.381 6.132-9.415 13.32-11.975 20.996zm25.286-23.896c2.791-2.308 5.752-4.382 8.836-6.309 3.937-1.993 8.02-3.643 12.271-4.707 8.834-2.212 18.378-1.327 27.234 1.664-2.468 11.446-8.173 21.659-17.598 28.202-5.046 3.503-10.603 6.034-16.393 7.654-3.009-9.844-7.775-19.053-14.35-26.504zm-8.801 92.621c-27.55 19.125-70.262 9.572-83.931-22.031-8.333-19.266-7.521-40.59 3.982-58.403 5.246-8.125 12.187-13.722 19.827-18.497 1.777-.9 3.589-1.717 5.428-2.454 5.636 18.563 18.248 32.184 36.276 39.878-1.183 5.738-1.582 11.638-1.113 17.493 1.463 18.253 8.42 33.05 19.854 43.769-.11.079-.211.168-.323.245zm5.904-5.094c-5.032-4.634-9.202-10.291-12.076-16.937-5.133-11.867-6.781-24.512-4.614-36.64 1.715.533 3.462 1.027 5.257 1.465 7.492 1.827 15.413 2.036 23.147.828 3.646 18.503.343 38.656-11.714 51.284zm71.855 5.094c-19.402 13.469-46.312 12.697-65.313.035 5.902-6.1 10.326-13.584 12.421-22.247 2.697-11.154 2.777-23.726.332-35.823 18.457-5.23 34.558-18.699 39.212-37.948.216-.89.365-1.813.548-2.72 4.617 2.332 8.895 5.219 12.575 8.525 23.604 21.204 27.601 71.174.225 90.178z"/><path d="m432.01 135.978c-.01-10.543-1.605-21.121-1.825-31.66-.104-4.933.925-9.151-2.791-12.98-1.813-1.867-5.341-2.023-7.13 0-6.827 7.72-13.517 14.639-21.633 21.11-8.499 6.774-14.212 14.221-20.541 22.317-13.257 12.876-27.015 25.202-40.428 37.913-8.203 7.774-15.998 15.913-23.803 24.092-3.231 3.386-8.04 7.664-7.169 12.916.907 5.472 6.783 7.086 11.465 7.818 10.32 1.612 21.16 1.769 31.59 2.32 20.126 1.064 39.976.434 60.012-2.077 13.717-1.72 18.451-8.258 20.372-22.14 2.714-19.624 1.902-39.901 1.881-59.629zm-11.247 47.518c-.355 6.939.578 19.779-6.67 23.619-5.501 2.915-18.441 2.574-24.009 2.724-15.423.415-30.391.693-45.848.1-4.173-.16-20.893.566-23.981-2.524-2.311-2.311 2.597-4.902 5.124-7.538 2.897-3.02 5.679-6.149 8.526-9.215 10.039-10.81 21.122-20.758 32.026-30.69 1.553-1.415 3.076-2.869 4.612-4.306 8.07 1.722 16.774 1.605 24.826 2.101 7.327.451 17.798 1.635 25.945.158-.046 8.507-.112 17.003-.551 25.571zm.739-43.699c-.058 2.613-.08 5.214-.105 7.817-1.65-1.227-8.201.133-10.478.247-6.121.305-12.19-.098-18.266-.345-4.411-.18-9.011-.336-13.549-.054 6.571-6.449 13.003-13.046 19.287-19.751 7.066-7.541 15.266-14.222 22.347-21.798-.031 3.433-.29 6.906-.191 8.591.487 8.349 1.141 16.935.955 25.293z"/><path d="m507.812 168.856c-.516-6.437-.306-12.41-4.901-17.303-9.009-9.592-24.813-6.842-37.595-5.212.364-8.743.697-17.459.044-26.337-1.121-15.263.947-30.237 2.525-45.412 1.464-14.068 2.463-28.216 3.21-42.339.432-8.174 1.603-24.42-4.309-30.692-1.517-1.61-4.56-2.123-6.447-.832-6.341 4.338-11.308 10.842-16.081 17.344-40.623 39.419-80.935 79.206-121.811 118.381-2.637 2.528-5.277 5.047-7.917 7.569-.019-.007-.031-.018-.05-.025-7.956-2.617-17.823.317-26 .294-14.51-.043-28.873 1.212-43.381 1.252-14.388.039-29.009-.656-43.362.255-9.547.606-19.825.242-29.322 2.049-.782-2.995-1.565-5.991-2.275-9.006-2.912-12.346-4.189-26.676-8.988-38.563.976-.332 1.913-.717 2.738-1.237 7.255-4.567 7.717-15.493 7.04-23.12-.683-7.687-.809-18.738-9.125-22.127-2.526-1.029-5.293-1.618-8.166-1.952-.045-6.774.206-13.575.083-20.38-.068-3.779-.674-7.466-.64-11.257.033-3.728 1.209-7.761.402-11.46-2.026-9.282-11.907-7.101-18.987-6.098-3.788.537-8.075.646-10.245 4.437-2.031 3.548-1.398 11.251-1.523 15.177-.192 6.069.303 12.009 1.067 18.027.473 3.722.942 8.338 2.243 12.305-3.589.193-7.023.669-9.571 2.911-1.098.254-2.098 1.1-2.285 2.568-.025.199-.046.397-.072.596-.101.206-.209.398-.304.619-2.278 5.352-2.532 12.269-1.926 18.957-.149 1.443-.314 2.885-.456 4.328-.367 3.702-.802 7.998.463 11.6 1.412 4.019 4.21 6.072 7.569 7.157-2.203 15.534-4.179 31.247-5.711 46.999-4.846-.07-11.153-1.599-15.154-1.545-8.5.115-17.083.066-25.57.333-15.939.502-31.824-.764-47.813-.651-9.562.068-11.349 3.826-12.566 13.265-2.08 16.12-3.784 32.795-4.036 49.048-.465 29.934-2.043 59.834-3.061 89.775-.516 15.166-.028 30.399-.109 45.575-.08 15.017-1.793 29.934-1.862 44.932-.08 17.322 1.522 34.524 1.377 51.841-.138 16.362-1.159 32.643-1.338 48.983-.101 9.225 1.322 15.787 11.186 18.264 10.973 2.756 24.307.671 35.496.792 30.919.335 61.66 3.222 92.662 3.049 35.124-.196 70.307-2.04 105.43-3.01 20.258-.56 40.509-1.507 60.773-1.73 19.582-.216 39.079 2.753 58.613 3.051 28.613.436 57.237.675 85.586-2.458 1.324-.091 2.65-.18 3.965-.28 11.807-.897 26.83-1.575 34.354-12.288 7.025-10.003 5.389-25.825 6.155-37.248 1.077-16.084 2.723-32.201 2.999-48.355.554-32.46 5.641-64.98 7.026-97.487.782-18.364.157-37.154.104-55.585-.052-18.506.488-36.999.435-55.493-.033-10.784.278-21.494-.586-32.251zm-174.815-27.44c41.509-40.604 85.371-79.922 123.396-123.953.865-.846 1.731-1.685 2.608-2.509.154 2.398.593 5.001.741 7.077.285 3.999.341 7.677.145 11.711-.574 11.833-1.449 23.667-2.659 35.453-1.104 10.762-2.286 21.459-2.913 32.252-.735 12.634 1.149 25.07.573 37.698-1.096 24.033-.969 48.026-1.291 72.123-.102 7.662.006 15.955-2.237 23.334-2.511 8.262-6.6 10.246-14.93 11.142-10.8 1.162-21.614 1.007-32.421.133-25.651-2.074-51.622-1.134-77.316-2.628-27.733-1.612-56.31 2.614-83.84-1.456-6.857-1.014-8.304-1.882-3.713-7.967 3.31-4.387 7.125-8.222 11.207-11.865 9.576-8.546 18.391-17.951 27.401-27.1 18.001-18.278 36.924-35.521 55.249-53.445zm-162.862 34.014c2.796 12.041 5.01 24.2 7.25 36.355 1.233 6.691 2.506 13.372 3.489 20.105.92 6.305 5.042 13.903-3.873 14.555-5.173.378-3.217-1.283-4.458-7.081-1.327-6.196-2.183-12.476-3.635-18.642-2.909-12.347-4.502-24.863-7.387-37.221-3.274-14.02-6.755-28.049-9.622-42.158-2.639-12.983-3.496-26.206-5.678-39.221.021-.002.043-.003.064-.005 1.561-.175 3.348-.258 5.201-.363 5.169 10.645 5.722 24.369 8.664 35.783 3.255 12.634 7.034 25.185 9.985 37.893zm-36.712-163.282c-.289.223 6.527-.752 7.56-.562 4.239.777 2.183-.396 2.817 3.562.423 2.641-.419 5.701-.318 8.435.345 9.333.243 18.653.389 27.98-3.028.108-6.025.322-8.895.534.674-5.535-1.036-11.41-1.557-16.987-.434-4.659-2.313-21.173.004-22.962zm-12.949 59.02c.306-3.61-.254-7.972 4.426-9.695.385-.142 3.803.397 4.629.404 6.317.055 12.299-.735 18.65-.324 2.577.166 6.679-.507 8.994.959 3.541 2.243 3.268 7.253 3.638 10.773.937 8.912 2.094 16.613-8.85 18.34-7.293 1.151-14.703 1.4-22.076 1.224-7.658-.182-9.482-2.475-9.69-9.686-.042-1.458-.06-2.917-.082-4.377.083-2.54.146-5.087.361-7.618zm14.989 59.301c.275 13.605-.168 27.136.362 40.73.71 18.164-.589 36.309-1.356 54.447-.287 6.766 3.427 37.047-10.358 23.135-4.981-5.028-3.698-13.209-3.802-20.109-.218-14.51.324-29.267.896-43.772 1.086-27.521 4.542-54.871 5.754-82.388.627.034 1.254.062 1.877.084 2.432.085 4.903.111 7.374.083-.956 9.14-.928 18.807-.747 27.79zm361.627 106.848c-.131 38.701-.264 77.09-2.779 115.699-2.23 34.22-5.948 68.295-7.32 102.593-.331 8.275-.389 17.37-2.071 25.532-2.098 10.183-7.999 12.58-16.353 14.084-28.213 3.065-56.722 5.388-85.25 4.224-31.511-1.286-62.893-2.594-94.442-2.405-63.995.383-128.135 6.72-192.126 3.658-12.804-.612-25.614-2.123-38.43-2.437-5.671-.139-11.246-.139-16.896-.434-7.33-.382-14.727 1.4-22.011.289-6.104-.931-5.06-1.457-5.315-6.949-.155-3.363-.081-6.95.042-10.315.246-6.776 1.102-13.5 1.192-20.284.22-16.703-.097-33.189-1.007-49.847-1.513-27.687 1.535-55.442 1.573-83.154.04-29.861 2.59-59.735 2.418-89.52-.087-15.077.455-30.254 1.812-45.272.696-7.705 1.118-15.344 2.068-23.034.382-3.094-.501-10.771 1.369-13.095-.64 1.161 5.339.392 7.282.389 14.908-.02 29.757.634 44.631.502 9.314-.083 18.547-.483 27.855-.841 3.093-.119 6.433.135 9.659-.045-1.262 14.595-2.12 29.202-2.327 43.713-.225 15.763-2.268 32.629.673 48.24 1.195 6.346 4.739 9.947 9.449 11.823-.752 2.264-.595 4.828-.646 7.218-.078 3.612-.074 7.241-.018 10.853.081 5.217 8.279 5.219 8.107 0 .062-3.86-.097-7.723-.017-11.583.037-1.808.208-3.393.003-4.876 2.095.164 4.273.158 6.482.016 8.854-.572 8.555-6.769 9.087-14.606 1.111-16.368 2.41-33.066 1.906-49.479-.484-15.744-2.109-31.528-1.373-47.275.063-1.338.074-2.687.099-4.032.62 3.436 1.284 6.868 2.072 10.288 3.829 16.624 8.116 33.13 10.512 50.024.956 6.737 2.843 13.208 4.095 19.882 1.362 7.268 1.235 16.303 4.125 23.126 2.499 5.9 7.376 7.253 12.747 6.507.196 1.337.45 2.679.633 4.009.633 4.596 1.927 9.025 2.285 13.661.321 5.874 8.818 5.886 9.137 0 .254-4.681-1.371-9.152-2.224-13.7-.409-2.18-.609-4.474-1.155-6.614 9.579-4.563 5.663-11.984 4.299-21.55-2.271-15.93-5.409-31.789-8.906-47.494-2.158-9.691-4.846-19.235-7.454-28.8 8.896 1.216 18.384.091 27.153-.416 15.128-.876 30.529-.048 45.688-.012 13.731.033 27.314-1.24 41.056-1.207 3.656.008 9.454.467 14.948.273-15.484 14.797-30.93 29.614-46.107 44.799-8.467 8.472-47.095 36.402-29.249 49.589 7.573 5.596 22.69 4.757 31.592 4.896 16.842.262 33.69-.051 50.533 0 28.666.087 57.314 1.711 85.949 2.742 11.852.427 23.843 2.243 35.637.822 9.825-1.184 20.423-1.087 26.577-10.128 6.563-9.641 6.386-24.989 6.539-36.094.22-16.012-.097-31.966-.074-47.956.003-2.563.065-5.11.142-7.652 6.066.057 12.051-.636 18.168-.357 6.952.318 12.536 1.185 13.98 8.886.785 4.184.758 9.004.879 13.24.571 19.94-.835 39.942-.903 59.886z"/></svg>