<?xml version="1.0" encoding="utf-8"?>
<!-- Generator: Adobe Illustrator 21.1.0, SVG Export Plug-In . SVG Version: 6.00 Build 0)  -->
<svg version="1.1" id="圖層_1" xmlns="http://www.w3.org/2000/svg" xmlns:xlink="http://www.w3.org/1999/xlink" x="0px" y="0px"
	 viewBox="0 0 512 512" style="enable-background:new 0 0 512 512;" xml:space="preserve">
<style type="text/css">
	.st0{fill:none;}
	.st1{fill:#9BC9FF;}
	.st2{fill:#FFFFFF;}
</style>
<g id="Picture_optimize">
	<path class="st0" d="M488,24H72v245.3L88,280l16-10.7V56h352v224H147.2c-3.7,9.1-9.4,17.3-16.7,23.8c-6.7,6-10.6,14.6-10.5,23.7
		V376h32v-8h26.8c0.5-1.6,1.1-3.2,1.9-4.6l-19-19l22.6-22.6l19,19c1.5-0.8,3-1.4,4.6-1.9V312h32v26.8c1.6,0.5,3.2,1.1,4.6,1.9l19-19
		l22.6,22.6l-19,19c0.8,1.5,1.4,3,1.9,4.6H296v8h192V24z"/>
	<path class="st0" d="M311.1,240.5L344,280h112l-88-112L311.1,240.5z"/>
	<circle class="st0" cx="312" cy="112" r="24"/>
	<path class="st0" d="M311.1,240.5L224,136l-77.9,93.4c7.4,16,7.8,34.3,1.1,50.6H344L311.1,240.5L311.1,240.5z"/>
	<path class="st1" d="M311,240.5l33,39.5L311,240.5L311,240.5z"/>
	<g>
		<path class="st2" d="M88,496c-22.1,0-40-17.9-40-40V327.4c0-6.7-2.8-13.2-7.8-17.7c-29.7-26.4-32.4-71.9-6-101.6
			c7.4-8.3,16.5-14.7,26.8-18.9c4.1-1.7,8.8,0.3,10.4,4.4c0.4,1,0.6,2,0.6,3v63.1l16,10.7l16-10.7v-63.1c0-4.4,3.6-8,8-8
			c1,0,2,0.2,3,0.6c36.9,14.9,54.6,56.9,39.7,93.8c-4.2,10.3-10.6,19.4-18.9,26.8c-5,4.5-7.8,10.9-7.8,17.7V456
			C128,478.1,110.1,496,88,496L88,496z M56,210c-25.4,17.7-31.6,52.6-14,78c2.5,3.6,5.4,6.9,8.7,9.8c8.4,7.5,13.3,18.3,13.2,29.6
			V456c0,13.3,10.7,24,24,24s24-10.7,24-24V327.4c0-11.3,4.8-22.1,13.2-29.6c23.1-20.5,25.2-55.9,4.7-79.1c-2.9-3.3-6.3-6.3-9.9-8.8
			v54c0,2.7-1.3,5.2-3.6,6.7l-24,16c-2.7,1.8-6.2,1.8-8.9,0l-24-16c-2.2-1.5-3.6-4-3.6-6.7L56,210z"/>
		<path class="st2" d="M88,464c-4.4,0-8-3.6-8-8V328c0-4.4,3.6-8,8-8s8,3.6,8,8v128C96,460.4,92.4,464,88,464z"/>
		<path class="st2" d="M488,16H72c-4.4,0-8,3.6-8,8v144c0,4.4,3.6,8,8,8s8-3.6,8-8V32h400v336H328c-4.4,0-8,3.6-8,8s3.6,8,8,8h160
			c4.4,0,8-3.6,8-8V24C496,19.6,492.4,16,488,16z"/>
		<path class="st2" d="M448,256.9l-73.7-93.8c-2.7-3.5-7.8-4.1-11.2-1.3c-0.5,0.4-0.9,0.8-1.3,1.3l-50.8,64.7l-80.7-96.9
			c-2.8-3.4-7.9-3.9-11.3-1c-0.4,0.3-0.7,0.7-1,1l-60,72c-3,3.3-2.7,8.3,0.6,11.3c3.3,3,8.3,2.7,11.3-0.6c0.1-0.1,0.3-0.3,0.4-0.5
			l53.9-64.6L326.9,272H176c-4.4,0-8,3.6-8,8s3.6,8,8,8h280c4.4,0,8-3.6,8-8V56c0-4.4-3.6-8-8-8H104c-4.4,0-8,3.6-8,8v112
			c0,4.4,3.6,8,8,8s8-3.6,8-8V64h336V256.9z M321.3,240.3L368,181l71.5,91h-91.8L321.3,240.3z"/>
		<path class="st2" d="M344,112c0-17.7-14.3-32-32-32s-32,14.3-32,32s14.3,32,32,32S344,129.7,344,112z M296,112c0-8.8,7.2-16,16-16
			s16,7.2,16,16s-7.2,16-16,16S296,120.8,296,112z"/>
		<path class="st2" d="M296,360h-14l9.9-9.9c3.1-3.1,3.1-8.2,0-11.3l-22.6-22.6c-3.1-3.1-8.2-3.1-11.3,0L248,326v-14
			c0-4.4-3.6-8-8-8h-32c-4.4,0-8,3.6-8,8v14l-9.9-9.9c-3.1-3.1-8.2-3.1-11.3,0l-22.6,22.6c-3.1,3.1-3.1,8.2,0,11.3l9.9,9.9h-14
			c-4.4,0-8,3.6-8,8v32c0,4.4,3.6,8,8,8h14l-9.9,9.9c-3.1,3.1-3.1,8.2,0,11.3l22.6,22.6c3.1,3.1,8.2,3.1,11.3,0l9.9-9.9v14
			c0,4.4,3.6,8,8,8h32c4.4,0,8-3.6,8-8v-14l9.9,9.9c3.1,3.1,8.2,3.1,11.3,0l22.6-22.6c3.1-3.1,3.1-8.2,0-11.3L282,408h14
			c4.4,0,8-3.6,8-8v-32C304,363.6,300.4,360,296,360L296,360z M288,392h-18.8c-3.5,0-6.6,2.3-7.7,5.7c-0.3,1.1-0.8,2.2-1.4,3.2
			c-1.6,3.1-1,6.9,1.4,9.4l13.3,13.3l-11.3,11.3l-13.3-13.3c-2.5-2.5-6.3-3.1-9.4-1.4c-1,0.5-2.1,1-3.2,1.3c-3.4,1-5.7,4.1-5.7,7.7
			V448h-16v-18.8c0-3.5-2.3-6.6-5.7-7.7c-1.1-0.3-2.2-0.8-3.2-1.3c-3.1-1.6-6.9-1-9.4,1.4l-13.3,13.3l-11.3-11.3l13.3-13.3
			c2.5-2.5,3.1-6.3,1.4-9.4c-0.6-1-1-2.1-1.4-3.2c-1-3.4-4.1-5.7-7.7-5.7H160v-16h18.8c3.5,0,6.6-2.3,7.7-5.7
			c0.3-1.1,0.8-2.2,1.4-3.2c1.6-3.1,1-6.9-1.4-9.4l-13.3-13.3l11.3-11.3l13.3,13.3c2.5,2.5,6.3,3.1,9.4,1.4c1-0.5,2.1-1,3.2-1.3
			c3.4-1,5.7-4.1,5.7-7.7V320h16v18.8c0,3.5,2.3,6.6,5.7,7.7c1.1,0.3,2.2,0.8,3.2,1.3c3.1,1.6,6.9,1,9.4-1.4l13.3-13.3l11.3,11.3
			l-13.3,13.3c-2.5,2.5-3.1,6.3-1.4,9.4c0.6,1,1,2.1,1.4,3.2c1,3.4,4.1,5.7,7.7,5.7H288L288,392z"/>
		<path class="st2" d="M224,352c-17.7,0-32,14.3-32,32s14.3,32,32,32s32-14.3,32-32S241.7,352,224,352z M224,400
			c-8.8,0-16-7.2-16-16s7.2-16,16-16s16,7.2,16,16S232.8,400,224,400z"/>
	</g>
</g>
</svg>
