<svg enable-background="new 0 0 512 512" viewBox="0 0 512 512" xmlns="http://www.w3.org/2000/svg"><g fill="none"><path d="m488 24h-416v245.3l16 10.7 16-10.7v-213.3h352v224h-308.8c-3.7 9.1-9.4 17.3-16.7 23.8-6.7 6-10.6 14.6-10.5 23.7v48.5h32v-8h26.8c.5-1.6 1.1-3.2 1.9-4.6l-19-19 22.6-22.6 19 19c1.5-.8 3-1.4 4.6-1.9v-26.9h32v26.8c1.6.5 3.2 1.1 4.6 1.9l19-19 22.6 22.6-19 19c.8 1.5 1.4 3 1.9 4.6h27v8h192z"/><path d="m311.1 240.5 32.9 39.5h112l-88-112z"/><circle cx="312" cy="112" r="24"/><path d="m311.1 240.5-87.1-104.5-77.9 93.4c7.4 16 7.8 34.3 1.1 50.6h196.8z"/></g><path d="m311 240.5 33 39.5z" fill="#9bc9ff"/><g fill="#fff"><path d="m88 496c-22.1 0-40-17.9-40-40v-128.6c0-6.7-2.8-13.2-7.8-17.7-29.7-26.4-32.4-71.9-6-101.6 7.4-8.3 16.5-14.7 26.8-18.9 4.1-1.7 8.8.3 10.4 4.4.4 1 .6 2 .6 3v63.1l16 10.7 16-10.7v-63.1c0-4.4 3.6-8 8-8 1 0 2 .2 3 .6 36.9 14.9 54.6 56.9 39.7 93.8-4.2 10.3-10.6 19.4-18.9 26.8-5 4.5-7.8 10.9-7.8 17.7v128.5c0 22.1-17.9 40-40 40zm-32-286c-25.4 17.7-31.6 52.6-14 78 2.5 3.6 5.4 6.9 8.7 9.8 8.4 7.5 13.3 18.3 13.2 29.6v128.6c0 13.3 10.7 24 24 24s24-10.7 24-24v-128.6c0-11.3 4.8-22.1 13.2-29.6 23.1-20.5 25.2-55.9 4.7-79.1-2.9-3.3-6.3-6.3-9.9-8.8v54c0 2.7-1.3 5.2-3.6 6.7l-24 16c-2.7 1.8-6.2 1.8-8.9 0l-24-16c-2.2-1.5-3.6-4-3.6-6.7z"/><path d="m88 464c-4.4 0-8-3.6-8-8v-128c0-4.4 3.6-8 8-8s8 3.6 8 8v128c0 4.4-3.6 8-8 8z"/><path d="m488 16h-416c-4.4 0-8 3.6-8 8v144c0 4.4 3.6 8 8 8s8-3.6 8-8v-136h400v336h-152c-4.4 0-8 3.6-8 8s3.6 8 8 8h160c4.4 0 8-3.6 8-8v-352c0-4.4-3.6-8-8-8z"/><path d="m448 256.9-73.7-93.8c-2.7-3.5-7.8-4.1-11.2-1.3-.5.4-.9.8-1.3 1.3l-50.8 64.7-80.7-96.9c-2.8-3.4-7.9-3.9-11.3-1-.4.3-.7.7-1 1l-60 72c-3 3.3-2.7 8.3.6 11.3s8.3 2.7 11.3-.6c.1-.1.3-.3.4-.5l53.9-64.6 102.7 123.5h-150.9c-4.4 0-8 3.6-8 8s3.6 8 8 8h280c4.4 0 8-3.6 8-8v-224c0-4.4-3.6-8-8-8h-352c-4.4 0-8 3.6-8 8v112c0 4.4 3.6 8 8 8s8-3.6 8-8v-104h336zm-126.7-16.6 46.7-59.3 71.5 91h-91.8z"/><path d="m344 112c0-17.7-14.3-32-32-32s-32 14.3-32 32 14.3 32 32 32 32-14.3 32-32zm-48 0c0-8.8 7.2-16 16-16s16 7.2 16 16-7.2 16-16 16-16-7.2-16-16z"/><path d="m296 360h-14l9.9-9.9c3.1-3.1 3.1-8.2 0-11.3l-22.6-22.6c-3.1-3.1-8.2-3.1-11.3 0l-10 9.8v-14c0-4.4-3.6-8-8-8h-32c-4.4 0-8 3.6-8 8v14l-9.9-9.9c-3.1-3.1-8.2-3.1-11.3 0l-22.6 22.6c-3.1 3.1-3.1 8.2 0 11.3l9.9 9.9h-14c-4.4 0-8 3.6-8 8v32c0 4.4 3.6 8 8 8h14l-9.9 9.9c-3.1 3.1-3.1 8.2 0 11.3l22.6 22.6c3.1 3.1 8.2 3.1 11.3 0l9.9-9.9v14c0 4.4 3.6 8 8 8h32c4.4 0 8-3.6 8-8v-14l9.9 9.9c3.1 3.1 8.2 3.1 11.3 0l22.6-22.6c3.1-3.1 3.1-8.2 0-11.3l-9.8-9.8h14c4.4 0 8-3.6 8-8v-32c0-4.4-3.6-8-8-8zm-8 32h-18.8c-3.5 0-6.6 2.3-7.7 5.7-.3 1.1-.8 2.2-1.4 3.2-1.6 3.1-1 6.9 1.4 9.4l13.3 13.3-11.3 11.3-13.3-13.3c-2.5-2.5-6.3-3.1-9.4-1.4-1 .5-2.1 1-3.2 1.3-3.4 1-5.7 4.1-5.7 7.7v18.8h-16v-18.8c0-3.5-2.3-6.6-5.7-7.7-1.1-.3-2.2-.8-3.2-1.3-3.1-1.6-6.9-1-9.4 1.4l-13.3 13.3-11.3-11.3 13.3-13.3c2.5-2.5 3.1-6.3 1.4-9.4-.6-1-1-2.1-1.4-3.2-1-3.4-4.1-5.7-7.7-5.7h-18.6v-16h18.8c3.5 0 6.6-2.3 7.7-5.7.3-1.1.8-2.2 1.4-3.2 1.6-3.1 1-6.9-1.4-9.4l-13.3-13.3 11.3-11.3 13.3 13.3c2.5 2.5 6.3 3.1 9.4 1.4 1-.5 2.1-1 3.2-1.3 3.4-1 5.7-4.1 5.7-7.7v-18.8h16v18.8c0 3.5 2.3 6.6 5.7 7.7 1.1.3 2.2.8 3.2 1.3 3.1 1.6 6.9 1 9.4-1.4l13.3-13.3 11.3 11.3-13.3 13.3c-2.5 2.5-3.1 6.3-1.4 9.4.6 1 1 2.1 1.4 3.2 1 3.4 4.1 5.7 7.7 5.7h18.6z"/><path d="m224 352c-17.7 0-32 14.3-32 32s14.3 32 32 32 32-14.3 32-32-14.3-32-32-32zm0 48c-8.8 0-16-7.2-16-16s7.2-16 16-16 16 7.2 16 16-7.2 16-16 16z"/></g></svg>