<svg enable-background="new 0 0 512 512" viewBox="0 0 512 512" xmlns="http://www.w3.org/2000/svg"><path d="m6.905 48.412c-1.38 4.975-.043 10.142.016 15.36.16 14.143-.943 28.406-.816 42.624.187 20.924 1.549 42.298.797 63.223-1.324 36.837-1.891 73.77-1.602 110.688.131 16.72-1.25 32.75.315 49.333 1.047 11.098-1.668 29.671 10.731 35.911 8.975 4.517 25.136-.497 35.117-.016 10.731.518 14.239 2.733 15.638-8.595 2.96-23.968 4.914-48.047 7.839-72.018 1.969-16.137-.309-42.483 13.857-53.48 4.951-3.843 15.251-10.104 21.537-9.756 4.91-10.706-3.018-32.989 6.619-40.94 4.22-3.481 11.662-1.636 16.778-1.573 9.983.122 19.973-.01 29.958.066 6.221.047 24.573-2.124 29.478 2.001 6.007 5.051 1.365 14.132.863 21.119-.306 4.265-1.356 9.918 2.432 12.299 5.361 3.369 15.249-2.097 17.476-6.773 4.144-8.701 3.079-25.501 2.53-34.846-.61-10.372.944-19.435 9.614-26.043 10.023-7.64 26.206-4.665 38.169-4.651 17.962.021 37.244-3.002 55.018.031 9.81 1.674 31.058 2.419 38.987 9.603 4.637 4.202 3.206 10.578 3.47 16.707.528 12.268-.939 30.718 4.719 41.811 3.204 6.281 1.863 5.639 10.531 6.49 5.857.575 11.814 1.672 17.587 1.51 3.08-9.82-1.585-26.937 4.094-36.048 5.514-8.846 18.505-2.246 26.527-4.781 7.958-2.514 5.581-7.228 4.801-15.21-1.195-12.243-2.413-24.464-2.387-36.909.028-13.78-2.438-27.354-5.037-40.766-1.921-9.912-2.263-20.775-8.811-29.162-12.038-15.418-46.701-11.664-64.126-11.043-37.805 1.348-75.601-.835-113.381-1.959-33.931-1.009-67.797-4.508-101.814-1.46-22.066 1.977-43.83 1.961-66.007 1.856-17.636-.087-40.369-4.035-61.517 5.397z" fill="#14ddf7"/><path d="m299.132 462.587c13.424.179 26.839.834 40.238 2.259 17.992 1.914 35.993 3.819 53.927 5.641 26.818 2.725 76.639 10.551 96.972-12.62 10.997-12.532 10.395-26.972 11.147-42.694.962-20.098.862-40.024.844-60.236-.019-21.64.828-43.171.803-65.049-.021-18.899 6.641-43.119-4.776-59.988-9.595-14.178-25.487-13.692-41.235-13.696-21.473-.004-42.812-.035-64.179.761-17.132.638-23.854-3.465-26.47-21.438-1.635-11.24.709-23.736-3.82-34.442-5.906-13.962-17.087-12.617-29.988-13.926-17.277-1.756-34.903-2.038-52.319-2.407-12.497-.265-25.07.394-37.532-.18-6.432-.296-15.924-2.182-21.257 2.747-9.065 8.381-6.644 36.911-6.646 47.77-.001 7.1 1.779 13.802-3.82 18.1-8.055 6.184-25.434 3.744-34.921 4.597-21.111 1.898-42.464-.095-63.19 2.355-8.13.961-17.121 2.193-24.175 6.719-7.564 4.853-7.86 10.139-8.774 18.655-3.3 30.748-4.416 61.598-5.62 92.583-.912 23.478.34 45.818 1.653 69.222.898 16.019-2.527 34.823 7.185 48.934 16.263 23.628 56.636 11.894 79.713 9.487 22.466-2.343 46.254-.466 68.915-1.447 22.429-.967 44.869-2.007 67.325-1.707z" fill="#b2b2b2"/><g fill="#7f7f7f"><path d="m133.755 178.472c-4.35 1.329-7.516-.723-11.864-.019-8.426 1.365-6.6 5.18-6.601 13.046-.001 4.664-2.721 23.769 1.533 26.991 4.542 3.44 27.373-1.495 32.714-1.482 12.219.03 24.446.099 36.665 0 10.565-.085 10.566-1.675 9.593-13.067-.721-8.429-1.262-18.188-8.374-22.841-12.193-7.976-39.464-4.022-53.666-2.628z"/><path d="m442.047 175.261c-11.285.732-25.211-1.599-36.117 1.603-12.729 3.738-16.085 29.433-7.9 38.615 3.061 3.433 14.767 2.288 18.802 2.331 14.168.152 28.258-.661 42.392-.799 7.825-.076 11.226 1.69 14.132-3.957 2.532-4.921.371-19.2-.608-24.621-2.753-15.243-18.254-13.98-30.701-13.172z"/><path d="m262.588 273.674c-15.255 6.126-28.393 15.294-36.082 32.23-10.365 22.83-11.376 55.276 2.163 77.091 9.37 15.097 26.741 24.384 43.703 28.122 28.611 6.305 54.147-8.086 72.932-29.123 18.037-20.2 13.796-52.07 6.712-76.053-7.033-23.81-37.86-46.75-62.608-40.472-9.212 2.335-18.343 4.8-26.82 8.205z"/><path d="m146.6 239.488c-8.73 1.784-17.159 1.456-25.29 4.847-7.682 3.204-12.43 10.848-2.849 16.85 10.337 6.475 48.437 11.257 51.462-4.796 1.083-5.749-2.142-10.333-6.287-13.91-8.302-7.164-14.379-2.237-17.036-2.991z"/></g><path d="m73.541 296.49c-1.464 18.331-4.721 36.001-4.459 54.547.227 16.069 3.408 32.18 5.462 48.163.638 4.964.368 17.529 3.796 20.807 7.705 7.367 38.741 2.57 48.388 2.128 31.591-1.444 63.887 1.768 95.216-2.128 1.786-10.978-17.953-28.444-24.066-36.416-11.331-14.778-11.324-33.406-6.628-50.672.85-3.127 16.14-46.761 16.243-46.722-10.231-3.899-25.771-.74-36.678-.947-15.746-.299-31.357.001-47.162.001-14.036 0-48.504-8.895-50.112 11.239z" fill="#db4040"/><path d="m367.382 280.433c.207 8.412 4.561 17.446 6.624 25.732 3.415 13.719 6.935 26.042 4.453 40.255-4.438 25.407-15.904 47.9-25.464 71.193 47.458 7.7 98.382 1.734 145.926-3.224.138-7.613 3.494-15.005 4.549-22.614 2.122-15.307 2.001-30.34 2.001-45.768 0-12.622-.971-25.43-.764-37.957.147-8.933 3.637-23.167-.214-31.728-2.407-5.35-3.285-5.147-10.278-4.781-15.286.799-30.566 4.6-45.862 5.897-16.633 1.411-33.248 2.555-49.922 3.036-9.397.272-23.989-2.958-31.049-.041z" fill="#db4040"/><path d="m291.112 160.81c-14.594-.02-41.516-5.15-52.828 6.622-10.555 10.984-7.358 39.389 7.459 44.368 21.576 7.25 47.086 3.118 69.454 1.999 8.178-.409 18.458 1.605 25.213-3.186 7.365-5.224 10.14-16.907 9.339-25.317-3.087-32.412-35.63-19.025-58.637-24.486z" fill="#f4f4f4"/><path d="m12.525 193.726c24.19-25.04 47.995-50.502 73.463-74.341 9.12-8.536 18.61-18.07 28.495-25.836 7.131-5.602 10.358-6.3 18.468-1.983 16.356 8.705 30.396 19.996 44.558 31.88 6.47 5.43 12.404 11.286 18.284 17.114 4.711 4.669 13.418 9.733 16.681 15.433 5.574 9.734 1.147 28.788 1.743 40.124.376 7.155 1.204 7.281-4.177 11.44-4.105 3.173-9.789 4.411-14.307 6.161-1.135-7.039-.144-21.357-4.334-27.211-5.821-8.132-26.068-5.957-35.179-6.607-8.025-.572-32.81-5.541-40.188-.019-6.122 4.582-3.296 28.696-4.073 37.025-19.785 6.804-28.556 15.298-34.001 36.401-1.497 5.803-2.507 23.803-7.007 27.783-2.223 1.966-5.959 1.28-8.469 1.654-4.169-16.474-13.906-8.803-24.971-12.128 3.38-9.79 14.333-41.275 6.724-51.196-11.896-15.51-26.58 18.153-33.154 24.851-1.092-15.333 1.969-31.411 1.444-50.545z" fill="#cf594f"/><path d="m14.131 361.521c16.602 9.032 36.834 6.586 54.453 4.696 5.962-19.023 1.746-39.94 1.886-59.519.051-7.147 6.798-30.36-8.031-25.604-3.256-12.805-13.216-10.152-24.101-9.613-1.149-7.87 21.613-63.52-6.143-54.008-7.397 2.535-10.801 9.57-14.075 15.951-2.848 5.549-7.638 12.864-8.821 18.911-4.447 22.725 1.235 48.868.034 72.075-.427 8.255-2.809 17.183-1.624 25.476 1.411 9.882 7.967 8.818 6.422 11.635z" fill="#71d182"/><path d="m314.394 70.088c-10.28.91-21.229 18.229-20.113 28.141 1.059 9.405 8.944 18.907 17.707 22.238 22.196 8.437 48.194-10.487 37.552-35.125-5.879-13.611-17.257-15.543-35.146-15.254z" fill="#ffdc0f"/><path d="m328.399 158.069c-10.148-1.138-20.06-1.174-29.993-.749-14.557-.367-29.021-.242-43.532 2.04-14.585 2.294-22.824 9.096-25.507 23.977-2.094 11.615-.902 27.811 11.735 32.791 6.532 2.574 14.299 1.926 21.114 2.284 10.237.537 20.342.841 30.609.855 14.546.022 35.001 3.341 48.045-4.971 12.064-7.688 15.601-23.351 12.734-36.572-3.144-14.492-11.301-18.096-25.205-19.655zm17.702 35.436c-2.103 8.943-8.568 15.109-17.534 16.819-11.718 2.234-23.901 1.209-35.742 1.204-11.744-.005-23.433-.22-35.144-.751-8.206-.373-17.668-1.135-20.45-10.09-2.426-7.811-2.115-19.14 2.266-26.122 5.728-9.127 18.624-8.839 28.076-9.996 5.272-.646 10.529-1.074 15.788-1.377 8.795.211 17.543-.186 26.385.431 8.555.597 20.325.324 28.198 3.911 8.598 3.915 10.113 17.654 8.157 25.971z"/><path d="m511.351 309.407c-.265-11.946-3.069-23.811-2.999-35.445.083-13.766 4.078-26.668-1.077-39.724-4.411-11.172-15.129-16.915-27.168-19.825.983-6.996-.483-14.507-.945-21.501-.375-5.673 1.37-13.28-2.621-18.105-7.645-9.242-31.81-5.815-41.663-5.739-.148.001-.295.011-.442.013-.641-5.973.11-12.675-.146-18.508-.336-7.634-1.127-15.359-1.877-22.968-1.936-19.631-3.299-39.07-6.941-58.486-2.854-15.212-7.052-28.122-23.961-30.406-20.518-2.772-42.832-.065-63.551-.076-19.455-.011-38.971-2.021-58.428-2.652-22.325-.724-44.738-.241-67.087-.832-44.877-1.188-89.894.397-134.748 1.859-12.846.419-25.459 1.079-38.264 2.235-9.535.86-22.282-1.217-31.295 1.762-6.595 2.179-7.635 7.634-7.457 14.007.314 11.261 1.003 23.135 2.673 34.296.015.101.071.169.096.262-.22 5.112-.319 10.229-.375 15.355-.195 17.838-.484 35.676-.681 53.515-.391 35.439.786 70.741-.32 106.199-.485 15.545-1.769 31.422-1.32 46.947.427 14.742-2.86 33.2 1.677 47.395 3.58 11.202 15.242 11.369 25.331 12.735 11.747 1.591 26.114 2.696 38.094.252.782 15.621 1.811 31.213 2.311 46.882.636 19.928 1.377 41.845 23.087 49.636 22.092 7.928 50.8 3.696 73.707 2.53 70.605-3.594 141.111 1.418 211.79 4.51 25.815 1.129 51.659 2.259 77.487 1.47 9.344-.285 18.887-.867 27.536-4.414 28.514-11.694 28.046-53.916 29.341-79.498 1.414-27.902.855-55.777.236-83.681zm-22.239-77.737c12.469 6.951 9.473 24.412 8.71 36.442-.001.018-.001.035-.002.052-2.394-.181-4.612-.335-5.177-.291-4.959.393-9.877.654-14.826.984-12.422.829-24.831 2.057-37.274 2.978-24.324 1.801-48.44.045-72.642 3.607-6.617-9.271-15.19-17.352-25.575-23.831-11.927-7.44-37.959-17.999-54.99-13.705-14.359-.176-30.266 6.058-41.652 10.966-15.78 6.802-29.548 18.162-39.492 31.675-.319-.106-.645-.193-.982-.236-17.93-2.264-37.184-.712-55.278-.119-22.885.75-46.298-.089-69.138 2.171.468-6.387 1.111-12.753 2.27-19.036 2.081-11.28 3.485-25.585 14.088-31.616 11.442-6.509 28.145-6.923 40.972-7.724 10.93-.682 21.827-1.057 32.762-1.698 11.626-.682 41.382 3.436 48.983-9.135 4.726-7.816.86-21.802.821-30.477-.068-14.957-.736-28.646 17.001-32.452 7.304-1.567 14.571-2.255 21.866-2.604 12.206.683 24.38 1.943 36.603 2.079 10.957.122 21.306-1.354 32.208.792 8.099 1.595 23.209 2.217 27.034 10.273 2.229 4.694 1.656 11.603 2.375 16.774 1.066 7.667 2.464 15.289 3.133 23.008.524 6.052-.428 13.568 3.423 18.816 5.107 6.959 15.815 5.296 23.27 5.274 22.832-.068 46.141-2.451 68.922-.717 9.629.732 23.866 2.889 32.587 7.75zm-143.499 176.025c-26.607 24.871-71.89 26.633-105.262 9.918-17.685-8.858-32.026-22.905-38.47-41.453-6.847-19.707-5.698-41.74.28-61.508 6.092-20.146 19.581-39.744 38.52-51.481 15.503-9.607 36.955-19.934 55.616-16.431 12.634 2.371 27.089 7.549 38.209 14.002 16.922 9.82 29.445 26.416 34.085 44.492 9.299 36.235 6.593 74.82-22.978 102.461zm-223.565-223.554c3.238-3.077 14.5.505 18.893.807 6.353.437 12.739.55 19.107.945 6.36.393 14.16-.52 20.27 1.027 7.601 1.925 6.557 7.277 6.949 13.79.201 3.341-.174 6.773.23 9.767-5.046-.201-9.902-.697-13.33-.462-18.355 1.26-37.031 1.073-55.347 3.531 1.125-4.454 1.93-8.926 2.166-13.579.173-3.378-1.7-13.202 1.062-15.826zm308.877-4.359c8.88-.142 28.407-3.429 34.99 3.314 5.213 5.34 2.58 19.671 3.532 29.439-8.027-.96-16.006-1.047-22.58-.951-12.307.178-24.611.565-36.91 1.041-2.591.101-5.705.495-9 .881 1.462-9.406 1.731-19.032.319-28.387-.542-3.592-.61-3.488.828-4.644.662-.533 8.963.183 8.844.182 6.728.073 13.282-.768 19.977-.875zm-419.347-123.204c.113-1.265.414-2.428 1.124-3.319 2.55-3.204 9.782-1.82 13.975-2.003 19.906-.869 39.743-2.499 59.665-3.34 38.717-1.635 77.933-2.317 116.67-1.378 38.397.93 76.764 1.776 115.118 2.903 17.137.503 34.209.856 51.392.856 9.033 0 18.298-.688 27.315-.166 7.659.443 10.897 2.205 14.048 9.544 1.94 4.518 2.583 9.479 3.51 14.264 3.569 18.433 4.616 37.247 6.235 55.939.753 8.692 1.748 17.384 1.869 26.117.062 4.458-.094 9.054.247 13.538-5.377.284-10.752.56-16.182.387-5.12-.163-12.279-1.561-15.58 3.702-2.841 4.529-.477 12.304-.02 16.95.787 8.004-.276 15.8.767 23.734-4.849.169-9.447-.255-12.777-2.196-12.245-7.138-8.573-28.725-10.003-40.337-.678-5.506-.405-12.271-2.655-17.351-10.002-22.11-57.968-17.33-76.644-17.138-15.136.155-29.887-1.751-45.116.301-8.545 1.151-18.762 2.179-25.396 8.237-2.215 2.023-3.943 4.337-5.357 6.815-.047-.032-.08-.071-.129-.103-20.283-13.077-36.994-32.481-55.255-48.126-13.226-11.331-26.87-27.054-44.511-15.915-19.439 12.274-34.505 32.386-51.192 48.03-16.841 15.788-33.02 32.343-48.857 49.154-.355-17.16-.801-34.321-1.021-51.475-.206-16.061-.789-32.11-1.144-48.167-.203-9.094 1.951-20.133-.096-29.457zm56.043 243.977c-1.009 13.602-2.867 27.152-2.761 40.805.047 5.964.212 11.913.435 17.854-.542.211-1.047.502-1.493.901-6.407 1.177-13.694.381-20.132.502-7.658.144-15.742-.137-23.207-2.048-8.763-2.244-7.488-8.901-7.643-16.82-.145-7.42.131-14.85-.033-22.269-.507-22.939.565-45.907 1.166-68.878 1.657-3.541 3.362-7.059 5.266-10.451 2.339-4.168 4.933-8.317 7.804-12.143 2.48-3.306 12.492-16.916 16.409-2.32 1.693 6.308-4.055 19.027-5.748 25.314-1.352 5.023-5.381 13.3-4.421 18.598 1.666 9.197 7.161 4.275 13.501 3.829 16.311-1.146 7.055 7.48 14.153 11.993 1.847 1.174 6.227 1.237 7.739-.016-.359 5.053-.661 10.109-1.035 15.149zm.843-23.45c-3.39 2.019-5.423-3.894-7.082-6.255-2.648-3.768-6.797-5.813-11.438-5.171-.677.094-9.454 3.543-10.406 2.928.302.196 2.613-7.884 3.315-10.379 2.889-10.277 6.805-21.359 7.513-32.075.807-12.22-7.974-20.143-19.074-12.586-5.672 3.861-12.029 11.203-17.023 19.381.016-1.682.047-3.363.052-5.045.033-11.316-.127-22.638-.333-33.96 31.391-29.329 61.537-59.957 92.733-89.51 3.933-3.726 8.098-7.413 12.866-10.048 8.543-4.722 15.214 1.103 21.796 6.304 8.567 6.769 16.717 14.069 24.671 21.541 13.601 12.779 27.846 27.115 43.553 37.223.367.237.73.381 1.088.487-1.212 4.046-1.859 8.309-2.141 12.555-.562 8.447 3.568 21.008 1.378 28.705-1.503 5.282-5.711 7.68-10.87 8.693-4.104-9.175 4.24-24.397-5.543-31.466-5.574-4.027-14.907-3.032-21.21-3.356-8.821-.455-17.648-1.102-26.457-1.631-10.115-.607-26.946-5.706-34.284 4.152-3.339 4.486-2.202 9.784-2.068 15.113.188 7.488-.804 14.953-.094 22.364-1.708.329-3.413.677-5.113 1.068-8.039 1.851-17.404 5.73-22.741 12.255-6.624 8.098-8.142 21.833-9.982 31.766-.687 3.707.492 14.456-2.861 16.789-.083.057-.164.11-.245.158zm11.434 132.405c-.776-11.956-1.57-23.929-2.349-35.899-1.548-23.78.23-47.322 1.958-71.005.275-3.764.49-7.546.711-11.329 24.662 2.446 49.451.712 74.141.67 10.133-.018 20.249-.79 30.331-.742 5.08.023 9.794.825 14.426.539-.526.979-1.046 1.96-1.532 2.952-18.475 37.71-19.79 89.371 15.192 119.501.03.026.063.05.093.076-3.716.191-7.387.418-10.931.567-14.583.615-29.236 1.704-43.827.981-25.723-1.274-52.151-1.086-77.846 1.433-.096-2.589-.2-5.174-.367-7.744zm409.842 37.734c-7.243 15.706-21.587 16.341-36.927 17.018-51.209 2.261-102.836-3.001-154.035-4.727-24.495-.826-48.917-2.249-73.451-2.387-26.845-.151-53.465 1.295-80.278 2.147-19.736.627-57.365 6.491-62.689-18.876-.99-4.715-1.438-9.514-1.712-14.331 25.779 1.626 51.59-.009 77.463 1.396 13.834.751 27.721-.125 41.537-.752 9.701-.44 19.07-.592 28.336-2.113 33.389 18.335 82.168 20.434 113.906 1.299 1.297-.781 2.568-1.613 3.825-2.474.252.054.514.095.794.112 27.027 1.644 54.426.846 81.529.917 13.661.036 27.214-.342 40.841-.759 8.267-.253 18.103-.336 26.766-1.877-.979 8.727-2.292 17.574-5.905 25.407zm7.28-37.935c-9.256-.577-18.935 2.135-28.141 2.431-14.4.463-28.733.788-43.167.833-15.093.048-30.211.598-45.3.39-6.921-.095-14.542-.77-21.86-.32 10.582-10.753 18.64-24.142 22.686-37.525 6.831-22.597 5.069-41.975 1.159-64.78-1.568-9.146-4.535-17.796-8.795-25.762 8.691.598 17.582-.45 26.247-.774 15.046-.562 29.997.564 45.05-.633 12.193-.969 24.395-1.398 36.55-2.419 5.045-.424 10.624-.344 16.015-.815-.125 19.711 2.06 39.352 1.844 59.063-.261 23.587.384 46.789-2.288 70.311z"/><path d="m328.214 273.029c-23.074-14.393-48.608-12.455-72.72-2.062-15.834 6.826-28.975 19.748-36.193 34.482-13.902 28.375-14.891 67.249 11.431 89.921 24.026 20.694 69.312 25.607 97.154 8.822 14.058-8.476 25.116-23.364 29.608-38.228 5.14-17.004 3.815-31.584.872-48.745-3.128-18.247-13.636-33.888-30.152-44.19zm2.474 117.447c-21.385 19.989-63.571 18.954-87.486 3.091-24.9-16.515-28.203-47.486-20.457-73.102 4.584-15.16 14.734-29.907 28.986-38.739 10.11-6.265 22.011-12.158 34.29-12.808 11.703-.619 26.32 5.183 36.31 10.98 12.733 7.389 22.157 19.877 25.648 33.479 6.997 27.267 4.961 56.301-17.291 77.099z"/><path d="m340.816 122.229c15.709-9.78 17.25-32.442 5.816-45.993-6.211-7.362-15.05-10.958-24.595-10.743-9.834.221-15.507 5.683-21.075 12.845-9.298 9.616-13.623 23.029-4.551 35.922 9.763 13.875 30.291 16.755 44.405 7.969zm-36.763-41.184c4.168-3.042 8.433-6.758 13.27-7.939 7.4-1.808 16.458.953 21.842 6.121 11.553 11.091 9.707 31.454-5.361 38.41-10.74 4.958-24.762 2.762-32.054-7.027-7.71-10.35-4.523-20.961 2.303-29.565z"/><path d="m126.438 239.826c-6.441.625-12.25 2.831-15.47 9.104-10.14 19.757 12.727 20.222 25.819 20.392 15.553.202 38.032 2.868 34.692-20.013-2.634-18.043-31.768-13.262-45.041-9.483zm26.685 23.584c-4.8.069-9.698-.877-14.575-.816-4.918.062-11.006.543-15.783-.771-12.068-3.321-6.924-14.259 4.434-16.154 7.787-1.298 37.886-7.29 37.569 7.473-.113 5.29-6.832 10.199-11.645 10.268z"/></svg>