<svg enable-background="new 0 0 512 512" viewBox="0 0 512 512" xmlns="http://www.w3.org/2000/svg"><path d="m353.604 177.724c-3.144-14.492-11.301-18.096-25.205-19.655-10.148-1.138-20.06-1.174-29.993-.749-14.557-.367-29.021-.242-43.532 2.04-14.585 2.294-22.824 9.096-25.507 23.977-2.094 11.615-.902 27.811 11.735 32.791 6.532 2.574 14.299 1.926 21.114 2.284 10.237.537 20.342.841 30.609.855 14.546.022 35.001 3.341 48.045-4.971 12.064-7.688 15.601-23.351 12.734-36.572zm-7.503 15.781c-2.103 8.943-8.568 15.109-17.534 16.819-11.718 2.234-23.901 1.209-35.742 1.204-11.744-.005-23.433-.22-35.144-.751-8.206-.373-17.668-1.135-20.45-10.09-2.426-7.811-2.115-19.14 2.266-26.122 5.728-9.127 18.624-8.839 28.076-9.996 5.272-.646 10.529-1.074 15.788-1.377 8.795.211 17.543-.186 26.385.431 8.555.597 20.325.324 28.198 3.911 8.598 3.915 10.113 17.654 8.157 25.971z"/><path d="m511.351 309.407c-.265-11.946-3.069-23.811-2.999-35.445.083-13.766 4.078-26.668-1.077-39.724-4.411-11.172-15.129-16.915-27.168-19.825.983-6.996-.483-14.507-.945-21.501-.375-5.673 1.37-13.28-2.621-18.105-7.645-9.242-31.81-5.815-41.663-5.739-.148.001-.295.011-.442.013-.641-5.973.11-12.675-.146-18.508-.336-7.634-1.127-15.359-1.877-22.968-1.936-19.631-3.299-39.07-6.941-58.486-2.854-15.212-7.052-28.122-23.961-30.406-20.518-2.772-42.832-.065-63.551-.076-19.455-.011-38.971-2.021-58.428-2.652-22.325-.724-44.738-.241-67.087-.832-44.877-1.188-89.894.397-134.748 1.859-12.846.419-25.459 1.079-38.264 2.235-9.535.86-22.282-1.217-31.295 1.762-6.595 2.179-7.635 7.634-7.457 14.007.314 11.261 1.003 23.135 2.673 34.296.015.101.071.169.096.262-.22 5.112-.319 10.229-.375 15.355-.195 17.838-.484 35.676-.681 53.515-.391 35.439.786 70.741-.32 106.199-.485 15.545-1.769 31.422-1.32 46.947.427 14.742-2.86 33.2 1.677 47.395 3.58 11.202 15.242 11.369 25.331 12.735 11.747 1.591 26.114 2.696 38.094.252.782 15.621 1.811 31.213 2.311 46.882.636 19.928 1.377 41.845 23.087 49.636 22.092 7.928 50.8 3.696 73.707 2.53 70.605-3.594 141.111 1.418 211.79 4.51 25.815 1.129 51.659 2.259 77.487 1.47 9.344-.285 18.887-.867 27.536-4.414 28.514-11.694 28.046-53.916 29.341-79.498 1.414-27.902.855-55.777.236-83.681zm-22.239-77.737c12.469 6.951 9.473 24.412 8.71 36.442-.001.018-.001.035-.002.052-2.394-.181-4.612-.335-5.177-.291-4.959.393-9.877.654-14.826.984-12.422.829-24.831 2.057-37.274 2.978-24.324 1.801-48.44.045-72.642 3.607-6.617-9.271-15.19-17.352-25.575-23.831-11.927-7.44-37.959-17.999-54.99-13.705-14.359-.176-30.266 6.058-41.652 10.966-15.78 6.802-29.548 18.162-39.492 31.675-.319-.106-.645-.193-.982-.236-17.93-2.264-37.184-.712-55.278-.119-22.885.75-46.298-.089-69.138 2.171.468-6.387 1.111-12.753 2.27-19.036 2.081-11.28 3.485-25.585 14.088-31.616 11.442-6.509 28.145-6.923 40.972-7.724 10.93-.682 21.827-1.057 32.762-1.698 11.626-.682 41.382 3.436 48.983-9.135 4.726-7.816.86-21.802.821-30.477-.068-14.957-.736-28.646 17.001-32.452 7.304-1.567 14.571-2.255 21.866-2.604 12.206.683 24.38 1.943 36.603 2.079 10.957.122 21.306-1.354 32.208.792 8.099 1.595 23.209 2.217 27.034 10.273 2.229 4.694 1.656 11.603 2.375 16.774 1.066 7.667 2.464 15.289 3.133 23.008.524 6.052-.428 13.568 3.423 18.816 5.107 6.959 15.815 5.296 23.27 5.274 22.832-.068 46.141-2.451 68.922-.717 9.629.732 23.866 2.889 32.587 7.75zm-143.499 176.025c-26.607 24.871-71.89 26.633-105.262 9.918-17.685-8.858-32.026-22.905-38.47-41.453-6.847-19.707-5.698-41.74.28-61.508 6.092-20.146 19.581-39.744 38.52-51.481 15.503-9.607 36.955-19.934 55.616-16.431 12.634 2.371 27.089 7.549 38.209 14.002 16.922 9.82 29.445 26.416 34.085 44.492 9.299 36.235 6.593 74.82-22.978 102.461zm-223.565-223.554c3.238-3.077 14.5.505 18.893.807 6.353.437 12.739.55 19.107.945 6.36.393 14.16-.52 20.27 1.027 7.601 1.925 6.557 7.277 6.949 13.79.201 3.341-.174 6.773.23 9.767-5.046-.201-9.902-.697-13.33-.462-18.355 1.26-37.031 1.073-55.347 3.531 1.125-4.454 1.93-8.926 2.166-13.579.173-3.378-1.7-13.202 1.062-15.826zm308.877-4.359c8.88-.142 28.407-3.429 34.99 3.314 5.213 5.34 2.58 19.671 3.532 29.439-8.027-.96-16.006-1.047-22.58-.951-12.307.178-24.611.565-36.91 1.041-2.591.101-5.705.495-9 .881 1.462-9.406 1.731-19.032.319-28.387-.542-3.592-.61-3.488.828-4.644.662-.533 8.963.183 8.844.182 6.728.073 13.282-.768 19.977-.875zm-419.347-123.204c.113-1.265.414-2.428 1.124-3.319 2.55-3.204 9.782-1.82 13.975-2.003 19.906-.869 39.743-2.499 59.665-3.34 38.717-1.635 77.933-2.317 116.67-1.378 38.397.93 76.764 1.776 115.118 2.903 17.137.503 34.209.856 51.392.856 9.033 0 18.298-.688 27.315-.166 7.659.443 10.897 2.205 14.048 9.544 1.94 4.518 2.583 9.479 3.51 14.264 3.569 18.433 4.616 37.247 6.235 55.939.753 8.692 1.748 17.384 1.869 26.117.062 4.458-.094 9.054.247 13.538-5.377.284-10.752.56-16.182.387-5.12-.163-12.279-1.561-15.58 3.702-2.841 4.529-.477 12.304-.02 16.95.787 8.004-.276 15.8.767 23.734-4.849.169-9.447-.255-12.777-2.196-12.245-7.138-8.573-28.725-10.003-40.337-.678-5.506-.405-12.271-2.655-17.351-10.002-22.11-57.968-17.33-76.644-17.138-15.136.155-29.887-1.751-45.116.301-8.545 1.151-18.762 2.179-25.396 8.237-2.215 2.023-3.943 4.337-5.357 6.815-.047-.032-.08-.071-.129-.103-20.283-13.077-36.994-32.481-55.255-48.126-13.226-11.331-26.87-27.054-44.511-15.915-19.439 12.274-34.505 32.386-51.192 48.03-16.841 15.788-33.02 32.343-48.857 49.154-.355-17.16-.801-34.321-1.021-51.475-.206-16.061-.789-32.11-1.144-48.167-.203-9.094 1.951-20.133-.096-29.457zm56.043 243.977c-1.009 13.602-2.867 27.152-2.761 40.805.047 5.964.212 11.913.435 17.854-.542.211-1.047.502-1.493.901-6.407 1.177-13.694.381-20.132.502-7.658.144-15.742-.137-23.207-2.048-8.763-2.244-7.488-8.901-7.643-16.82-.145-7.42.131-14.85-.033-22.269-.507-22.939.565-45.907 1.166-68.878 1.657-3.541 3.362-7.059 5.266-10.451 2.339-4.168 4.933-8.317 7.804-12.143 2.48-3.306 12.492-16.916 16.409-2.32 1.693 6.308-4.055 19.027-5.748 25.314-1.352 5.023-5.381 13.3-4.421 18.598 1.666 9.197 7.161 4.275 13.501 3.829 16.311-1.146 7.055 7.48 14.153 11.993 1.847 1.174 6.227 1.237 7.739-.016-.359 5.053-.661 10.109-1.035 15.149zm1.088-23.608c-.083.057-.164.11-.245.158-3.39 2.019-5.423-3.894-7.082-6.255-2.648-3.768-6.797-5.813-11.438-5.171-.677.094-9.454 3.543-10.406 2.928.302.196 2.613-7.884 3.315-10.379 2.889-10.277 6.805-21.359 7.513-32.075.807-12.22-7.974-20.143-19.074-12.586-5.672 3.861-12.029 11.203-17.023 19.381.016-1.682.047-3.363.052-5.045.033-11.316-.127-22.638-.333-33.96 31.391-29.329 61.537-59.957 92.733-89.51 3.933-3.726 8.098-7.413 12.866-10.048 8.543-4.722 15.214 1.103 21.796 6.304 8.567 6.769 16.717 14.069 24.671 21.541 13.601 12.779 27.846 27.115 43.553 37.223.367.237.73.381 1.088.487-1.212 4.046-1.859 8.309-2.141 12.555-.562 8.447 3.568 21.008 1.378 28.705-1.503 5.282-5.711 7.68-10.87 8.693-4.104-9.175 4.24-24.397-5.543-31.466-5.574-4.027-14.907-3.032-21.21-3.356-8.821-.455-17.648-1.102-26.457-1.631-10.115-.607-26.946-5.706-34.284 4.152-3.339 4.486-2.202 9.784-2.068 15.113.188 7.488-.804 14.953-.094 22.364-1.708.329-3.413.677-5.113 1.068-8.039 1.851-17.404 5.73-22.741 12.255-6.624 8.098-8.142 21.833-9.982 31.766-.687 3.707.492 14.456-2.861 16.789zm11.189 132.563c-.776-11.956-1.57-23.929-2.349-35.899-1.548-23.78.23-47.322 1.958-71.005.275-3.764.49-7.546.711-11.329 24.662 2.446 49.451.712 74.141.67 10.133-.018 20.249-.79 30.331-.742 5.08.023 9.794.825 14.426.539-.526.979-1.046 1.96-1.532 2.952-18.475 37.71-19.79 89.371 15.192 119.501.03.026.063.05.093.076-3.716.191-7.387.418-10.931.567-14.583.615-29.236 1.704-43.827.981-25.723-1.274-52.151-1.086-77.846 1.433-.096-2.589-.2-5.174-.367-7.744zm409.842 37.734c-7.243 15.706-21.587 16.341-36.927 17.018-51.209 2.261-102.836-3.001-154.035-4.727-24.495-.826-48.917-2.249-73.451-2.387-26.845-.151-53.465 1.295-80.278 2.147-19.736.627-57.365 6.491-62.689-18.876-.99-4.715-1.438-9.514-1.712-14.331 25.779 1.626 51.59-.009 77.463 1.396 13.834.751 27.721-.125 41.537-.752 9.701-.44 19.07-.592 28.336-2.113 33.389 18.335 82.168 20.434 113.906 1.299 1.297-.781 2.568-1.613 3.825-2.474.252.054.514.095.794.112 27.027 1.644 54.426.846 81.529.917 13.661.036 27.214-.342 40.841-.759 8.267-.253 18.103-.336 26.766-1.877-.979 8.727-2.292 17.574-5.905 25.407zm7.28-37.935c-9.256-.577-18.935 2.135-28.141 2.431-14.4.463-28.733.788-43.167.833-15.093.048-30.211.598-45.3.39-6.921-.095-14.542-.77-21.86-.32 10.582-10.753 18.64-24.142 22.686-37.525 6.831-22.597 5.069-41.975 1.159-64.78-1.568-9.146-4.535-17.796-8.795-25.762 8.691.598 17.582-.45 26.247-.774 15.046-.562 29.997.564 45.05-.633 12.193-.969 24.395-1.398 36.55-2.419 5.045-.424 10.624-.344 16.015-.815-.125 19.711 2.06 39.352 1.844 59.063-.261 23.587.384 46.789-2.288 70.311z"/><path d="m358.366 317.219c-3.128-18.247-13.636-33.888-30.152-44.19-23.074-14.393-48.608-12.455-72.72-2.062-15.834 6.826-28.975 19.748-36.193 34.482-13.902 28.375-14.891 67.249 11.431 89.921 24.026 20.694 69.312 25.607 97.154 8.822 14.058-8.476 25.116-23.364 29.608-38.228 5.14-17.004 3.815-31.584.872-48.745zm-27.678 73.257c-21.385 19.989-63.571 18.954-87.486 3.091-24.9-16.515-28.203-47.486-20.457-73.102 4.584-15.16 14.734-29.907 28.986-38.739 10.11-6.265 22.011-12.158 34.29-12.808 11.703-.619 26.32 5.183 36.31 10.98 12.733 7.389 22.157 19.877 25.648 33.479 6.997 27.267 4.961 56.301-17.291 77.099z"/><path d="m346.632 76.236c-6.211-7.362-15.05-10.958-24.595-10.743-9.834.221-15.507 5.683-21.075 12.845-9.298 9.616-13.623 23.029-4.551 35.922 9.763 13.875 30.291 16.755 44.405 7.969 15.709-9.78 17.25-32.442 5.816-45.993zm-12.828 41.401c-10.74 4.958-24.762 2.762-32.054-7.027-7.71-10.35-4.523-20.961 2.303-29.565 4.168-3.042 8.433-6.758 13.27-7.939 7.4-1.808 16.458.953 21.842 6.121 11.553 11.091 9.707 31.454-5.361 38.41z"/><path d="m171.479 249.309c-2.634-18.043-31.768-13.262-45.041-9.483-6.441.625-12.25 2.831-15.47 9.104-10.14 19.757 12.727 20.222 25.819 20.392 15.553.202 38.032 2.868 34.692-20.013zm-18.356 14.101c-4.8.069-9.698-.877-14.575-.816-4.918.062-11.006.543-15.783-.771-12.068-3.321-6.924-14.259 4.434-16.154 7.787-1.298 37.886-7.29 37.569 7.473-.113 5.29-6.832 10.199-11.645 10.268z"/></svg>