<svg enable-background="new 0 0 47.168 47.168" height="47.168" viewBox="0 0 47.168 47.168" width="47.168" xmlns="http://www.w3.org/2000/svg"><path d="m47.168 36.918v-30.219h-47.168v30.219h19.252v1.945h-10.064v1.605h28.179v-1.605h-9.846v-1.945zm-43.718-4.449v-22.32h40.267v22.317h-40.267z"/><path d="m10.965 19.217h25.166v-6.166h-25.166zm.5-5.666h24.166v5.166h-24.166z"/><path d="m10.941 25.764h7.739v-5.562h-7.739zm.5-5.063h6.739v4.562h-6.739z"/><path d="m19.647 25.764h7.738v-5.562h-7.738zm.5-5.063h6.738v4.562h-6.738z"/><path d="m36.152 20.201h-7.738v5.562h7.738zm-.5 5.063h-6.738v-4.562h6.738z"/><path d="m10.941 27.029h6.976v.484h-6.976z"/><path d="m10.941 27.92h7.739v.484h-7.739z"/><path d="m10.941 28.842h6.304v.484h-6.304z"/><path d="m10.941 29.842h7.054v.484h-7.054z"/><path d="m10.488 30.781h4.522v.484h-4.522z"/><path d="m19.647 27.029h6.976v.484h-6.976z"/><path d="m19.647 27.92h7.739v.484h-7.739z"/><path d="m19.647 28.842h6.304v.484h-6.304z"/><path d="m19.647 29.842h7.054v.484h-7.054z"/><path d="m19.193 30.781h4.522v.484h-4.522z"/><path d="m28.49 26.99h6.976v.484h-6.976z"/><path d="m28.49 27.881h7.738v.484h-7.738z"/><path d="m28.49 28.803h6.304v.484h-6.304z"/><path d="m28.49 29.803h7.054v.484h-7.054z"/><path d="m28.037 30.742h4.521v.484h-4.521z"/><path d="m22.501 11.029h-11.563v1.406h11.563zm-.5.908h-10.563v-.407h10.563z"/></svg>