<svg enable-background="new 0 0 512 512" viewBox="0 0 512 512" xmlns="http://www.w3.org/2000/svg"><path d="m143.82 8.931c-1.377 11.044-1.13 20.893-.594 32.105.155 3.248-.98 9.882.613 12.645 2.081 3.609 8.445 2.619 12.928 2.836 43.528 2.108 87.7 1.348 131.271 1.326 17.295-.009 34.66.597 52.025.597 4.005 0 24.129 2.201 26.754-.718 1.84-2.045.662-13.135.687-15.95.064-7.314.477-14.851 0-22.149-.938-14.344-20.056-9.007-31.459-9.469-34.977-1.415-69.998-1.224-105.053-1.224-16.161 0-32.295.006-48.395 1.176-10.757.783-25.219-2.01-38.777-1.175z" fill="#727272"/><path d="m96.1 8.335c0 15.274 1.076 30.155 1.88 45.243 15.085.723 31.468 1.851 46.346 1.191.555-9.554-3.014-19.728-1.645-29.027.718-4.881 4.991-9.121 1.918-13.919-6.915-10.8-37.48-1.42-48.499-3.488z" fill="#71d182"/><path d="m59.714 10.124c-.098 12.367-1.21 24.857-.597 37.285.244 4.953.058 6.929 4.727 8.512 9.502 3.222 24.089-.297 33.954-.554 2.055-10.727-.946-20.749-2.346-31.264-.594-4.461 1.045-13.217-2.027-15.774-6.47-5.385-24.384.544-33.711 1.795z" fill="#ffdc0f"/><path d="m13.188 16.686c.076 7.184-.676 14.454-1.207 21.612-.239 3.222-2.194 11.892-.583 15.366 2.016 4.345 4.563 2.383 10.532 2.39 12.547.014 25.228.019 37.725-.687-2.342-7.155-.666-16.343-1.467-23.934-.479-4.533-.24-14.459-2.052-18.922-4.808-11.835-29.759 6.071-42.948 4.175z" fill="#ff3535"/><path d="m13.693 214.141c-.621 19.77-3.136 39.436-3.885 59.202-.432 11.395 2.688 21.527 2.523 32.795-.16 10.966-2.503 21.743-3.186 32.666-.934 14.937-1.419 29.813-2.055 44.74-.999 23.448-.599 47.088-1.059 70.547-.188 9.56-2.949 27.05 6.219 33.592 4.898 3.495 13.688 4.37 19.401 4.987 11.978 1.293 23.948 3.02 36.012 3.629 26.188 1.321 52.345 2.843 78.537 4.127 24.576 1.205 48.821 5.746 73.397 6.572 23.203.78 45.659-2.826 68.784-4.185 14.934-.878 29.427-.283 44.033-3.713 11.669-2.74 25.864-2.464 31.378-15.198 4.224-9.757 4.329-21.772 4.31-32.208-.016-8.783.563-17.491.581-26.27.036-17.943-1.245-34.048-4.959-51.339-4.18-19.46-1.017-41.686-1.6-61.529-.439-14.952-2.105-29.901-1.789-44.879.432-20.5 3.039-40.901 4.055-61.376.684-13.783-1.134-27.498-.432-41.293 1.113-21.883 5.347-43.308 5.339-65.311-.005-13.387 1.882-28.605-.685-41.775-29.427-1.234-59.15 1.046-88.675 1.117-74.749.179-150.04-4.767-224.587-1.162-12.345.597-25.921-2.271-38.015-.627-10.766 1.463-5.567 15.366-4.793 23.855 3.874 42.483 1.842 85.326 1.27 127.908-.026 1.708-.066 3.419-.119 5.128z" fill="#ffcfb4"/><path d="m120.585 154.985c3.671-3.187 8.642-4.31 13.165-6.536 7.658-3.771 15.027-7.962 22.916-11.283 15.141-6.375 31.397-10.8 47.949-10.16 19.544.756 40.463 8.997 57.806 17.809 16.018 8.138 17.794 24.506 8.351 39.45-12.983 20.547-45.942 28.678-68.645 25.713-17.415-2.274-35.787-8.348-51.032-17.181-8.701-5.041-15.614-10.899-22.714-17.904-4.247-4.19-14.796-8.382-11.094-15.673.889-1.754 2.014-3.12 3.298-4.235z" fill="#f4f4f4"/><path d="m80.592 287.493c-16.293 10.734-2.712 36.176 14.912 29.182 7.712-3.06 11.826-11.743 9.587-19.814-3.768-13.579-15.952-12.976-24.499-9.368z" fill="#dd8c4e"/><path d="m161.715 258.265c-12.161 7.317-11.073 27.382 2.982 30.885 13.665 3.405 22.695-7.756 17.878-21.341-1.263-3.563-3.251-6.555-6.544-8.828-6.428-4.437-10.317-2.781-14.316-.716z" fill="#dd8c4e"/><path d="m218.382 427.073c18.109-7.005 36.349-19.849 52.491-30.714 12.59-8.473 26.332-20.364 36.983-31.082 7.413 11.339 22.829 21.099 36.312 21.239 4.51.047 18.15-4.046 20.98-1.227 2.023 2.015 1.588 14.176 1.761 16.46.792 10.478 1.193 20.806 1.193 31.332 0 14.554-.949 28.932-5.489 42.844-3.461.273-6.563-1.207-10.017-1.595-5.58-.628-11.453.094-17.019.455-12.941.839-24.551.707-37.147-2.379-20.145-4.936-39.189-8.07-55.146-22.702-8.732-8.006-20.075-16.193-24.902-22.631z" fill="#ff3535"/><path d="m128.908 309.564c-.911 13.389-5.392 27.273-8.649 40.285-3.077 12.294-4.411 24.22-5.698 36.643-.758 7.321-1.093 12.703 7.608 11.963 7.115-.605 15.195-4.923 22.16-4.099 2.361 13.812 5.883 29.582 10.332 42.753 6.522.199 22.561.104 26.9-6.296 2.588-3.817-.833-13.36-1.355-17.294-.732-5.521-4.475-15.932-2.994-21.041 2.22-7.658 17.841-8.281 16.131-18.493-1.096-6.544-10.522-14.531-14.726-19.501-5.933-7.014-10.999-14.683-16.932-21.731-4.463-5.303-28.844-36.243-32.777-23.189z" fill="#727272"/><path d="m190.943 135.389c-21.359 6.126-26.171 44.246-2.881 50.103 23.229 5.842 46.335-2.812 43.492-30.224-2.084-20.099-19.398-26.982-40.611-19.879z" fill="#008ee5"/><path d="m400.908 110.335c.583 24.419-2.891 49.524-4.085 73.955-.912 18.648.48 38.363 2.923 56.83 4.446 33.606.015 68.599 1.628 102.444.613 12.861.95 25.026 10.398 34.863 6.816 7.096 15.002 7.022 24.344 7.316 19.843.625 41.356 1.078 57.773-11.769 6.743-5.277 11.648-9.067 13.062-17.805 2.038-12.597.133-25.71.133-38.387 0-12.147-2.365-24.194.278-36.089 2.548-11.465 1.161-23.405.247-35.157-2.052-26.387-5.894-53.245-5.894-79.399 0-16.305 5.591-40.298-6.491-53.842-11.228-12.586-31.673-10.975-46.856-11.862-15.105-.883-39.44-2.765-47.46 8.902z" fill="#9e9e9e"/><path d="m467.119 206.371c-11.845 13.687-63.242 37.449-38.473 61.139 11.415 10.918 25.223-6.189 32.817-13.231 9.341-8.661 21.988-16.12 26.401-28.821 1.922-5.533.055-9.474-2.833-13.985-5.409-8.449-10.173-10.886-17.912-5.102z" fill="#f4f4f4"/><path d="m375.391 24.05c-2.264-11.142-8.789-17.948-19.869-19.547-16.244-2.344-33.415.372-49.734.745-5.989.137-11.892.265-17.767.454-39.8-.972-79.64-1.163-119.401-2.174-30.898-.786-61.861-2.479-92.755-1.032-13.183.617-26.548.028-39.661 1.537-10.471 1.205-22.505.045-27.504 11.099-4.861 10.751-3.28 24.034-3.683 35.491-.596 16.933-.198 33.842-.199 50.782-.002 33.521-1.7 67.119-.863 100.619.816 32.632 1.237 65.235.802 97.88-.433 32.481-2.964 64.937-2.878 97.413.042 15.938.622 31.934-.12 47.864-.588 12.619-4.326 28.049 1.307 40.033 3.521 7.492 12.172 9.835 19.636 11.942 14.317 4.041 29.952 5.346 44.684 7.104 63.476 7.573 128.03 5.55 191.855 5.599 27.12.021 54.659.636 81.529-2.811 9.133-1.171 17.792-2.97 23.107-11.356 6.84-10.792 7.876-26.659 9.678-39.065 4.133-28.46.631-58.188-1.499-86.699-2.319-31.034-2.412-62.102-2.405-93.224.008-34.768-.312-69.537 1.15-104.244 1.447-34.361 4.7-68.49 4.689-102.91-.003-7.807-.005-15.614-.007-23.421-.004-7.145 1.338-15.042-.092-22.079zm-235.859-9.392c-.165.986-.299 1.849-.313 2.36-.145 5.407-.567 10.908-.058 16.302.544 5.762.043 12.755 1.188 18.834-11.324-.531-22.65-.926-33.993-.8-.891.01-1.788.021-2.679.031-.198-.245-.423-.476-.698-.668.142.099-.344-6.05-.326-5.902-.533-4.408-.694-8.791-1.211-13.204-.684-5.84-1.368-11.685-2.041-17.534 13.377-.056 26.754.242 40.131.581zm-77.79.452c4.013-.118 8.033-.243 12.067-.433 6.706-.316 13.411-.474 20.117-.553-.421 6.299.092 12.603.472 18.955.273 4.574.737 9.117 1.273 13.661.178 1.509.081 3.161.235 4.735-.037-.378-23.879.313-26.081.291-7.782-.077-7.57-3.055-8.122-10.227 0-8.732.696-17.728.039-26.429zm-44.326 17.358c.148-2.073.299-6.33 1.184-8.801 2.595-7.237 5.66-6.147 13.05-6.938 8.105-.868 16.175-1.193 24.262-1.441 0 2.982-.129 36.696.379 36.687-13.272.218-26.541.503-39.773.97.239-6.821.413-13.68.898-20.477zm344.858 414.397c-.522 6.078-1.553 11.993-2.617 17.95-5.251.161-10.907 2.306-16 3.243-8.398 1.546-15.839 2.013-24.362 1.657-8.711-.363-17.193-.606-25.849-1.738-9.318-1.218-16.024-4.005-24.386-8.133-13.606-6.716-23.336-18.453-36.6-25.62-.69-.373-1.436-.789-2.222-1.225 2.592-.044 5.18-.044 7.749.048 7.456.269 14.092 2.145 21.595 1.316 15.972-1.764 29.993-9.631 45.307-13.594 6.005-1.554 12.002-2.995 18.072-.29 3.285 1.464 6.035 4.234 9.219 5.911 4.484 2.363 10.391 4.473 15.472 3.438 4.218-.859 10.496-3.839 15.078-7.861.271 8.274.265 16.5-.456 24.898zm-130.567-22.792c12.182-5.659 23.722-12.571 35.346-19.736 16.162-9.961 28.333-21.693 40.523-35.611 2.792 4.222 4.851 8.796 9.06 12.396 4.192 3.585 8.995 6.138 14.244 7.749 10.63 3.26 20.298 4.538 30.395 2.306.249 5.58.51 11.154.809 16.714.03.56.058 1.115.087 1.674-3.283 2.622-6.687 5.543-10.663 6.695-9.89 2.865-14.962-1.527-22.77-5.664-10.365-5.491-22.353-2.592-32.83 1.093-12.768 4.489-25.409 10.057-38.91 12.1-6.413.971-12.58-.12-19.011-.074-1.783.013-3.978.199-6.28.358zm127.351-260.471c-1.306 27.112-1.746 54.194-1.74 81.346.006 27.68-1.31 55.742.744 83.329.224 3.012.381 6.044.574 9.065-5.275-.28-10.508.952-15.862-1.114-6.905-2.665-10.278-9.55-16.596-13.17-11.908-6.823-38.649 1.06-32.634-21.454 7.568-28.325 27.119-57.207 21.787-87.885-.475-2.735-4.728-2.542-5.338 0-5 20.814-9.927 41.735-18.395 61.427-5.66 13.164-17.576 32.933-6.963 46.447 4.246 5.407 10.714 8.085 17.407 8.896 9.413 1.139 16.501 1.084 23.872 8.039 8.953 8.449 21.505 13.867 33.414 9.807.601 11.159 1.064 22.352 1.542 33.532-8.444-.095-16.685.368-25.314-1.936-8.06-2.151-15.043-6.035-19.637-13.328-1.826-2.898-2.614-5.448-5.016-7.95-1.618-1.687-4.634-1.712-6.251 0-14.399 15.249-28.625 27.987-46.687 39.051-9.357 5.732-18.79 11.332-28.251 16.887-5.164 3.032-13.636 5.654-16.324 11.697-3.799 8.542 8.59 12.671 14.171 16.315 7.481 4.888 13.644 11.136 20.378 16.936 9.099 7.836 22.425 15.594 34.186 18.236 14.597 3.278 30.673 4.347 45.577 4.089 9.264-.16 20.855-1.121 30.028-4.958-.828 5.286-2.126 10.793-5.564 14.053-6.571 6.231-23.063 4.78-31.519 5.453-13.724 1.092-27.453 1.207-41.224 1.24-59.215.143-118.841 2.015-177.905-2.844-25.947-2.135-53.904-2.158-78.908-10.305-7.864-2.562-9.493-4.203-10.104-13.224-.411-6.065.311-12.138.748-18.18 1.069-14.769.787-29.586.641-44.383-.576-58.651 3.643-117.233 2.594-175.942-.528-29.554-.551-58.869-.089-88.421.442-28.335-.936-56.773-.076-85.095 32.26.948 64.45-.664 96.689-.323 33.209.351 66.456 2.302 99.674 2.952 33.234.65 66.45.238 99.717 1.053 13.014.319 25.962-.886 38.902-.659 3.262.057 7.938.707 11.805-.104.04 6.175.101 12.349.099 18.511-.008 27.65-2.822 55.304-4.152 82.914zm4.227-125.684c-.145 4.888-.182 9.785-.19 14.684-.464.333-.882.795-1.21 1.431-.531 1.028-24.434.839-25.727.902-15.507.765-31.119-.419-46.623-.741-30.777-.638-61.732-.266-92.499-.034-16.348.123-32.661-.798-48.974-1.623-.852-3.394-.674-9.275-.863-11.887-.333-4.607-.822-9.318-1.004-13.944-.153-3.915-.437-7.946-.345-11.889 6.812.177 13.625.351 20.439.488 32.273.647 64.735-.488 96.96 1.191 30.396 1.584 60.936 1.142 91.328-.602 10.532 4.338 8.975 12.989 8.708 22.024z"/><path d="m236.529 129.389c-13.733-3.236-28.42-4.815-41.786-4.53-17.068.364-32.084 4.24-47.383 11.612-18.176 8.759-35.996 14.969-55.569 19.797-3.33.821-3.494 6.18 0 6.902 8.32 1.72 16.236 1.028 23.923-.995 6.754 21.774 29.84 36.519 49.609 44.87 12.835 5.421 28.776 7.863 42.653 8.995 13.134 1.072 25.445-2.778 38.096-5.653 19.524-4.436 41.08-23.443 37.305-45.888-2.727-16.213-17.582-25.772-32.004-30.813-4.737-1.655-9.724-3.092-14.844-4.297zm-37.545 6.588c3.82.114 7.638.415 11.443.851 8.399 2.365 14.885 6.788 16.751 17.671 1.635 9.537-2.429 20.047-10.316 25.866-8.271 6.102-15.184 5.715-24.851 3.137-10.842-2.89-17.1-13.75-15.578-24.611 1.602-11.442 11.817-19.481 22.551-22.914zm71.898 37.612c-5.615 20.513-24.806 25.806-43.332 29.139-19.651 3.535-42.81.993-61.139-7.542-15.692-7.307-35.737-18.53-44.58-34.903 17.055-5.986 33.174-17.269 50.317-21.608 3.628-.919 7.289-1.571 10.966-2.016-8.564 6.051-15.121 15.395-14.942 24.702.34 17.73 12.233 29.23 29.031 32.013 19.568 3.241 38.266-14.417 38.533-33.795.113-8.167-2.018-14.596-5.753-19.47 10.06 1.978 22.996 4.743 31.966 10.83 6.783 6.515 11.211 14.327 8.933 22.65z"/><path d="m191.406 165.348c1.025 4.909 6.063 8.769 11.097 7.906 4.34-.744 7.445-4.39 9.05-8.286 1.655-4.017 1.96-9.246-1.076-12.725-3.348-3.838-9.465-3.202-13.649-1.19-4.595 2.209-6.592 7.665-5.614 12.519.012.602.071 1.196.192 1.776z"/><path d="m154.222 284.529c3.662 5.761 11.487 9.312 18.227 8.579 6.713-.73 10.674-5.756 12.869-11.755 5.335-14.582-6.462-33.379-23.017-25.85-6.056 2.754-12.407 9.874-13.061 16.745-.33 3.464 1.22 8.534 4.272 10.881.232.47.431.961.71 1.4zm3.901-17.075c2.046-3.062 5.049-5.566 7.809-6.412 11.241-3.444 15.915 10.396 12.537 18.818-3.798 9.47-17.442 8.277-20.892-1.217-1.259-3.465-.901-7.498.546-11.189z"/><path d="m83.13 282.87c-6.056 2.754-12.407 9.874-13.061 16.745-.33 3.464 1.22 8.534 4.272 10.881.232.47.431.961.711 1.4 3.662 5.761 11.487 9.311 18.227 8.579 6.712-.73 10.674-5.756 12.869-11.755 5.333-14.581-6.463-33.378-23.018-25.85zm16.168 24.357c-3.798 9.47-17.442 8.277-20.892-1.217-1.259-3.465-.901-7.497.546-11.188 2.046-3.062 5.049-5.566 7.809-6.412 11.241-3.444 15.915 10.395 12.537 18.817z"/><path d="m224.755 290.43c-3.11-.012-6.233 1.897-7.562 4.448-.975 1.641-1.408 3.609-1.087 5.487.507 2.965 3.009 5.763 5.934 6.551 3.273.882 5.801-1.012 7.607-3.529 1.559-2.174 3.308-4.85 2.615-7.652-.825-3.331-4.216-5.293-7.507-5.305z"/><path d="m116.321 265.499c1.476-.912 2.653-2.256 3.08-3.976.399-1.607.331-3.787-.603-5.236-1.43-2.219-4.252-2.779-6.54-1.576-1.68.882-2.294 2.465-2.366 4.147.127-.285.138-.306.033-.058-.009.023-.024.041-.033.064 0 0-.001.012-.002.017-.025.059-.046.107-.08.189-.236.448-.344.931-.324 1.449-.002.38.081.803.131 1.174.168 1.248.882 2.255 1.724 3.163 1.206 1.302 3.477 1.572 4.98.643z"/><path d="m109.875 258.897c.004-.011.012-.02.016-.031l.001-.007c-.007.015-.009.02-.017.038z"/><path d="m146.825 312.912c-9.085-9.894-16.813-15.265-22.852-.557-3.337 8.127-3.424 16.207-4.957 24.669-4.145 15.387-6.665 31.827-8.538 47.227-1.428 11.734-.234 20.195 12.742 18.085 4.297-.698 8.455-1.918 12.701-2.792 3.921-.807 3.866-1.171 5.77 1.664 2.089 3.111 2.24 11.895 3.112 15.637 1.162 4.988 1.925 10.324 3.491 15.183 4.383 13.605 16.787 8.477 27.602 4.563 11.721-4.242 12.642-7.704 10.426-19.631-.775-4.173-1.173-8.322-2.11-12.474-.503-2.228-3.583-9.759-2.64-12.183 1.917-4.931 11.785-7.465 15.257-11.072 6.843-7.107-5.104-17.909-9.587-22.818-13.718-15.021-26.677-30.538-40.417-45.501zm42.911 63.18c-.999 1.736-4.862 2.982-6.485 4.093-6.094 4.172-10.627 7.994-9.338 15.744.866 5.208 2.398 10.269 3.595 15.404 1.102 4.728 1.264 9.541 2.277 14.257.54 2.513-11.165 4.797-12.563 5.169-6.064 1.613-8.591 2.583-11.706-3.255-1.81-3.391-2.135-9.101-2.972-12.792-1.335-5.886-1.043-17.244-5.552-21.833-6.453-6.568-16.619 2.077-23.979 1.294-12.064-1.285-.906-27.527.173-33.793 1.249-7.257 2.487-14.519 3.483-21.816.89-6.523.645-13.944 2.958-20.161.532-1.429 2.202-5.482 3.695-6.075 2.153-.854 3.905 2.257 5.271 3.635 7.096 7.16 14.615 14.498 20.875 22.354 6.176 7.752 12.617 15.441 19.218 22.84 2.597 2.912 12.824 11.829 11.05 14.935z"/><path d="m439.276 275.073c4.887-.279 7.678-2.563 11.259-5.413 6.578-5.233 12.991-11.206 19.097-17.018 8.805-8.381 19.687-14.658 21.491-27.678 1.229-8.87-1.592-24.079-12.292-26.04-11.283-2.068-23.357 9.298-30.794 16.079-4.927 4.492-9.204 9.565-13.874 14.299-.163.117-.326.238-.489.354-9.105 6.528-16.812 17.999-14.381 29.803 1.775 8.619 11.064 16.122 19.983 15.614zm-11.497-26.1c2.332-7.133 6.559-10.348 11.977-14.584 6.072-4.747 12.146-9.497 18.038-14.468 5.803-4.897 15.14-18.097 23.45-9.15 6.554 7.056 1.061 19.503-4.332 24.945-5.37 5.418-11.603 10.368-17.241 15.544-6.823 6.264-16.599 17.42-26.909 14.312-7.353-2.217-6.704-11.332-4.983-16.599z"/><path d="m449.174 241.913c2.197 3.918 7.071 4.388 10.332 1.6 2.117-1.81 3.936-4.355 4.943-6.95 1.298-3.346-.27-7.258-3.9-8.292-3.299-.939-6.761 1.007-9.041 3.273-1.821 1.811-3.309 4.552-3.266 7.175.012.679.168 1.278.384 1.837.132.46.301.915.548 1.357z"/><path d="m509.675 226.576c-1.718-29.081-1.801-58.441-1.799-87.641.001-9.041.318-19.314-6.134-26.432-6.72-7.414-19.659-11.505-29.249-12.128-16.152-1.05-32.382-1.382-48.609-1.064-8.758.171-23.067-1.598-28.21 7.204-4.586 7.848-3.017 16.973-2.434 25.431.763 11.063.232 22.389.246 33.477.033 24.856-.69 49.782.054 74.533.794 26.41 1.334 52.83 2.549 79.226.625 13.586.248 27.228 1.35 40.803.825 10.165 2.988 21.151 13.305 25.498 11.257 4.744 23.724 2.775 35.463 2.668 13.922-.126 29.018-1.681 42.491-5.375 23.873-6.546 22.348-39.35 22.937-59.333.954-32.382-.054-64.627-1.96-96.867zm-106.956-101.569c.481-4.463.347-8.892 3.954-11.666 3.784-2.91 12.551-2.726 17.211-2.844 12.181-.305 24.999-.746 37.145.171 9.747.736 21.041 1.082 29.388 7.009 9.927 7.047 6.262 27.069 6.262 38.018-.001 9.089.27 18.157.598 27.216-5.501.474-11.69.23-16.756.415-10.876.397-22.221.547-33.079-.158-14.792-.96-30.478-2.577-45.34-.679 2.926-19.014-1.446-38.331.617-57.482zm-.708 87.018c-.361-8.094-.455-16.187-.471-24.279 18.669 2.9 38.499 3.121 57.27 3.129 9.888.005 19.816.332 29.656-.571 3.045-.279 6.194.1 9.078-.15.412 10.868.829 21.728.885 32.597.059 11.445 2.117 22.748 2.136 34.257.01 6.597.011 13.195.011 19.792 0 4.351 1.649 10.381-2.457 12.943-5.061 3.157-13.941.976-19.591 1.134-9.329.262-18.667.191-27.989.692-7.806.419-15.676.165-23.491.263-6.421.08-14.844 1.067-21.655.093-1.059-26.626-2.194-53.267-3.382-79.9zm97.857 122.64c-.884 12.529-.254 32.212-14.156 37.274-10.55 3.842-24.273 4.663-35.381 5.257-10.278.549-32.775 4.467-39.597-5.531-5.432-7.96-3.576-25.996-3.832-35.47-.332-12.322-.728-24.632-1.21-36.953-.015-.385-.032-.771-.047-1.156 2.91.579 6.1.535 8.848.793 9.647.906 19.486.573 29.166.593 8.669.018 17.146-1.425 25.806-1.32 9.983.121 19.864.573 29.77-.705.43-.055.891-.167 1.342-.33.014 12.513.172 25.057-.709 37.548z"/><path d="m426.375 134.141c8.735 1.58 17.705 1.287 26.556 1.342 7.502.046 15.317.719 22.181-2.643 1.96-.961 1.159-3.625-.557-4.259-7.02-2.594-16.011-.486-23.477-.441-8.247.049-16.566-.143-24.703 1.329-2.312.417-2.313 4.254 0 4.672z"/><path d="m426.375 149.779c8.735 1.58 17.705 1.287 26.556 1.342 7.502.046 15.317.719 22.181-2.643 1.96-.961 1.159-3.625-.557-4.259-7.02-2.594-16.011-.486-23.477-.441-8.247.05-16.566-.143-24.703 1.329-2.312.417-2.313 4.254 0 4.672z"/><path d="m426.375 165.419c8.735 1.58 17.705 1.287 26.556 1.342 7.502.046 15.317.719 22.181-2.643 1.96-.961 1.159-3.625-.557-4.259-7.02-2.594-16.011-.486-23.477-.441-8.247.049-16.566-.143-24.703 1.329-2.312.416-2.313 4.254 0 4.672z"/><path d="m474.555 315.266c-7.02-2.595-16.011-.486-23.477-.44-8.247.049-16.566-.143-24.703 1.328-2.312.418-2.314 4.255 0 4.673 8.735 1.581 17.705 1.287 26.556 1.342 7.502.046 15.317.719 22.181-2.643 1.96-.962 1.159-3.626-.557-4.26z"/><path d="m474.555 330.905c-7.02-2.594-16.011-.486-23.477-.441-8.247.049-16.566-.143-24.703 1.329-2.312.418-2.314 4.255 0 4.673 8.735 1.58 17.705 1.287 26.556 1.342 7.502.046 15.317.719 22.181-2.643 1.96-.962 1.159-3.626-.557-4.26z"/><path d="m474.555 346.544c-7.02-2.595-16.011-.486-23.477-.441-8.247.049-16.566-.143-24.703 1.329-2.312.418-2.314 4.255 0 4.673 8.735 1.58 17.705 1.287 26.556 1.341 7.502.046 15.317.719 22.181-2.643 1.96-.961 1.159-3.625-.557-4.259z"/></svg>