<svg enable-background="new 0 0 512 512" viewBox="0 0 512 512" xmlns="http://www.w3.org/2000/svg"><path d="m375.49 69.55c-.003-7.807-.005-15.614-.007-23.421-.004-7.145 1.338-15.042-.092-22.079-2.264-11.142-8.789-17.948-19.869-19.547-16.244-2.344-33.415.372-49.734.745-5.989.137-11.892.265-17.767.454-39.8-.972-79.64-1.163-119.401-2.174-30.898-.786-61.861-2.479-92.755-1.032-13.183.618-26.548.029-39.661 1.537-10.471 1.206-22.505.045-27.504 11.099-4.861 10.751-3.28 24.034-3.683 35.492-.596 16.933-.198 33.842-.199 50.782-.002 33.521-1.7 67.119-.863 100.619.816 32.632 1.237 65.235.802 97.88-.433 32.481-2.964 64.937-2.878 97.413.042 15.938.622 31.934-.12 47.864-.588 12.618-4.326 28.048 1.307 40.032 3.521 7.492 12.172 9.835 19.636 11.942 14.317 4.041 29.952 5.346 44.684 7.104 63.476 7.573 128.03 5.55 191.855 5.599 27.12.021 54.659.636 81.529-2.811 9.133-1.171 17.792-2.97 23.107-11.356 6.84-10.792 7.876-26.659 9.678-39.065 4.133-28.46.631-58.188-1.499-86.699-2.319-31.034-2.412-62.102-2.405-93.224.008-34.768-.312-69.537 1.15-104.244 1.447-34.361 4.7-68.489 4.689-102.91zm-235.958-54.892c-.165.986-.299 1.849-.313 2.36-.145 5.407-.567 10.908-.058 16.302.544 5.762.043 12.755 1.188 18.834-11.324-.531-22.65-.926-33.993-.8-.891.01-1.788.021-2.679.031-.198-.245-.423-.476-.698-.668.142.099-.344-6.05-.326-5.902-.533-4.408-.694-8.791-1.211-13.204-.684-5.84-1.368-11.685-2.041-17.534 13.377-.056 26.754.243 40.131.581zm-77.79.453c4.013-.118 8.033-.243 12.067-.433 6.706-.316 13.411-.474 20.117-.553-.421 6.299.092 12.603.472 18.955.273 4.574.737 9.117 1.273 13.661.178 1.509.081 3.161.235 4.735-.037-.378-23.879.313-26.081.291-7.782-.077-7.57-3.055-8.122-10.227 0-8.733.696-17.728.039-26.429zm-44.326 17.357c.148-2.073.299-6.33 1.184-8.801 2.595-7.237 5.66-6.147 13.05-6.938 8.105-.868 16.175-1.193 24.262-1.441 0 2.982-.129 36.696.379 36.687-13.272.218-26.541.503-39.773.97.239-6.821.413-13.68.898-20.477zm344.858 414.397c-.522 6.078-1.553 11.993-2.617 17.95-5.251.161-10.907 2.306-16 3.243-8.398 1.546-15.839 2.013-24.362 1.657-8.711-.363-17.193-.606-25.849-1.738-9.318-1.218-16.024-4.005-24.386-8.133-13.606-6.716-23.336-18.453-36.6-25.62-.69-.373-1.436-.789-2.222-1.225 2.592-.044 5.18-.044 7.749.048 7.456.269 14.092 2.145 21.595 1.316 15.972-1.764 29.993-9.631 45.307-13.594 6.005-1.554 12.002-2.995 18.072-.29 3.285 1.464 6.035 4.234 9.219 5.911 4.484 2.363 10.391 4.473 15.472 3.438 4.218-.859 10.496-3.839 15.078-7.861.271 8.274.265 16.5-.456 24.898zm-130.567-22.792c12.182-5.659 23.722-12.571 35.346-19.736 16.162-9.961 28.333-21.693 40.523-35.611 2.792 4.222 4.851 8.796 9.06 12.396 4.192 3.585 8.995 6.138 14.244 7.749 10.63 3.26 20.298 4.538 30.395 2.306.249 5.58.51 11.154.809 16.714.03.56.058 1.115.087 1.674-3.283 2.622-6.687 5.543-10.663 6.695-9.89 2.865-14.962-1.527-22.77-5.664-10.365-5.491-22.353-2.592-32.83 1.093-12.768 4.489-25.409 10.057-38.91 12.1-6.413.971-12.58-.12-19.011-.074-1.783.013-3.978.199-6.28.358zm127.351-260.471c-1.306 27.112-1.746 54.194-1.74 81.346.006 27.68-1.31 55.742.744 83.329.224 3.012.381 6.044.574 9.065-5.275-.28-10.508.952-15.862-1.114-6.905-2.665-10.278-9.55-16.596-13.17-11.908-6.823-38.649 1.06-32.634-21.454 7.568-28.325 27.119-57.207 21.787-87.885-.475-2.735-4.728-2.542-5.338 0-5 20.814-9.927 41.735-18.395 61.427-5.66 13.164-17.576 32.933-6.963 46.447 4.246 5.407 10.714 8.085 17.407 8.896 9.413 1.139 16.501 1.084 23.872 8.039 8.953 8.449 21.505 13.867 33.414 9.807.601 11.159 1.064 22.352 1.542 33.532-8.444-.095-16.685.368-25.314-1.936-8.06-2.151-15.043-6.035-19.637-13.328-1.826-2.898-2.614-5.448-5.016-7.95-1.618-1.687-4.634-1.712-6.251 0-14.399 15.249-28.625 27.987-46.687 39.051-9.357 5.732-18.79 11.332-28.251 16.887-5.164 3.032-13.636 5.654-16.324 11.697-3.799 8.542 8.59 12.671 14.171 16.315 7.481 4.888 13.644 11.136 20.378 16.936 9.099 7.836 22.425 15.594 34.186 18.236 14.597 3.278 30.673 4.347 45.577 4.089 9.264-.16 20.855-1.121 30.028-4.958-.828 5.286-2.126 10.793-5.564 14.053-6.571 6.231-23.063 4.78-31.519 5.453-13.724 1.092-27.453 1.207-41.224 1.24-59.215.143-118.841 2.015-177.905-2.844-25.947-2.135-53.904-2.158-78.908-10.305-7.864-2.562-9.493-4.203-10.104-13.224-.411-6.065.311-12.138.748-18.18 1.069-14.769.787-29.586.641-44.383-.576-58.651 3.643-117.233 2.594-175.942-.528-29.554-.551-58.869-.089-88.421.442-28.335-.936-56.773-.076-85.095 32.26.948 64.45-.664 96.689-.323 33.209.351 66.456 2.302 99.674 2.952 33.234.65 66.45.238 99.717 1.053 13.014.319 25.962-.886 38.902-.659 3.262.057 7.938.707 11.805-.104.04 6.175.101 12.349.099 18.511-.008 27.65-2.822 55.304-4.152 82.914zm4.227-125.683c-.145 4.888-.182 9.785-.19 14.684-.464.333-.882.795-1.21 1.431-.531 1.028-24.434.839-25.727.902-15.507.765-31.119-.419-46.623-.741-30.777-.638-61.732-.266-92.499-.034-16.348.123-32.661-.798-48.974-1.623-.852-3.394-.674-9.275-.863-11.887-.333-4.607-.822-9.318-1.004-13.944-.153-3.915-.437-7.946-.345-11.889 6.812.177 13.625.351 20.439.488 32.273.647 64.735-.488 96.96 1.191 30.396 1.584 60.936 1.142 91.328-.602 10.532 4.337 8.975 12.988 8.708 22.024z"/><path d="m283.377 164.498c-2.727-16.213-17.582-25.772-32.004-30.813-4.737-1.655-9.724-3.091-14.844-4.297-13.733-3.236-28.42-4.815-41.786-4.53-17.068.364-32.084 4.24-47.383 11.612-18.176 8.759-35.996 14.969-55.569 19.797-3.33.821-3.494 6.18 0 6.902 8.32 1.72 16.236 1.028 23.923-.995 6.754 21.774 29.84 36.519 49.609 44.87 12.835 5.421 28.776 7.863 42.653 8.995 13.134 1.072 25.445-2.778 38.096-5.653 19.524-4.436 41.08-23.443 37.305-45.888zm-84.393-28.521c3.82.114 7.638.415 11.443.851 8.399 2.365 14.885 6.788 16.751 17.671 1.635 9.537-2.429 20.047-10.316 25.866-8.271 6.102-15.184 5.715-24.851 3.137-10.842-2.89-17.1-13.75-15.578-24.611 1.602-11.443 11.817-19.48 22.551-22.914zm71.898 37.611c-5.615 20.513-24.806 25.806-43.332 29.139-19.651 3.535-42.81.993-61.139-7.542-15.692-7.307-35.737-18.53-44.58-34.903 17.055-5.986 33.174-17.269 50.317-21.608 3.628-.919 7.289-1.571 10.966-2.016-8.564 6.051-15.121 15.395-14.942 24.702.34 17.73 12.233 29.23 29.031 32.013 19.568 3.241 38.266-14.417 38.533-33.795.113-8.167-2.018-14.596-5.753-19.47 10.06 1.978 22.996 4.743 31.966 10.83 6.783 6.517 11.211 14.328 8.933 22.65z"/><path d="m210.477 152.242c-3.348-3.838-9.465-3.202-13.649-1.19-4.595 2.209-6.592 7.665-5.614 12.519.012.603.071 1.197.192 1.776 1.025 4.909 6.063 8.769 11.097 7.906 4.34-.744 7.445-4.39 9.05-8.286 1.655-4.017 1.96-9.246-1.076-12.725z"/><path d="m162.301 255.503c-6.056 2.754-12.407 9.874-13.061 16.745-.33 3.464 1.22 8.534 4.272 10.881.232.47.431.961.71 1.4 3.662 5.761 11.487 9.312 18.227 8.579 6.713-.73 10.674-5.756 12.869-11.755 5.335-14.582-6.462-33.379-23.017-25.85zm16.168 24.357c-3.798 9.47-17.442 8.277-20.892-1.217-1.259-3.465-.901-7.498.546-11.189 2.046-3.062 5.049-5.566 7.809-6.412 11.241-3.444 15.915 10.396 12.537 18.818z"/><path d="m83.13 282.87c-6.056 2.754-12.407 9.874-13.061 16.745-.33 3.464 1.22 8.534 4.272 10.881.232.47.431.961.711 1.4 3.662 5.761 11.487 9.311 18.227 8.579 6.712-.73 10.674-5.756 12.869-11.755 5.333-14.581-6.463-33.378-23.018-25.85zm16.168 24.357c-3.798 9.47-17.442 8.277-20.892-1.217-1.259-3.465-.901-7.497.546-11.188 2.046-3.062 5.049-5.566 7.809-6.412 11.241-3.444 15.915 10.395 12.537 18.817z"/><path d="m232.262 295.735c-.825-3.331-4.216-5.293-7.507-5.305-3.11-.012-6.233 1.897-7.562 4.448-.975 1.641-1.408 3.609-1.087 5.487.507 2.965 3.009 5.763 5.934 6.551 3.273.882 5.801-1.012 7.607-3.529 1.559-2.174 3.308-4.85 2.615-7.652z"/><path d="m118.798 256.287c-1.43-2.219-4.252-2.779-6.54-1.576-1.68.882-2.294 2.465-2.366 4.147.127-.285.138-.306.033-.058-.009.023-.024.041-.033.064 0 0-.001.012-.002.017-.025.059-.046.107-.08.189-.236.448-.344.931-.324 1.449-.002.38.081.803.131 1.174.168 1.248.882 2.255 1.724 3.163 1.206 1.302 3.477 1.572 4.98.643 1.476-.912 2.653-2.256 3.08-3.976.399-1.607.331-3.787-.603-5.236z"/><path d="m109.875 258.897c.004-.011.012-.02.016-.031l.001-.007c-.007.015-.009.02-.017.038z"/><path d="m196.829 381.231c6.843-7.107-5.104-17.909-9.587-22.818-13.718-15.021-26.677-30.538-40.417-45.501-9.085-9.894-16.813-15.265-22.852-.557-3.337 8.127-3.424 16.207-4.957 24.669-4.145 15.387-6.665 31.827-8.538 47.227-1.428 11.734-.234 20.195 12.742 18.085 4.297-.698 8.455-1.918 12.701-2.792 3.921-.807 3.866-1.171 5.77 1.664 2.089 3.111 2.24 11.895 3.112 15.637 1.162 4.988 1.925 10.324 3.491 15.183 4.383 13.605 16.787 8.477 27.602 4.563 11.721-4.242 12.642-7.704 10.426-19.631-.775-4.173-1.173-8.322-2.11-12.474-.503-2.228-3.583-9.759-2.64-12.183 1.917-4.931 11.785-7.465 15.257-11.072zm-22.916 14.698c.866 5.208 2.398 10.269 3.595 15.404 1.102 4.728 1.264 9.541 2.277 14.257.54 2.513-11.165 4.797-12.563 5.169-6.064 1.613-8.591 2.583-11.706-3.255-1.81-3.391-2.135-9.101-2.972-12.792-1.335-5.886-1.043-17.244-5.552-21.833-6.453-6.568-16.619 2.077-23.979 1.294-12.064-1.285-.906-27.527.173-33.793 1.249-7.257 2.487-14.519 3.483-21.816.89-6.523.645-13.944 2.958-20.161.532-1.429 2.202-5.482 3.695-6.075 2.153-.854 3.905 2.257 5.271 3.635 7.096 7.16 14.615 14.498 20.875 22.354 6.176 7.752 12.617 15.441 19.218 22.84 2.597 2.912 12.824 11.829 11.05 14.935-.999 1.736-4.862 2.982-6.485 4.093-6.094 4.172-10.627 7.994-9.338 15.744z"/><path d="m478.831 198.924c-11.283-2.068-23.357 9.298-30.794 16.079-4.927 4.492-9.204 9.565-13.874 14.299-.163.117-.326.238-.489.354-9.105 6.528-16.812 17.999-14.381 29.803 1.775 8.619 11.064 16.122 19.983 15.614 4.887-.279 7.678-2.563 11.259-5.413 6.578-5.233 12.991-11.206 19.097-17.018 8.805-8.381 19.687-14.658 21.491-27.678 1.229-8.869-1.592-24.079-12.292-26.04zm-1.919 36.792c-5.37 5.418-11.603 10.368-17.241 15.544-6.823 6.264-16.599 17.42-26.909 14.312-7.353-2.217-6.704-11.333-4.983-16.599 2.332-7.133 6.559-10.348 11.977-14.584 6.072-4.747 12.146-9.497 18.038-14.468 5.803-4.897 15.14-18.097 23.45-9.15 6.554 7.056 1.061 19.504-4.332 24.945z"/><path d="m460.549 228.271c-3.299-.939-6.761 1.007-9.041 3.273-1.821 1.811-3.309 4.552-3.266 7.175.012.679.168 1.278.384 1.837.132.46.301.915.548 1.357 2.197 3.918 7.071 4.388 10.332 1.6 2.117-1.81 3.936-4.355 4.943-6.95 1.298-3.345-.27-7.257-3.9-8.292z"/><path d="m509.675 226.575c-1.718-29.081-1.801-58.441-1.799-87.641.001-9.041.318-19.314-6.134-26.432-6.72-7.414-19.659-11.505-29.249-12.128-16.152-1.05-32.382-1.382-48.609-1.064-8.758.171-23.067-1.598-28.21 7.204-4.586 7.848-3.017 16.973-2.434 25.431.763 11.063.232 22.389.246 33.477.033 24.856-.69 49.782.054 74.533.794 26.41 1.334 52.83 2.549 79.226.625 13.586.248 27.228 1.35 40.803.825 10.165 2.988 21.151 13.305 25.498 11.257 4.744 23.724 2.775 35.463 2.668 13.922-.126 29.018-1.681 42.491-5.375 23.873-6.546 22.348-39.35 22.937-59.333.954-32.381-.054-64.626-1.96-96.867zm-106.956-101.568c.481-4.463.347-8.892 3.954-11.666 3.784-2.91 12.551-2.726 17.211-2.844 12.181-.305 24.999-.746 37.145.171 9.747.736 21.041 1.082 29.388 7.009 9.927 7.047 6.262 27.069 6.262 38.018-.001 9.089.27 18.157.598 27.216-5.501.474-11.69.23-16.756.415-10.876.397-22.221.547-33.079-.158-14.792-.96-30.478-2.577-45.34-.679 2.926-19.015-1.446-38.331.617-57.482zm97.149 209.658c-.884 12.529-.254 32.212-14.156 37.274-10.55 3.842-24.273 4.663-35.381 5.257-10.278.549-32.775 4.467-39.597-5.531-5.432-7.96-3.576-25.996-3.832-35.47-.332-12.322-.728-24.632-1.21-36.953-.015-.385-.032-.771-.047-1.156 2.91.579 6.1.535 8.848.793 9.647.906 19.486.573 29.166.593 8.669.018 17.146-1.425 25.806-1.32 9.983.121 19.864.573 29.77-.705.43-.055.891-.167 1.342-.33.014 12.513.172 25.057-.709 37.548zm-1.749-44.922c-5.061 3.157-13.941.976-19.591 1.134-9.329.262-18.667.191-27.989.692-7.806.419-15.676.165-23.491.263-6.421.08-14.844 1.067-21.655.093-1.059-26.626-2.194-53.267-3.382-79.9-.361-8.094-.455-16.187-.471-24.279 18.669 2.9 38.499 3.121 57.27 3.129 9.888.005 19.816.332 29.656-.571 3.045-.279 6.194.1 9.078-.15.412 10.868.829 21.728.885 32.597.059 11.445 2.117 22.748 2.136 34.257.01 6.597.011 13.195.011 19.792 0 4.351 1.649 10.381-2.457 12.943z"/><path d="m474.555 128.58c-7.02-2.594-16.011-.486-23.477-.441-8.247.049-16.566-.143-24.703 1.329-2.312.418-2.313 4.254 0 4.672 8.735 1.58 17.705 1.287 26.556 1.342 7.502.046 15.317.719 22.181-2.643 1.96-.961 1.159-3.625-.557-4.259z"/><path d="m474.555 144.219c-7.02-2.594-16.011-.486-23.477-.441-8.247.05-16.566-.143-24.703 1.329-2.312.417-2.313 4.254 0 4.672 8.735 1.58 17.705 1.287 26.556 1.342 7.502.046 15.317.719 22.181-2.643 1.96-.96 1.159-3.624-.557-4.259z"/><path d="m474.555 159.859c-7.02-2.594-16.011-.486-23.477-.441-8.247.049-16.566-.143-24.703 1.329-2.312.417-2.313 4.254 0 4.672 8.735 1.58 17.705 1.287 26.556 1.342 7.502.046 15.317.719 22.181-2.643 1.96-.962 1.159-3.626-.557-4.259z"/><path d="m474.555 315.266c-7.02-2.595-16.011-.486-23.477-.44-8.247.049-16.566-.143-24.703 1.328-2.312.418-2.314 4.255 0 4.673 8.735 1.581 17.705 1.287 26.556 1.342 7.502.046 15.317.719 22.181-2.643 1.96-.962 1.159-3.626-.557-4.26z"/><path d="m474.555 330.905c-7.02-2.594-16.011-.486-23.477-.441-8.247.049-16.566-.143-24.703 1.329-2.312.418-2.314 4.255 0 4.673 8.735 1.58 17.705 1.287 26.556 1.342 7.502.046 15.317.719 22.181-2.643 1.96-.962 1.159-3.626-.557-4.26z"/><path d="m474.555 346.544c-7.02-2.595-16.011-.486-23.477-.441-8.247.049-16.566-.143-24.703 1.329-2.312.418-2.314 4.255 0 4.673 8.735 1.58 17.705 1.287 26.556 1.341 7.502.046 15.317.719 22.181-2.643 1.96-.961 1.159-3.625-.557-4.259z"/></svg>